%TF.GenerationSoftware,KiCad,Pcbnew,8.0.1*%
%TF.CreationDate,2024-09-12T20:00:03-03:00*%
%TF.ProjectId,monitor_solar_v2,6d6f6e69-746f-4725-9f73-6f6c61725f76,rev?*%
%TF.SameCoordinates,PX602d950PY4d2bdc0*%
%TF.FileFunction,Plated,1,2,PTH,Drill*%
%TF.FilePolarity,Positive*%
%FSLAX46Y46*%
G04 Gerber Fmt 4.6, Leading zero omitted, Abs format (unit mm)*
G04 Created by KiCad (PCBNEW 8.0.1) date 2024-09-12 20:00:03*
%MOMM*%
%LPD*%
G01*
G04 APERTURE LIST*
%TA.AperFunction,ComponentDrill*%
%ADD10C,0.762000*%
%TD*%
%TA.AperFunction,ComponentDrill*%
%ADD11C,0.800000*%
%TD*%
%TA.AperFunction,ComponentDrill*%
%ADD12C,1.000000*%
%TD*%
%TA.AperFunction,ComponentDrill*%
%ADD13C,1.300000*%
%TD*%
%TA.AperFunction,ComponentDrill*%
%ADD14C,1.600000*%
%TD*%
G04 APERTURE END LIST*
D10*
%TO.C,U1*%
X40965000Y23280000D03*
X40965000Y20740000D03*
X40965000Y18200000D03*
X40965000Y15660000D03*
X40965000Y13120000D03*
X56205000Y20740000D03*
X56205000Y18200000D03*
X56205000Y15660000D03*
D11*
%TO.C,C5*%
X3900113Y35835000D03*
%TO.C,C4*%
X3925000Y21865000D03*
%TO.C,C5*%
X6400113Y35835000D03*
%TO.C,C4*%
X6425000Y21865000D03*
%TO.C,R2*%
X8270000Y13980000D03*
%TO.C,R1*%
X8370000Y18055000D03*
%TO.C,R2*%
X18430000Y13980000D03*
%TO.C,R1*%
X18530000Y18055000D03*
%TO.C,R4*%
X21070000Y35200000D03*
X21070000Y25040000D03*
%TO.C,U4*%
X22130000Y21880000D03*
X22130000Y19340000D03*
X22130000Y16800000D03*
X22130000Y14260000D03*
%TO.C,R10*%
X23610000Y10816000D03*
%TO.C,R11*%
X24118000Y7260000D03*
%TO.C,C2*%
X24855113Y35835000D03*
X27355113Y35835000D03*
%TO.C,C1*%
X30659888Y35835000D03*
%TO.C,U4*%
X32290000Y21880000D03*
X32290000Y19340000D03*
X32290000Y16800000D03*
X32290000Y14260000D03*
%TO.C,C1*%
X33159888Y35835000D03*
%TO.C,R10*%
X33770000Y10816000D03*
%TO.C,R11*%
X34278000Y7260000D03*
%TO.C,R3*%
X36310000Y32025000D03*
X36310000Y21865000D03*
%TO.C,R9*%
X48935000Y25450000D03*
X48935000Y15290000D03*
D12*
%TO.C,J2*%
X3925000Y16150000D03*
X3925000Y13610000D03*
X3925000Y11070000D03*
%TO.C,J4*%
X24950000Y41320000D03*
X27490000Y41320000D03*
X30030000Y41320000D03*
X32570000Y41320000D03*
%TO.C,J5*%
X52505000Y5560000D03*
X55045000Y5560000D03*
X57585000Y5560000D03*
D13*
%TO.C,J1*%
X14225000Y5755000D03*
X19225000Y5755000D03*
%TO.C,J3*%
X41125000Y5420000D03*
X46125000Y5420000D03*
D14*
%TO.C,D2*%
X15355000Y42820000D03*
X15355000Y27580000D03*
%TO.C,D1*%
X43295000Y42820000D03*
X43295000Y27580000D03*
M02*
