M48
; DRILL file {KiCad 8.0.5} date 2024-10-02T00:53:29-0300
; FORMAT={-:-/ absolute / inch / decimal}
; #@! TF.CreationDate,2024-10-02T00:53:29-03:00
; #@! TF.GenerationSoftware,Kicad,Pcbnew,8.0.5
; #@! TF.FileFunction,MixedPlating,1,2
FMAT,2
INCH
; #@! TA.AperFunction,Plated,PTH,ComponentDrill
T1C0.0300
; #@! TA.AperFunction,Plated,PTH,ComponentDrill
T2C0.0315
; #@! TA.AperFunction,Plated,PTH,ComponentDrill
T3C0.0394
; #@! TA.AperFunction,Plated,PTH,ComponentDrill
T4C0.0512
; #@! TA.AperFunction,Plated,PTH,ComponentDrill
T5C0.0630
; #@! TA.AperFunction,NonPlated,NPTH,ComponentDrill
T6C0.1260
%
G90
G05
T1
X2.5496Y-1.7685
X2.5496Y-1.8685
X2.5496Y-1.9685
X3.1496Y-1.6685
X3.1496Y-1.7685
X3.1496Y-1.8685
X3.1496Y-1.9685
X3.1496Y-2.0685
T2
X0.9252Y-1.6929
X1.0236Y-1.6929
X1.1614Y-1.063
X1.178Y-1.8091
X1.1811Y-1.9685
X1.2598Y-1.063
X1.578Y-1.8091
X1.5811Y-1.9685
X1.726Y-2.3622
X1.7323Y-2.1654
X1.7687Y-1.622
X1.7687Y-1.722
X1.7687Y-1.822
X1.7687Y-1.922
X1.8079Y-1.2598
X1.8504Y-0.9252
X1.8504Y-1.0236
X2.126Y-2.3622
X2.1323Y-2.1654
X2.1687Y-1.622
X2.1687Y-1.722
X2.1687Y-1.822
X2.1687Y-1.922
X2.2079Y-1.2598
X2.2803Y-1.4173
X2.3228Y-1.8079
X2.3228Y-2.2079
X2.5984Y-0.9252
X2.5984Y-1.0236
X2.6803Y-1.4173
T3
X0.9449Y-1.926
X0.9449Y-2.026
X0.9449Y-2.126
X2.0654Y-0.9449
X2.1654Y-0.9449
X2.2654Y-0.9449
X2.3016Y-2.4016
X2.3654Y-0.9449
X2.4016Y-2.4016
X2.5016Y-2.4016
T4
X1.3189Y-2.3742
X1.5157Y-2.3742
X2.7559Y-2.3742
X2.9528Y-2.3742
T5
X1.5354Y-0.9205
X1.5354Y-1.5205
X2.874Y-0.9205
X2.874Y-1.5205
T6
X0.9449Y-0.9449
X0.9449Y-2.4016
X3.2283Y-0.9449
X3.2283Y-2.4016
M30
