%TF.GenerationSoftware,KiCad,Pcbnew,8.0.1*%
%TF.CreationDate,2024-09-12T20:33:38-03:00*%
%TF.ProjectId,monitor_solar_v2,6d6f6e69-746f-4725-9f73-6f6c61725f76,rev?*%
%TF.SameCoordinates,PX602d950PY4d2bdc0*%
%TF.FileFunction,Drillmap*%
%TF.FilePolarity,Positive*%
%FSLAX45Y45*%
G04 Gerber Fmt 4.5, Leading zero omitted, Abs format (unit mm)*
G04 Created by KiCad (PCBNEW 8.0.1) date 2024-09-12 20:33:38*
%MOMM*%
%LPD*%
G01*
G04 APERTURE LIST*
%ADD10C,0.050000*%
%ADD11C,0.200000*%
%ADD12C,0.320000*%
G04 APERTURE END LIST*
D10*
X-200Y4500000D02*
X6679000Y4500000D01*
X6679000Y0D01*
X-200Y0D01*
X-200Y4500000D01*
D11*
D12*
X205000Y4352000D02*
X525000Y4032000D01*
X525000Y4352000D02*
X205000Y4032000D01*
X205000Y552000D02*
X525000Y232000D01*
X525000Y552000D02*
X205000Y232000D01*
X6163400Y4340400D02*
X6483400Y4020400D01*
X6483400Y4340400D02*
X6163400Y4020400D01*
X6163400Y530400D02*
X6483400Y210400D01*
X6483400Y530400D02*
X6163400Y210400D01*
D11*
X258077Y-313984D02*
X258077Y-113984D01*
X258077Y-113984D02*
X305696Y-113984D01*
X305696Y-113984D02*
X334267Y-123508D01*
X334267Y-123508D02*
X353315Y-142555D01*
X353315Y-142555D02*
X362839Y-161603D01*
X362839Y-161603D02*
X372362Y-199698D01*
X372362Y-199698D02*
X372362Y-228269D01*
X372362Y-228269D02*
X362839Y-266365D01*
X362839Y-266365D02*
X353315Y-285412D01*
X353315Y-285412D02*
X334267Y-304460D01*
X334267Y-304460D02*
X305696Y-313984D01*
X305696Y-313984D02*
X258077Y-313984D01*
X458077Y-313984D02*
X458077Y-180650D01*
X458077Y-218746D02*
X467601Y-199698D01*
X467601Y-199698D02*
X477124Y-190174D01*
X477124Y-190174D02*
X496172Y-180650D01*
X496172Y-180650D02*
X515220Y-180650D01*
X581886Y-313984D02*
X581886Y-180650D01*
X581886Y-113984D02*
X572363Y-123508D01*
X572363Y-123508D02*
X581886Y-133031D01*
X581886Y-133031D02*
X591410Y-123508D01*
X591410Y-123508D02*
X581886Y-113984D01*
X581886Y-113984D02*
X581886Y-133031D01*
X705696Y-313984D02*
X686648Y-304460D01*
X686648Y-304460D02*
X677124Y-285412D01*
X677124Y-285412D02*
X677124Y-113984D01*
X810458Y-313984D02*
X791410Y-304460D01*
X791410Y-304460D02*
X781886Y-285412D01*
X781886Y-285412D02*
X781886Y-113984D01*
X1039029Y-313984D02*
X1039029Y-113984D01*
X1039029Y-113984D02*
X1105696Y-256841D01*
X1105696Y-256841D02*
X1172363Y-113984D01*
X1172363Y-113984D02*
X1172363Y-313984D01*
X1353315Y-313984D02*
X1353315Y-209222D01*
X1353315Y-209222D02*
X1343791Y-190174D01*
X1343791Y-190174D02*
X1324744Y-180650D01*
X1324744Y-180650D02*
X1286648Y-180650D01*
X1286648Y-180650D02*
X1267601Y-190174D01*
X1353315Y-304460D02*
X1334267Y-313984D01*
X1334267Y-313984D02*
X1286648Y-313984D01*
X1286648Y-313984D02*
X1267601Y-304460D01*
X1267601Y-304460D02*
X1258077Y-285412D01*
X1258077Y-285412D02*
X1258077Y-266365D01*
X1258077Y-266365D02*
X1267601Y-247317D01*
X1267601Y-247317D02*
X1286648Y-237793D01*
X1286648Y-237793D02*
X1334267Y-237793D01*
X1334267Y-237793D02*
X1353315Y-228269D01*
X1448553Y-180650D02*
X1448553Y-380650D01*
X1448553Y-190174D02*
X1467601Y-180650D01*
X1467601Y-180650D02*
X1505696Y-180650D01*
X1505696Y-180650D02*
X1524743Y-190174D01*
X1524743Y-190174D02*
X1534267Y-199698D01*
X1534267Y-199698D02*
X1543791Y-218746D01*
X1543791Y-218746D02*
X1543791Y-275889D01*
X1543791Y-275889D02*
X1534267Y-294936D01*
X1534267Y-294936D02*
X1524743Y-304460D01*
X1524743Y-304460D02*
X1505696Y-313984D01*
X1505696Y-313984D02*
X1467601Y-313984D01*
X1467601Y-313984D02*
X1448553Y-304460D01*
X1629505Y-294936D02*
X1639029Y-304460D01*
X1639029Y-304460D02*
X1629505Y-313984D01*
X1629505Y-313984D02*
X1619982Y-304460D01*
X1619982Y-304460D02*
X1629505Y-294936D01*
X1629505Y-294936D02*
X1629505Y-313984D01*
X1629505Y-190174D02*
X1639029Y-199698D01*
X1639029Y-199698D02*
X1629505Y-209222D01*
X1629505Y-209222D02*
X1619982Y-199698D01*
X1619982Y-199698D02*
X1629505Y-190174D01*
X1629505Y-190174D02*
X1629505Y-209222D01*
X-202700Y-542500D02*
X-2700Y-742500D01*
X-2700Y-542500D02*
X-202700Y-742500D01*
X239029Y-533984D02*
X362839Y-533984D01*
X362839Y-533984D02*
X296172Y-610174D01*
X296172Y-610174D02*
X324744Y-610174D01*
X324744Y-610174D02*
X343791Y-619698D01*
X343791Y-619698D02*
X353315Y-629222D01*
X353315Y-629222D02*
X362839Y-648270D01*
X362839Y-648270D02*
X362839Y-695889D01*
X362839Y-695889D02*
X353315Y-714936D01*
X353315Y-714936D02*
X343791Y-724460D01*
X343791Y-724460D02*
X324744Y-733984D01*
X324744Y-733984D02*
X267601Y-733984D01*
X267601Y-733984D02*
X248553Y-724460D01*
X248553Y-724460D02*
X239029Y-714936D01*
X448553Y-714936D02*
X458077Y-724460D01*
X458077Y-724460D02*
X448553Y-733984D01*
X448553Y-733984D02*
X439029Y-724460D01*
X439029Y-724460D02*
X448553Y-714936D01*
X448553Y-714936D02*
X448553Y-733984D01*
X534267Y-553031D02*
X543791Y-543508D01*
X543791Y-543508D02*
X562839Y-533984D01*
X562839Y-533984D02*
X610458Y-533984D01*
X610458Y-533984D02*
X629505Y-543508D01*
X629505Y-543508D02*
X639029Y-553031D01*
X639029Y-553031D02*
X648553Y-572079D01*
X648553Y-572079D02*
X648553Y-591127D01*
X648553Y-591127D02*
X639029Y-619698D01*
X639029Y-619698D02*
X524744Y-733984D01*
X524744Y-733984D02*
X648553Y-733984D01*
X772362Y-533984D02*
X791410Y-533984D01*
X791410Y-533984D02*
X810458Y-543508D01*
X810458Y-543508D02*
X819982Y-553031D01*
X819982Y-553031D02*
X829505Y-572079D01*
X829505Y-572079D02*
X839029Y-610174D01*
X839029Y-610174D02*
X839029Y-657793D01*
X839029Y-657793D02*
X829505Y-695889D01*
X829505Y-695889D02*
X819982Y-714936D01*
X819982Y-714936D02*
X810458Y-724460D01*
X810458Y-724460D02*
X791410Y-733984D01*
X791410Y-733984D02*
X772362Y-733984D01*
X772362Y-733984D02*
X753315Y-724460D01*
X753315Y-724460D02*
X743791Y-714936D01*
X743791Y-714936D02*
X734267Y-695889D01*
X734267Y-695889D02*
X724743Y-657793D01*
X724743Y-657793D02*
X724743Y-610174D01*
X724743Y-610174D02*
X734267Y-572079D01*
X734267Y-572079D02*
X743791Y-553031D01*
X743791Y-553031D02*
X753315Y-543508D01*
X753315Y-543508D02*
X772362Y-533984D01*
X962839Y-533984D02*
X981886Y-533984D01*
X981886Y-533984D02*
X1000934Y-543508D01*
X1000934Y-543508D02*
X1010458Y-553031D01*
X1010458Y-553031D02*
X1019982Y-572079D01*
X1019982Y-572079D02*
X1029505Y-610174D01*
X1029505Y-610174D02*
X1029505Y-657793D01*
X1029505Y-657793D02*
X1019982Y-695889D01*
X1019982Y-695889D02*
X1010458Y-714936D01*
X1010458Y-714936D02*
X1000934Y-724460D01*
X1000934Y-724460D02*
X981886Y-733984D01*
X981886Y-733984D02*
X962839Y-733984D01*
X962839Y-733984D02*
X943791Y-724460D01*
X943791Y-724460D02*
X934267Y-714936D01*
X934267Y-714936D02*
X924743Y-695889D01*
X924743Y-695889D02*
X915220Y-657793D01*
X915220Y-657793D02*
X915220Y-610174D01*
X915220Y-610174D02*
X924743Y-572079D01*
X924743Y-572079D02*
X934267Y-553031D01*
X934267Y-553031D02*
X943791Y-543508D01*
X943791Y-543508D02*
X962839Y-533984D01*
X1115220Y-733984D02*
X1115220Y-600650D01*
X1115220Y-619698D02*
X1124744Y-610174D01*
X1124744Y-610174D02*
X1143791Y-600650D01*
X1143791Y-600650D02*
X1172363Y-600650D01*
X1172363Y-600650D02*
X1191410Y-610174D01*
X1191410Y-610174D02*
X1200934Y-629222D01*
X1200934Y-629222D02*
X1200934Y-733984D01*
X1200934Y-629222D02*
X1210458Y-610174D01*
X1210458Y-610174D02*
X1229505Y-600650D01*
X1229505Y-600650D02*
X1258077Y-600650D01*
X1258077Y-600650D02*
X1277125Y-610174D01*
X1277125Y-610174D02*
X1286648Y-629222D01*
X1286648Y-629222D02*
X1286648Y-733984D01*
X1381886Y-733984D02*
X1381886Y-600650D01*
X1381886Y-619698D02*
X1391410Y-610174D01*
X1391410Y-610174D02*
X1410458Y-600650D01*
X1410458Y-600650D02*
X1439029Y-600650D01*
X1439029Y-600650D02*
X1458077Y-610174D01*
X1458077Y-610174D02*
X1467601Y-629222D01*
X1467601Y-629222D02*
X1467601Y-733984D01*
X1467601Y-629222D02*
X1477124Y-610174D01*
X1477124Y-610174D02*
X1496172Y-600650D01*
X1496172Y-600650D02*
X1524743Y-600650D01*
X1524743Y-600650D02*
X1543791Y-610174D01*
X1543791Y-610174D02*
X1553315Y-629222D01*
X1553315Y-629222D02*
X1553315Y-733984D01*
X1943791Y-524460D02*
X1772363Y-781603D01*
X2200934Y-533984D02*
X2219982Y-533984D01*
X2219982Y-533984D02*
X2239029Y-543508D01*
X2239029Y-543508D02*
X2248553Y-553031D01*
X2248553Y-553031D02*
X2258077Y-572079D01*
X2258077Y-572079D02*
X2267601Y-610174D01*
X2267601Y-610174D02*
X2267601Y-657793D01*
X2267601Y-657793D02*
X2258077Y-695889D01*
X2258077Y-695889D02*
X2248553Y-714936D01*
X2248553Y-714936D02*
X2239029Y-724460D01*
X2239029Y-724460D02*
X2219982Y-733984D01*
X2219982Y-733984D02*
X2200934Y-733984D01*
X2200934Y-733984D02*
X2181887Y-724460D01*
X2181887Y-724460D02*
X2172363Y-714936D01*
X2172363Y-714936D02*
X2162839Y-695889D01*
X2162839Y-695889D02*
X2153315Y-657793D01*
X2153315Y-657793D02*
X2153315Y-610174D01*
X2153315Y-610174D02*
X2162839Y-572079D01*
X2162839Y-572079D02*
X2172363Y-553031D01*
X2172363Y-553031D02*
X2181887Y-543508D01*
X2181887Y-543508D02*
X2200934Y-533984D01*
X2353315Y-714936D02*
X2362839Y-724460D01*
X2362839Y-724460D02*
X2353315Y-733984D01*
X2353315Y-733984D02*
X2343791Y-724460D01*
X2343791Y-724460D02*
X2353315Y-714936D01*
X2353315Y-714936D02*
X2353315Y-733984D01*
X2553315Y-733984D02*
X2439029Y-733984D01*
X2496172Y-733984D02*
X2496172Y-533984D01*
X2496172Y-533984D02*
X2477125Y-562555D01*
X2477125Y-562555D02*
X2458077Y-581603D01*
X2458077Y-581603D02*
X2439029Y-591127D01*
X2629506Y-553031D02*
X2639029Y-543508D01*
X2639029Y-543508D02*
X2658077Y-533984D01*
X2658077Y-533984D02*
X2705696Y-533984D01*
X2705696Y-533984D02*
X2724744Y-543508D01*
X2724744Y-543508D02*
X2734268Y-553031D01*
X2734268Y-553031D02*
X2743791Y-572079D01*
X2743791Y-572079D02*
X2743791Y-591127D01*
X2743791Y-591127D02*
X2734268Y-619698D01*
X2734268Y-619698D02*
X2619982Y-733984D01*
X2619982Y-733984D02*
X2743791Y-733984D01*
X2915220Y-533984D02*
X2877125Y-533984D01*
X2877125Y-533984D02*
X2858077Y-543508D01*
X2858077Y-543508D02*
X2848553Y-553031D01*
X2848553Y-553031D02*
X2829506Y-581603D01*
X2829506Y-581603D02*
X2819982Y-619698D01*
X2819982Y-619698D02*
X2819982Y-695889D01*
X2819982Y-695889D02*
X2829506Y-714936D01*
X2829506Y-714936D02*
X2839029Y-724460D01*
X2839029Y-724460D02*
X2858077Y-733984D01*
X2858077Y-733984D02*
X2896172Y-733984D01*
X2896172Y-733984D02*
X2915220Y-724460D01*
X2915220Y-724460D02*
X2924744Y-714936D01*
X2924744Y-714936D02*
X2934267Y-695889D01*
X2934267Y-695889D02*
X2934267Y-648270D01*
X2934267Y-648270D02*
X2924744Y-629222D01*
X2924744Y-629222D02*
X2915220Y-619698D01*
X2915220Y-619698D02*
X2896172Y-610174D01*
X2896172Y-610174D02*
X2858077Y-610174D01*
X2858077Y-610174D02*
X2839029Y-619698D01*
X2839029Y-619698D02*
X2829506Y-629222D01*
X2829506Y-629222D02*
X2819982Y-648270D01*
X3058077Y-533984D02*
X3077125Y-533984D01*
X3077125Y-533984D02*
X3096172Y-543508D01*
X3096172Y-543508D02*
X3105696Y-553031D01*
X3105696Y-553031D02*
X3115220Y-572079D01*
X3115220Y-572079D02*
X3124744Y-610174D01*
X3124744Y-610174D02*
X3124744Y-657793D01*
X3124744Y-657793D02*
X3115220Y-695889D01*
X3115220Y-695889D02*
X3105696Y-714936D01*
X3105696Y-714936D02*
X3096172Y-724460D01*
X3096172Y-724460D02*
X3077125Y-733984D01*
X3077125Y-733984D02*
X3058077Y-733984D01*
X3058077Y-733984D02*
X3039029Y-724460D01*
X3039029Y-724460D02*
X3029506Y-714936D01*
X3029506Y-714936D02*
X3019982Y-695889D01*
X3019982Y-695889D02*
X3010458Y-657793D01*
X3010458Y-657793D02*
X3010458Y-610174D01*
X3010458Y-610174D02*
X3019982Y-572079D01*
X3019982Y-572079D02*
X3029506Y-553031D01*
X3029506Y-553031D02*
X3039029Y-543508D01*
X3039029Y-543508D02*
X3058077Y-533984D01*
X3200934Y-533984D02*
X3200934Y-572079D01*
X3277125Y-533984D02*
X3277125Y-572079D01*
X3572363Y-810174D02*
X3562839Y-800650D01*
X3562839Y-800650D02*
X3543791Y-772079D01*
X3543791Y-772079D02*
X3534268Y-753031D01*
X3534268Y-753031D02*
X3524744Y-724460D01*
X3524744Y-724460D02*
X3515220Y-676841D01*
X3515220Y-676841D02*
X3515220Y-638746D01*
X3515220Y-638746D02*
X3524744Y-591127D01*
X3524744Y-591127D02*
X3534268Y-562555D01*
X3534268Y-562555D02*
X3543791Y-543508D01*
X3543791Y-543508D02*
X3562839Y-514936D01*
X3562839Y-514936D02*
X3572363Y-505412D01*
X3734268Y-600650D02*
X3734268Y-733984D01*
X3686648Y-524460D02*
X3639029Y-667317D01*
X3639029Y-667317D02*
X3762839Y-667317D01*
X3991410Y-733984D02*
X3991410Y-533984D01*
X4077125Y-733984D02*
X4077125Y-629222D01*
X4077125Y-629222D02*
X4067601Y-610174D01*
X4067601Y-610174D02*
X4048553Y-600650D01*
X4048553Y-600650D02*
X4019982Y-600650D01*
X4019982Y-600650D02*
X4000934Y-610174D01*
X4000934Y-610174D02*
X3991410Y-619698D01*
X4200934Y-733984D02*
X4181887Y-724460D01*
X4181887Y-724460D02*
X4172363Y-714936D01*
X4172363Y-714936D02*
X4162839Y-695889D01*
X4162839Y-695889D02*
X4162839Y-638746D01*
X4162839Y-638746D02*
X4172363Y-619698D01*
X4172363Y-619698D02*
X4181887Y-610174D01*
X4181887Y-610174D02*
X4200934Y-600650D01*
X4200934Y-600650D02*
X4229506Y-600650D01*
X4229506Y-600650D02*
X4248553Y-610174D01*
X4248553Y-610174D02*
X4258077Y-619698D01*
X4258077Y-619698D02*
X4267601Y-638746D01*
X4267601Y-638746D02*
X4267601Y-695889D01*
X4267601Y-695889D02*
X4258077Y-714936D01*
X4258077Y-714936D02*
X4248553Y-724460D01*
X4248553Y-724460D02*
X4229506Y-733984D01*
X4229506Y-733984D02*
X4200934Y-733984D01*
X4381887Y-733984D02*
X4362839Y-724460D01*
X4362839Y-724460D02*
X4353315Y-705412D01*
X4353315Y-705412D02*
X4353315Y-533984D01*
X4534268Y-724460D02*
X4515220Y-733984D01*
X4515220Y-733984D02*
X4477125Y-733984D01*
X4477125Y-733984D02*
X4458077Y-724460D01*
X4458077Y-724460D02*
X4448553Y-705412D01*
X4448553Y-705412D02*
X4448553Y-629222D01*
X4448553Y-629222D02*
X4458077Y-610174D01*
X4458077Y-610174D02*
X4477125Y-600650D01*
X4477125Y-600650D02*
X4515220Y-600650D01*
X4515220Y-600650D02*
X4534268Y-610174D01*
X4534268Y-610174D02*
X4543792Y-629222D01*
X4543792Y-629222D02*
X4543792Y-648270D01*
X4543792Y-648270D02*
X4448553Y-667317D01*
X4619982Y-724460D02*
X4639030Y-733984D01*
X4639030Y-733984D02*
X4677125Y-733984D01*
X4677125Y-733984D02*
X4696173Y-724460D01*
X4696173Y-724460D02*
X4705696Y-705412D01*
X4705696Y-705412D02*
X4705696Y-695889D01*
X4705696Y-695889D02*
X4696173Y-676841D01*
X4696173Y-676841D02*
X4677125Y-667317D01*
X4677125Y-667317D02*
X4648553Y-667317D01*
X4648553Y-667317D02*
X4629506Y-657793D01*
X4629506Y-657793D02*
X4619982Y-638746D01*
X4619982Y-638746D02*
X4619982Y-629222D01*
X4619982Y-629222D02*
X4629506Y-610174D01*
X4629506Y-610174D02*
X4648553Y-600650D01*
X4648553Y-600650D02*
X4677125Y-600650D01*
X4677125Y-600650D02*
X4696173Y-610174D01*
X4772363Y-810174D02*
X4781887Y-800650D01*
X4781887Y-800650D02*
X4800934Y-772079D01*
X4800934Y-772079D02*
X4810458Y-753031D01*
X4810458Y-753031D02*
X4819982Y-724460D01*
X4819982Y-724460D02*
X4829506Y-676841D01*
X4829506Y-676841D02*
X4829506Y-638746D01*
X4829506Y-638746D02*
X4819982Y-591127D01*
X4819982Y-591127D02*
X4810458Y-562555D01*
X4810458Y-562555D02*
X4800934Y-543508D01*
X4800934Y-543508D02*
X4781887Y-514936D01*
X4781887Y-514936D02*
X4772363Y-505412D01*
X5134268Y-810174D02*
X5124744Y-800650D01*
X5124744Y-800650D02*
X5105696Y-772079D01*
X5105696Y-772079D02*
X5096173Y-753031D01*
X5096173Y-753031D02*
X5086649Y-724460D01*
X5086649Y-724460D02*
X5077125Y-676841D01*
X5077125Y-676841D02*
X5077125Y-638746D01*
X5077125Y-638746D02*
X5086649Y-591127D01*
X5086649Y-591127D02*
X5096173Y-562555D01*
X5096173Y-562555D02*
X5105696Y-543508D01*
X5105696Y-543508D02*
X5124744Y-514936D01*
X5124744Y-514936D02*
X5134268Y-505412D01*
X5210458Y-600650D02*
X5210458Y-733984D01*
X5210458Y-619698D02*
X5219982Y-610174D01*
X5219982Y-610174D02*
X5239030Y-600650D01*
X5239030Y-600650D02*
X5267601Y-600650D01*
X5267601Y-600650D02*
X5286649Y-610174D01*
X5286649Y-610174D02*
X5296173Y-629222D01*
X5296173Y-629222D02*
X5296173Y-733984D01*
X5419982Y-733984D02*
X5400934Y-724460D01*
X5400934Y-724460D02*
X5391411Y-714936D01*
X5391411Y-714936D02*
X5381887Y-695889D01*
X5381887Y-695889D02*
X5381887Y-638746D01*
X5381887Y-638746D02*
X5391411Y-619698D01*
X5391411Y-619698D02*
X5400934Y-610174D01*
X5400934Y-610174D02*
X5419982Y-600650D01*
X5419982Y-600650D02*
X5448554Y-600650D01*
X5448554Y-600650D02*
X5467601Y-610174D01*
X5467601Y-610174D02*
X5477125Y-619698D01*
X5477125Y-619698D02*
X5486649Y-638746D01*
X5486649Y-638746D02*
X5486649Y-695889D01*
X5486649Y-695889D02*
X5477125Y-714936D01*
X5477125Y-714936D02*
X5467601Y-724460D01*
X5467601Y-724460D02*
X5448554Y-733984D01*
X5448554Y-733984D02*
X5419982Y-733984D01*
X5543792Y-600650D02*
X5619982Y-600650D01*
X5572363Y-533984D02*
X5572363Y-705412D01*
X5572363Y-705412D02*
X5581887Y-724460D01*
X5581887Y-724460D02*
X5600934Y-733984D01*
X5600934Y-733984D02*
X5619982Y-733984D01*
X5839030Y-600650D02*
X5839030Y-800650D01*
X5839030Y-610174D02*
X5858077Y-600650D01*
X5858077Y-600650D02*
X5896173Y-600650D01*
X5896173Y-600650D02*
X5915220Y-610174D01*
X5915220Y-610174D02*
X5924744Y-619698D01*
X5924744Y-619698D02*
X5934268Y-638746D01*
X5934268Y-638746D02*
X5934268Y-695889D01*
X5934268Y-695889D02*
X5924744Y-714936D01*
X5924744Y-714936D02*
X5915220Y-724460D01*
X5915220Y-724460D02*
X5896173Y-733984D01*
X5896173Y-733984D02*
X5858077Y-733984D01*
X5858077Y-733984D02*
X5839030Y-724460D01*
X6048553Y-733984D02*
X6029506Y-724460D01*
X6029506Y-724460D02*
X6019982Y-705412D01*
X6019982Y-705412D02*
X6019982Y-533984D01*
X6210458Y-733984D02*
X6210458Y-629222D01*
X6210458Y-629222D02*
X6200934Y-610174D01*
X6200934Y-610174D02*
X6181887Y-600650D01*
X6181887Y-600650D02*
X6143792Y-600650D01*
X6143792Y-600650D02*
X6124744Y-610174D01*
X6210458Y-724460D02*
X6191411Y-733984D01*
X6191411Y-733984D02*
X6143792Y-733984D01*
X6143792Y-733984D02*
X6124744Y-724460D01*
X6124744Y-724460D02*
X6115220Y-705412D01*
X6115220Y-705412D02*
X6115220Y-686365D01*
X6115220Y-686365D02*
X6124744Y-667317D01*
X6124744Y-667317D02*
X6143792Y-657793D01*
X6143792Y-657793D02*
X6191411Y-657793D01*
X6191411Y-657793D02*
X6210458Y-648270D01*
X6277125Y-600650D02*
X6353315Y-600650D01*
X6305696Y-533984D02*
X6305696Y-705412D01*
X6305696Y-705412D02*
X6315220Y-724460D01*
X6315220Y-724460D02*
X6334268Y-733984D01*
X6334268Y-733984D02*
X6353315Y-733984D01*
X6496173Y-724460D02*
X6477125Y-733984D01*
X6477125Y-733984D02*
X6439030Y-733984D01*
X6439030Y-733984D02*
X6419982Y-724460D01*
X6419982Y-724460D02*
X6410458Y-705412D01*
X6410458Y-705412D02*
X6410458Y-629222D01*
X6410458Y-629222D02*
X6419982Y-610174D01*
X6419982Y-610174D02*
X6439030Y-600650D01*
X6439030Y-600650D02*
X6477125Y-600650D01*
X6477125Y-600650D02*
X6496173Y-610174D01*
X6496173Y-610174D02*
X6505696Y-629222D01*
X6505696Y-629222D02*
X6505696Y-648270D01*
X6505696Y-648270D02*
X6410458Y-667317D01*
X6677125Y-733984D02*
X6677125Y-533984D01*
X6677125Y-724460D02*
X6658077Y-733984D01*
X6658077Y-733984D02*
X6619982Y-733984D01*
X6619982Y-733984D02*
X6600934Y-724460D01*
X6600934Y-724460D02*
X6591411Y-714936D01*
X6591411Y-714936D02*
X6581887Y-695889D01*
X6581887Y-695889D02*
X6581887Y-638746D01*
X6581887Y-638746D02*
X6591411Y-619698D01*
X6591411Y-619698D02*
X6600934Y-610174D01*
X6600934Y-610174D02*
X6619982Y-600650D01*
X6619982Y-600650D02*
X6658077Y-600650D01*
X6658077Y-600650D02*
X6677125Y-610174D01*
X6753315Y-810174D02*
X6762839Y-800650D01*
X6762839Y-800650D02*
X6781887Y-772079D01*
X6781887Y-772079D02*
X6791411Y-753031D01*
X6791411Y-753031D02*
X6800934Y-724460D01*
X6800934Y-724460D02*
X6810458Y-676841D01*
X6810458Y-676841D02*
X6810458Y-638746D01*
X6810458Y-638746D02*
X6800934Y-591127D01*
X6800934Y-591127D02*
X6791411Y-562555D01*
X6791411Y-562555D02*
X6781887Y-543508D01*
X6781887Y-543508D02*
X6762839Y-514936D01*
X6762839Y-514936D02*
X6753315Y-505412D01*
M02*
