M48
; DRILL file {KiCad 8.0.1} date 2024-09-12T20:33:39-0300
; FORMAT={-:-/ absolute / inch / decimal}
; #@! TF.CreationDate,2024-09-12T20:33:39-03:00
; #@! TF.GenerationSoftware,Kicad,Pcbnew,8.0.1
; #@! TF.FileFunction,Plated,1,2,PTH
FMAT,2
INCH
; #@! TA.AperFunction,Plated,PTH,ComponentDrill
T1C0.0300
; #@! TA.AperFunction,Plated,PTH,ComponentDrill
T2C0.0315
; #@! TA.AperFunction,Plated,PTH,ComponentDrill
T3C0.0394
; #@! TA.AperFunction,Plated,PTH,ComponentDrill
T4C0.0512
; #@! TA.AperFunction,Plated,PTH,ComponentDrill
T5C0.0630
%
G90
G05
T1
X1.6128Y0.9165
X1.6128Y0.8165
X1.6128Y0.7165
X1.6128Y0.6165
X1.6128Y0.5165
X2.2128Y0.8165
X2.2128Y0.7165
X2.2128Y0.6165
T2
X0.1535Y1.4108
X0.1545Y0.8608
X0.252Y1.4108
X0.253Y0.8608
X0.3256Y0.5504
X0.3295Y0.7108
X0.7256Y0.5504
X0.7295Y0.7108
X0.8295Y1.3858
X0.8295Y0.9858
X0.8713Y0.8614
X0.8713Y0.7614
X0.8713Y0.6614
X0.8713Y0.5614
X0.9295Y0.4258
X0.9495Y0.2858
X0.9785Y1.4108
X1.077Y1.4108
X1.2071Y1.4108
X1.2713Y0.8614
X1.2713Y0.7614
X1.2713Y0.6614
X1.2713Y0.5614
X1.3055Y1.4108
X1.3295Y0.4258
X1.3495Y0.2858
X1.4295Y1.2608
X1.4295Y0.8608
X1.9266Y1.002
X1.9266Y0.602
T3
X0.1545Y0.6358
X0.1545Y0.5358
X0.1545Y0.4358
X0.9823Y1.6268
X1.0823Y1.6268
X1.1823Y1.6268
X1.2823Y1.6268
X2.0671Y0.2189
X2.1671Y0.2189
X2.2671Y0.2189
T4
X0.56Y0.2266
X0.7569Y0.2266
X1.6191Y0.2134
X1.8159Y0.2134
T5
X0.6045Y1.6858
X0.6045Y1.0858
X1.7045Y1.6858
X1.7045Y1.0858
M30
