%TF.GenerationSoftware,KiCad,Pcbnew,8.0.1*%
%TF.CreationDate,2024-08-21T14:38:24-03:00*%
%TF.ProjectId,monitoreo_solar,6d6f6e69-746f-4726-956f-5f736f6c6172,rev?*%
%TF.SameCoordinates,Original*%
%TF.FileFunction,Soldermask,Bot*%
%TF.FilePolarity,Negative*%
%FSLAX46Y46*%
G04 Gerber Fmt 4.6, Leading zero omitted, Abs format (unit mm)*
G04 Created by KiCad (PCBNEW 8.0.1) date 2024-08-21 14:38:24*
%MOMM*%
%LPD*%
G01*
G04 APERTURE LIST*
G04 Aperture macros list*
%AMRoundRect*
0 Rectangle with rounded corners*
0 $1 Rounding radius*
0 $2 $3 $4 $5 $6 $7 $8 $9 X,Y pos of 4 corners*
0 Add a 4 corners polygon primitive as box body*
4,1,4,$2,$3,$4,$5,$6,$7,$8,$9,$2,$3,0*
0 Add four circle primitives for the rounded corners*
1,1,$1+$1,$2,$3*
1,1,$1+$1,$4,$5*
1,1,$1+$1,$6,$7*
1,1,$1+$1,$8,$9*
0 Add four rect primitives between the rounded corners*
20,1,$1+$1,$2,$3,$4,$5,0*
20,1,$1+$1,$4,$5,$6,$7,0*
20,1,$1+$1,$6,$7,$8,$9,0*
20,1,$1+$1,$8,$9,$2,$3,0*%
G04 Aperture macros list end*
%ADD10RoundRect,0.375000X0.375000X-0.625000X0.375000X0.625000X-0.375000X0.625000X-0.375000X-0.625000X0*%
%ADD11RoundRect,0.500000X1.400000X-0.500000X1.400000X0.500000X-1.400000X0.500000X-1.400000X-0.500000X0*%
%ADD12R,1.498600X0.558800*%
%ADD13R,3.200000X3.200000*%
%ADD14O,3.200000X3.200000*%
%ADD15R,1.600000X1.600000*%
%ADD16C,1.600000*%
%ADD17R,1.700000X1.700000*%
%ADD18O,1.700000X1.700000*%
%ADD19O,1.600000X1.600000*%
%ADD20R,2.600000X2.600000*%
%ADD21C,2.600000*%
%ADD22C,3.200000*%
%ADD23R,2.400000X1.600000*%
%ADD24O,2.400000X1.600000*%
G04 APERTURE END LIST*
D10*
%TO.C,U2*%
X42070000Y-97330000D03*
D11*
X44370000Y-91030000D03*
D10*
X44370000Y-97330000D03*
X46670000Y-97330000D03*
%TD*%
D12*
%TO.C,U1*%
X63705100Y-75095000D03*
X63705100Y-76365000D03*
X63705100Y-77635000D03*
X63705100Y-78905000D03*
X58294900Y-78905000D03*
X58294900Y-77635000D03*
X58294900Y-76365000D03*
X58294900Y-75095000D03*
%TD*%
D13*
%TO.C,D2*%
X61520000Y-59175000D03*
D14*
X46280000Y-59175000D03*
%TD*%
D15*
%TO.C,C1*%
X40575000Y-64869887D03*
D16*
X40575000Y-67369887D03*
%TD*%
D17*
%TO.C,J4*%
X41000000Y-60400000D03*
D18*
X38460000Y-60400000D03*
X35920000Y-60400000D03*
X33380000Y-60400000D03*
%TD*%
D16*
%TO.C,R4*%
X41280000Y-71200000D03*
D19*
X31120000Y-71200000D03*
%TD*%
D20*
%TO.C,J3*%
X67305000Y-89000000D03*
D21*
X67305000Y-84000000D03*
%TD*%
D15*
%TO.C,C5*%
X38225000Y-92500000D03*
D16*
X35725000Y-92500000D03*
%TD*%
D17*
%TO.C,J5*%
X68400000Y-69060000D03*
D18*
X68400000Y-71600000D03*
X68400000Y-74140000D03*
%TD*%
D22*
%TO.C,H2*%
X69000000Y-97500000D03*
%TD*%
D16*
%TO.C,R11*%
X45560000Y-87800000D03*
D19*
X35400000Y-87800000D03*
%TD*%
D15*
%TO.C,C4*%
X55880113Y-96150000D03*
D16*
X53380113Y-96150000D03*
%TD*%
%TO.C,R2*%
X38000000Y-74400000D03*
D19*
X38000000Y-84560000D03*
%TD*%
D22*
%TO.C,H3*%
X25000000Y-97500000D03*
%TD*%
D17*
%TO.C,J2*%
X27200000Y-66535000D03*
D18*
X27200000Y-69075000D03*
X27200000Y-71615000D03*
%TD*%
D20*
%TO.C,J1*%
X27500000Y-84500000D03*
D21*
X27500000Y-89500000D03*
%TD*%
D15*
%TO.C,C2*%
X35200000Y-66000000D03*
D16*
X32700000Y-66000000D03*
%TD*%
D23*
%TO.C,U4*%
X41915000Y-75200000D03*
D24*
X41915000Y-77740000D03*
X41915000Y-80280000D03*
X41915000Y-82820000D03*
X52075000Y-82820000D03*
X52075000Y-80280000D03*
X52075000Y-77740000D03*
X52075000Y-75200000D03*
%TD*%
D16*
%TO.C,R9*%
X59480000Y-86800000D03*
D19*
X49320000Y-86800000D03*
%TD*%
D22*
%TO.C,H4*%
X25000000Y-58500000D03*
%TD*%
D13*
%TO.C,D1*%
X61545000Y-65075000D03*
D14*
X46305000Y-65075000D03*
%TD*%
D16*
%TO.C,R1*%
X24915000Y-76550000D03*
D19*
X35075000Y-76550000D03*
%TD*%
D16*
%TO.C,R3*%
X59480000Y-71200000D03*
D19*
X49320000Y-71200000D03*
%TD*%
D22*
%TO.C,H1*%
X69000000Y-58500000D03*
%TD*%
D16*
%TO.C,R10*%
X59585000Y-91150000D03*
D19*
X49425000Y-91150000D03*
%TD*%
M02*
