%TF.GenerationSoftware,KiCad,Pcbnew,8.0.1*%
%TF.CreationDate,2024-08-21T14:38:24-03:00*%
%TF.ProjectId,monitoreo_solar,6d6f6e69-746f-4726-956f-5f736f6c6172,rev?*%
%TF.SameCoordinates,Original*%
%TF.FileFunction,Copper,L2,Bot*%
%TF.FilePolarity,Positive*%
%FSLAX46Y46*%
G04 Gerber Fmt 4.6, Leading zero omitted, Abs format (unit mm)*
G04 Created by KiCad (PCBNEW 8.0.1) date 2024-08-21 14:38:24*
%MOMM*%
%LPD*%
G01*
G04 APERTURE LIST*
G04 Aperture macros list*
%AMRoundRect*
0 Rectangle with rounded corners*
0 $1 Rounding radius*
0 $2 $3 $4 $5 $6 $7 $8 $9 X,Y pos of 4 corners*
0 Add a 4 corners polygon primitive as box body*
4,1,4,$2,$3,$4,$5,$6,$7,$8,$9,$2,$3,0*
0 Add four circle primitives for the rounded corners*
1,1,$1+$1,$2,$3*
1,1,$1+$1,$4,$5*
1,1,$1+$1,$6,$7*
1,1,$1+$1,$8,$9*
0 Add four rect primitives between the rounded corners*
20,1,$1+$1,$2,$3,$4,$5,0*
20,1,$1+$1,$4,$5,$6,$7,0*
20,1,$1+$1,$6,$7,$8,$9,0*
20,1,$1+$1,$8,$9,$2,$3,0*%
G04 Aperture macros list end*
%ADD10C,0.300000*%
%TA.AperFunction,NonConductor*%
%ADD11C,0.300000*%
%TD*%
%TA.AperFunction,NonConductor*%
%ADD12C,0.200000*%
%TD*%
%TA.AperFunction,SMDPad,CuDef*%
%ADD13RoundRect,0.375000X0.375000X-0.625000X0.375000X0.625000X-0.375000X0.625000X-0.375000X-0.625000X0*%
%TD*%
%TA.AperFunction,SMDPad,CuDef*%
%ADD14RoundRect,0.500000X1.400000X-0.500000X1.400000X0.500000X-1.400000X0.500000X-1.400000X-0.500000X0*%
%TD*%
%TA.AperFunction,SMDPad,CuDef*%
%ADD15R,1.498600X0.558800*%
%TD*%
%TA.AperFunction,ComponentPad*%
%ADD16R,3.200000X3.200000*%
%TD*%
%TA.AperFunction,ComponentPad*%
%ADD17O,3.200000X3.200000*%
%TD*%
%TA.AperFunction,ComponentPad*%
%ADD18R,1.600000X1.600000*%
%TD*%
%TA.AperFunction,ComponentPad*%
%ADD19C,1.600000*%
%TD*%
%TA.AperFunction,ComponentPad*%
%ADD20R,1.700000X1.700000*%
%TD*%
%TA.AperFunction,ComponentPad*%
%ADD21O,1.700000X1.700000*%
%TD*%
%TA.AperFunction,ComponentPad*%
%ADD22O,1.600000X1.600000*%
%TD*%
%TA.AperFunction,ComponentPad*%
%ADD23R,2.600000X2.600000*%
%TD*%
%TA.AperFunction,ComponentPad*%
%ADD24C,2.600000*%
%TD*%
%TA.AperFunction,ComponentPad*%
%ADD25R,2.400000X1.600000*%
%TD*%
%TA.AperFunction,ComponentPad*%
%ADD26O,2.400000X1.600000*%
%TD*%
%TA.AperFunction,Conductor*%
%ADD27C,1.270000*%
%TD*%
%TA.AperFunction,Conductor*%
%ADD28C,1.000000*%
%TD*%
G04 APERTURE END LIST*
D10*
D11*
X80353328Y-84214284D02*
X81353328Y-84214284D01*
X79781900Y-84571426D02*
X80853328Y-84928569D01*
X80853328Y-84928569D02*
X80853328Y-83999998D01*
X79853328Y-82714284D02*
X79853328Y-83428570D01*
X79853328Y-83428570D02*
X80567614Y-83499998D01*
X80567614Y-83499998D02*
X80496185Y-83428570D01*
X80496185Y-83428570D02*
X80424757Y-83285713D01*
X80424757Y-83285713D02*
X80424757Y-82928570D01*
X80424757Y-82928570D02*
X80496185Y-82785713D01*
X80496185Y-82785713D02*
X80567614Y-82714284D01*
X80567614Y-82714284D02*
X80710471Y-82642855D01*
X80710471Y-82642855D02*
X81067614Y-82642855D01*
X81067614Y-82642855D02*
X81210471Y-82714284D01*
X81210471Y-82714284D02*
X81281900Y-82785713D01*
X81281900Y-82785713D02*
X81353328Y-82928570D01*
X81353328Y-82928570D02*
X81353328Y-83285713D01*
X81353328Y-83285713D02*
X81281900Y-83428570D01*
X81281900Y-83428570D02*
X81210471Y-83499998D01*
X81281900Y-81928570D02*
X81353328Y-81928570D01*
X81353328Y-81928570D02*
X81496185Y-81999999D01*
X81496185Y-81999999D02*
X81567614Y-82071427D01*
X79853328Y-80999998D02*
X79853328Y-80857141D01*
X79853328Y-80857141D02*
X79924757Y-80714284D01*
X79924757Y-80714284D02*
X79996185Y-80642856D01*
X79996185Y-80642856D02*
X80139042Y-80571427D01*
X80139042Y-80571427D02*
X80424757Y-80499998D01*
X80424757Y-80499998D02*
X80781900Y-80499998D01*
X80781900Y-80499998D02*
X81067614Y-80571427D01*
X81067614Y-80571427D02*
X81210471Y-80642856D01*
X81210471Y-80642856D02*
X81281900Y-80714284D01*
X81281900Y-80714284D02*
X81353328Y-80857141D01*
X81353328Y-80857141D02*
X81353328Y-80999998D01*
X81353328Y-80999998D02*
X81281900Y-81142856D01*
X81281900Y-81142856D02*
X81210471Y-81214284D01*
X81210471Y-81214284D02*
X81067614Y-81285713D01*
X81067614Y-81285713D02*
X80781900Y-81357141D01*
X80781900Y-81357141D02*
X80424757Y-81357141D01*
X80424757Y-81357141D02*
X80139042Y-81285713D01*
X80139042Y-81285713D02*
X79996185Y-81214284D01*
X79996185Y-81214284D02*
X79924757Y-81142856D01*
X79924757Y-81142856D02*
X79853328Y-80999998D01*
X79853328Y-79571427D02*
X79853328Y-79428570D01*
X79853328Y-79428570D02*
X79924757Y-79285713D01*
X79924757Y-79285713D02*
X79996185Y-79214285D01*
X79996185Y-79214285D02*
X80139042Y-79142856D01*
X80139042Y-79142856D02*
X80424757Y-79071427D01*
X80424757Y-79071427D02*
X80781900Y-79071427D01*
X80781900Y-79071427D02*
X81067614Y-79142856D01*
X81067614Y-79142856D02*
X81210471Y-79214285D01*
X81210471Y-79214285D02*
X81281900Y-79285713D01*
X81281900Y-79285713D02*
X81353328Y-79428570D01*
X81353328Y-79428570D02*
X81353328Y-79571427D01*
X81353328Y-79571427D02*
X81281900Y-79714285D01*
X81281900Y-79714285D02*
X81210471Y-79785713D01*
X81210471Y-79785713D02*
X81067614Y-79857142D01*
X81067614Y-79857142D02*
X80781900Y-79928570D01*
X80781900Y-79928570D02*
X80424757Y-79928570D01*
X80424757Y-79928570D02*
X80139042Y-79857142D01*
X80139042Y-79857142D02*
X79996185Y-79785713D01*
X79996185Y-79785713D02*
X79924757Y-79714285D01*
X79924757Y-79714285D02*
X79853328Y-79571427D01*
X79853328Y-78142856D02*
X79853328Y-77999999D01*
X79853328Y-77999999D02*
X79924757Y-77857142D01*
X79924757Y-77857142D02*
X79996185Y-77785714D01*
X79996185Y-77785714D02*
X80139042Y-77714285D01*
X80139042Y-77714285D02*
X80424757Y-77642856D01*
X80424757Y-77642856D02*
X80781900Y-77642856D01*
X80781900Y-77642856D02*
X81067614Y-77714285D01*
X81067614Y-77714285D02*
X81210471Y-77785714D01*
X81210471Y-77785714D02*
X81281900Y-77857142D01*
X81281900Y-77857142D02*
X81353328Y-77999999D01*
X81353328Y-77999999D02*
X81353328Y-78142856D01*
X81353328Y-78142856D02*
X81281900Y-78285714D01*
X81281900Y-78285714D02*
X81210471Y-78357142D01*
X81210471Y-78357142D02*
X81067614Y-78428571D01*
X81067614Y-78428571D02*
X80781900Y-78499999D01*
X80781900Y-78499999D02*
X80424757Y-78499999D01*
X80424757Y-78499999D02*
X80139042Y-78428571D01*
X80139042Y-78428571D02*
X79996185Y-78357142D01*
X79996185Y-78357142D02*
X79924757Y-78285714D01*
X79924757Y-78285714D02*
X79853328Y-78142856D01*
X79853328Y-76714285D02*
X79853328Y-76571428D01*
X79853328Y-76571428D02*
X79924757Y-76428571D01*
X79924757Y-76428571D02*
X79996185Y-76357143D01*
X79996185Y-76357143D02*
X80139042Y-76285714D01*
X80139042Y-76285714D02*
X80424757Y-76214285D01*
X80424757Y-76214285D02*
X80781900Y-76214285D01*
X80781900Y-76214285D02*
X81067614Y-76285714D01*
X81067614Y-76285714D02*
X81210471Y-76357143D01*
X81210471Y-76357143D02*
X81281900Y-76428571D01*
X81281900Y-76428571D02*
X81353328Y-76571428D01*
X81353328Y-76571428D02*
X81353328Y-76714285D01*
X81353328Y-76714285D02*
X81281900Y-76857143D01*
X81281900Y-76857143D02*
X81210471Y-76928571D01*
X81210471Y-76928571D02*
X81067614Y-77000000D01*
X81067614Y-77000000D02*
X80781900Y-77071428D01*
X80781900Y-77071428D02*
X80424757Y-77071428D01*
X80424757Y-77071428D02*
X80139042Y-77000000D01*
X80139042Y-77000000D02*
X79996185Y-76928571D01*
X79996185Y-76928571D02*
X79924757Y-76857143D01*
X79924757Y-76857143D02*
X79853328Y-76714285D01*
X81353328Y-74428572D02*
X80353328Y-74428572D01*
X80496185Y-74428572D02*
X80424757Y-74357143D01*
X80424757Y-74357143D02*
X80353328Y-74214286D01*
X80353328Y-74214286D02*
X80353328Y-74000000D01*
X80353328Y-74000000D02*
X80424757Y-73857143D01*
X80424757Y-73857143D02*
X80567614Y-73785715D01*
X80567614Y-73785715D02*
X81353328Y-73785715D01*
X80567614Y-73785715D02*
X80424757Y-73714286D01*
X80424757Y-73714286D02*
X80353328Y-73571429D01*
X80353328Y-73571429D02*
X80353328Y-73357143D01*
X80353328Y-73357143D02*
X80424757Y-73214286D01*
X80424757Y-73214286D02*
X80567614Y-73142857D01*
X80567614Y-73142857D02*
X81353328Y-73142857D01*
X81353328Y-72428572D02*
X80353328Y-72428572D01*
X80496185Y-72428572D02*
X80424757Y-72357143D01*
X80424757Y-72357143D02*
X80353328Y-72214286D01*
X80353328Y-72214286D02*
X80353328Y-72000000D01*
X80353328Y-72000000D02*
X80424757Y-71857143D01*
X80424757Y-71857143D02*
X80567614Y-71785715D01*
X80567614Y-71785715D02*
X81353328Y-71785715D01*
X80567614Y-71785715D02*
X80424757Y-71714286D01*
X80424757Y-71714286D02*
X80353328Y-71571429D01*
X80353328Y-71571429D02*
X80353328Y-71357143D01*
X80353328Y-71357143D02*
X80424757Y-71214286D01*
X80424757Y-71214286D02*
X80567614Y-71142857D01*
X80567614Y-71142857D02*
X81353328Y-71142857D01*
D12*
X72500000Y-100500000D02*
X83061420Y-100500000D01*
X72500000Y-55500000D02*
X83061420Y-55500000D01*
X82475000Y-100500000D02*
X82475000Y-55500000D01*
X82475000Y-100500000D02*
X82475000Y-55500000D01*
X82475000Y-100500000D02*
X81888579Y-99373496D01*
X82475000Y-100500000D02*
X83061421Y-99373496D01*
X82475000Y-55500000D02*
X83061421Y-56626504D01*
X82475000Y-55500000D02*
X81888579Y-56626504D01*
D10*
D11*
X40857144Y-47603328D02*
X40142858Y-47603328D01*
X40142858Y-47603328D02*
X40071430Y-48317614D01*
X40071430Y-48317614D02*
X40142858Y-48246185D01*
X40142858Y-48246185D02*
X40285716Y-48174757D01*
X40285716Y-48174757D02*
X40642858Y-48174757D01*
X40642858Y-48174757D02*
X40785716Y-48246185D01*
X40785716Y-48246185D02*
X40857144Y-48317614D01*
X40857144Y-48317614D02*
X40928573Y-48460471D01*
X40928573Y-48460471D02*
X40928573Y-48817614D01*
X40928573Y-48817614D02*
X40857144Y-48960471D01*
X40857144Y-48960471D02*
X40785716Y-49031900D01*
X40785716Y-49031900D02*
X40642858Y-49103328D01*
X40642858Y-49103328D02*
X40285716Y-49103328D01*
X40285716Y-49103328D02*
X40142858Y-49031900D01*
X40142858Y-49031900D02*
X40071430Y-48960471D01*
X41857144Y-47603328D02*
X42000001Y-47603328D01*
X42000001Y-47603328D02*
X42142858Y-47674757D01*
X42142858Y-47674757D02*
X42214287Y-47746185D01*
X42214287Y-47746185D02*
X42285715Y-47889042D01*
X42285715Y-47889042D02*
X42357144Y-48174757D01*
X42357144Y-48174757D02*
X42357144Y-48531900D01*
X42357144Y-48531900D02*
X42285715Y-48817614D01*
X42285715Y-48817614D02*
X42214287Y-48960471D01*
X42214287Y-48960471D02*
X42142858Y-49031900D01*
X42142858Y-49031900D02*
X42000001Y-49103328D01*
X42000001Y-49103328D02*
X41857144Y-49103328D01*
X41857144Y-49103328D02*
X41714287Y-49031900D01*
X41714287Y-49031900D02*
X41642858Y-48960471D01*
X41642858Y-48960471D02*
X41571429Y-48817614D01*
X41571429Y-48817614D02*
X41500001Y-48531900D01*
X41500001Y-48531900D02*
X41500001Y-48174757D01*
X41500001Y-48174757D02*
X41571429Y-47889042D01*
X41571429Y-47889042D02*
X41642858Y-47746185D01*
X41642858Y-47746185D02*
X41714287Y-47674757D01*
X41714287Y-47674757D02*
X41857144Y-47603328D01*
X43071429Y-49031900D02*
X43071429Y-49103328D01*
X43071429Y-49103328D02*
X43000000Y-49246185D01*
X43000000Y-49246185D02*
X42928572Y-49317614D01*
X44000001Y-47603328D02*
X44142858Y-47603328D01*
X44142858Y-47603328D02*
X44285715Y-47674757D01*
X44285715Y-47674757D02*
X44357144Y-47746185D01*
X44357144Y-47746185D02*
X44428572Y-47889042D01*
X44428572Y-47889042D02*
X44500001Y-48174757D01*
X44500001Y-48174757D02*
X44500001Y-48531900D01*
X44500001Y-48531900D02*
X44428572Y-48817614D01*
X44428572Y-48817614D02*
X44357144Y-48960471D01*
X44357144Y-48960471D02*
X44285715Y-49031900D01*
X44285715Y-49031900D02*
X44142858Y-49103328D01*
X44142858Y-49103328D02*
X44000001Y-49103328D01*
X44000001Y-49103328D02*
X43857144Y-49031900D01*
X43857144Y-49031900D02*
X43785715Y-48960471D01*
X43785715Y-48960471D02*
X43714286Y-48817614D01*
X43714286Y-48817614D02*
X43642858Y-48531900D01*
X43642858Y-48531900D02*
X43642858Y-48174757D01*
X43642858Y-48174757D02*
X43714286Y-47889042D01*
X43714286Y-47889042D02*
X43785715Y-47746185D01*
X43785715Y-47746185D02*
X43857144Y-47674757D01*
X43857144Y-47674757D02*
X44000001Y-47603328D01*
X45428572Y-47603328D02*
X45571429Y-47603328D01*
X45571429Y-47603328D02*
X45714286Y-47674757D01*
X45714286Y-47674757D02*
X45785715Y-47746185D01*
X45785715Y-47746185D02*
X45857143Y-47889042D01*
X45857143Y-47889042D02*
X45928572Y-48174757D01*
X45928572Y-48174757D02*
X45928572Y-48531900D01*
X45928572Y-48531900D02*
X45857143Y-48817614D01*
X45857143Y-48817614D02*
X45785715Y-48960471D01*
X45785715Y-48960471D02*
X45714286Y-49031900D01*
X45714286Y-49031900D02*
X45571429Y-49103328D01*
X45571429Y-49103328D02*
X45428572Y-49103328D01*
X45428572Y-49103328D02*
X45285715Y-49031900D01*
X45285715Y-49031900D02*
X45214286Y-48960471D01*
X45214286Y-48960471D02*
X45142857Y-48817614D01*
X45142857Y-48817614D02*
X45071429Y-48531900D01*
X45071429Y-48531900D02*
X45071429Y-48174757D01*
X45071429Y-48174757D02*
X45142857Y-47889042D01*
X45142857Y-47889042D02*
X45214286Y-47746185D01*
X45214286Y-47746185D02*
X45285715Y-47674757D01*
X45285715Y-47674757D02*
X45428572Y-47603328D01*
X46857143Y-47603328D02*
X47000000Y-47603328D01*
X47000000Y-47603328D02*
X47142857Y-47674757D01*
X47142857Y-47674757D02*
X47214286Y-47746185D01*
X47214286Y-47746185D02*
X47285714Y-47889042D01*
X47285714Y-47889042D02*
X47357143Y-48174757D01*
X47357143Y-48174757D02*
X47357143Y-48531900D01*
X47357143Y-48531900D02*
X47285714Y-48817614D01*
X47285714Y-48817614D02*
X47214286Y-48960471D01*
X47214286Y-48960471D02*
X47142857Y-49031900D01*
X47142857Y-49031900D02*
X47000000Y-49103328D01*
X47000000Y-49103328D02*
X46857143Y-49103328D01*
X46857143Y-49103328D02*
X46714286Y-49031900D01*
X46714286Y-49031900D02*
X46642857Y-48960471D01*
X46642857Y-48960471D02*
X46571428Y-48817614D01*
X46571428Y-48817614D02*
X46500000Y-48531900D01*
X46500000Y-48531900D02*
X46500000Y-48174757D01*
X46500000Y-48174757D02*
X46571428Y-47889042D01*
X46571428Y-47889042D02*
X46642857Y-47746185D01*
X46642857Y-47746185D02*
X46714286Y-47674757D01*
X46714286Y-47674757D02*
X46857143Y-47603328D01*
X48285714Y-47603328D02*
X48428571Y-47603328D01*
X48428571Y-47603328D02*
X48571428Y-47674757D01*
X48571428Y-47674757D02*
X48642857Y-47746185D01*
X48642857Y-47746185D02*
X48714285Y-47889042D01*
X48714285Y-47889042D02*
X48785714Y-48174757D01*
X48785714Y-48174757D02*
X48785714Y-48531900D01*
X48785714Y-48531900D02*
X48714285Y-48817614D01*
X48714285Y-48817614D02*
X48642857Y-48960471D01*
X48642857Y-48960471D02*
X48571428Y-49031900D01*
X48571428Y-49031900D02*
X48428571Y-49103328D01*
X48428571Y-49103328D02*
X48285714Y-49103328D01*
X48285714Y-49103328D02*
X48142857Y-49031900D01*
X48142857Y-49031900D02*
X48071428Y-48960471D01*
X48071428Y-48960471D02*
X47999999Y-48817614D01*
X47999999Y-48817614D02*
X47928571Y-48531900D01*
X47928571Y-48531900D02*
X47928571Y-48174757D01*
X47928571Y-48174757D02*
X47999999Y-47889042D01*
X47999999Y-47889042D02*
X48071428Y-47746185D01*
X48071428Y-47746185D02*
X48142857Y-47674757D01*
X48142857Y-47674757D02*
X48285714Y-47603328D01*
X50571427Y-49103328D02*
X50571427Y-48103328D01*
X50571427Y-48246185D02*
X50642856Y-48174757D01*
X50642856Y-48174757D02*
X50785713Y-48103328D01*
X50785713Y-48103328D02*
X50999999Y-48103328D01*
X50999999Y-48103328D02*
X51142856Y-48174757D01*
X51142856Y-48174757D02*
X51214285Y-48317614D01*
X51214285Y-48317614D02*
X51214285Y-49103328D01*
X51214285Y-48317614D02*
X51285713Y-48174757D01*
X51285713Y-48174757D02*
X51428570Y-48103328D01*
X51428570Y-48103328D02*
X51642856Y-48103328D01*
X51642856Y-48103328D02*
X51785713Y-48174757D01*
X51785713Y-48174757D02*
X51857142Y-48317614D01*
X51857142Y-48317614D02*
X51857142Y-49103328D01*
X52571427Y-49103328D02*
X52571427Y-48103328D01*
X52571427Y-48246185D02*
X52642856Y-48174757D01*
X52642856Y-48174757D02*
X52785713Y-48103328D01*
X52785713Y-48103328D02*
X52999999Y-48103328D01*
X52999999Y-48103328D02*
X53142856Y-48174757D01*
X53142856Y-48174757D02*
X53214285Y-48317614D01*
X53214285Y-48317614D02*
X53214285Y-49103328D01*
X53214285Y-48317614D02*
X53285713Y-48174757D01*
X53285713Y-48174757D02*
X53428570Y-48103328D01*
X53428570Y-48103328D02*
X53642856Y-48103328D01*
X53642856Y-48103328D02*
X53785713Y-48174757D01*
X53785713Y-48174757D02*
X53857142Y-48317614D01*
X53857142Y-48317614D02*
X53857142Y-49103328D01*
D12*
X22000000Y-55000000D02*
X22000000Y-49638580D01*
X72000000Y-55000000D02*
X72000000Y-49638580D01*
X22000000Y-50225000D02*
X72000000Y-50225000D01*
X22000000Y-50225000D02*
X72000000Y-50225000D01*
X22000000Y-50225000D02*
X23126504Y-49638579D01*
X22000000Y-50225000D02*
X23126504Y-50811421D01*
X72000000Y-50225000D02*
X70873496Y-50811421D01*
X72000000Y-50225000D02*
X70873496Y-49638579D01*
D13*
%TO.P,U2,3,VI*%
%TO.N,+5V*%
X42070000Y-97330000D03*
D14*
%TO.P,U2,2,VO*%
%TO.N,+3.3V*%
X44370000Y-91030000D03*
D13*
X44370000Y-97330000D03*
%TO.P,U2,1,GND*%
%TO.N,GND*%
X46670000Y-97330000D03*
%TD*%
D15*
%TO.P,U1,1,\u002AINC*%
%TO.N,STEP*%
X63705100Y-75095000D03*
%TO.P,U1,2,U/\u002AD*%
%TO.N,DIR*%
X63705100Y-76365000D03*
%TO.P,U1,3,VH/RH*%
%TO.N,unconnected-(U1-VH{slash}RH-Pad3)*%
X63705100Y-77635000D03*
%TO.P,U1,4,VSS*%
%TO.N,GND*%
X63705100Y-78905000D03*
%TO.P,U1,5,VW/RW*%
%TO.N,Pot+*%
X58294900Y-78905000D03*
%TO.P,U1,6,VL/RL*%
%TO.N,Pot-*%
X58294900Y-77635000D03*
%TO.P,U1,7,\u002ACS*%
%TO.N,POT_CS*%
X58294900Y-76365000D03*
%TO.P,U1,8,VCC*%
%TO.N,+5V*%
X58294900Y-75095000D03*
%TD*%
D16*
%TO.P,D2,1,K*%
%TO.N,+3.3V*%
X61520000Y-59175000D03*
D17*
%TO.P,D2,2,A*%
%TO.N,Net-(D2-A)*%
X46280000Y-59175000D03*
%TD*%
D18*
%TO.P,C1,1*%
%TO.N,Net-(D1-A)*%
X40575000Y-64869887D03*
D19*
%TO.P,C1,2*%
%TO.N,GND*%
X40575000Y-67369887D03*
%TD*%
D20*
%TO.P,J4,1,Pin_1*%
%TO.N,+3.3V*%
X41000000Y-60400000D03*
D21*
%TO.P,J4,2,Pin_2*%
%TO.N,Net-(D1-A)*%
X38460000Y-60400000D03*
%TO.P,J4,3,Pin_3*%
%TO.N,Net-(D2-A)*%
X35920000Y-60400000D03*
%TO.P,J4,4,Pin_4*%
%TO.N,GND*%
X33380000Y-60400000D03*
%TD*%
D19*
%TO.P,R4,1*%
%TO.N,Vamp1*%
X41280000Y-71200000D03*
D22*
%TO.P,R4,2*%
%TO.N,Net-(D2-A)*%
X31120000Y-71200000D03*
%TD*%
D23*
%TO.P,J3,1,Pin_1*%
%TO.N,GND*%
X67305000Y-89000000D03*
D24*
%TO.P,J3,2,Pin_2*%
%TO.N,+5V*%
X67305000Y-84000000D03*
%TD*%
D18*
%TO.P,C5,1*%
%TO.N,+3.3V*%
X38225000Y-92500000D03*
D19*
%TO.P,C5,2*%
%TO.N,GND*%
X35725000Y-92500000D03*
%TD*%
D20*
%TO.P,J5,1,Pin_1*%
%TO.N,POT_CS*%
X68400000Y-69060000D03*
D21*
%TO.P,J5,2,Pin_2*%
%TO.N,STEP*%
X68400000Y-71600000D03*
%TO.P,J5,3,Pin_3*%
%TO.N,DIR*%
X68400000Y-74140000D03*
%TD*%
D19*
%TO.P,R11,1*%
%TO.N,Net-(U4B-+)*%
X45560000Y-87800000D03*
D22*
%TO.P,R11,2*%
%TO.N,Vpanel*%
X35400000Y-87800000D03*
%TD*%
D18*
%TO.P,C4,1*%
%TO.N,+5V*%
X55880113Y-96150000D03*
D19*
%TO.P,C4,2*%
%TO.N,GND*%
X53380113Y-96150000D03*
%TD*%
%TO.P,R2,1*%
%TO.N,Net-(U4A-+)*%
X38000000Y-74400000D03*
D22*
%TO.P,R2,2*%
%TO.N,GND*%
X38000000Y-84560000D03*
%TD*%
D20*
%TO.P,J2,1,Pin_1*%
%TO.N,+5V*%
X27200000Y-66535000D03*
D21*
%TO.P,J2,2,Pin_2*%
%TO.N,Vcurrent*%
X27200000Y-69075000D03*
%TO.P,J2,3,Pin_3*%
%TO.N,GND*%
X27200000Y-71615000D03*
%TD*%
D23*
%TO.P,J1,1,Pin_1*%
%TO.N,GND*%
X27500000Y-84500000D03*
D24*
%TO.P,J1,2,Pin_2*%
%TO.N,Vpanel*%
X27500000Y-89500000D03*
%TD*%
D18*
%TO.P,C2,1*%
%TO.N,Net-(D2-A)*%
X35200000Y-66000000D03*
D19*
%TO.P,C2,2*%
%TO.N,GND*%
X32700000Y-66000000D03*
%TD*%
D25*
%TO.P,U4,1*%
%TO.N,Vamp1*%
X41915000Y-75200000D03*
D26*
%TO.P,U4,2,-*%
X41915000Y-77740000D03*
%TO.P,U4,3,+*%
%TO.N,Net-(U4A-+)*%
X41915000Y-80280000D03*
%TO.P,U4,4,V-*%
%TO.N,GND*%
X41915000Y-82820000D03*
%TO.P,U4,5,+*%
%TO.N,Net-(U4B-+)*%
X52075000Y-82820000D03*
%TO.P,U4,6,-*%
%TO.N,Pot-*%
X52075000Y-80280000D03*
%TO.P,U4,7*%
%TO.N,Pot+*%
X52075000Y-77740000D03*
%TO.P,U4,8,V+*%
%TO.N,+5V*%
X52075000Y-75200000D03*
%TD*%
D19*
%TO.P,R9,1*%
%TO.N,GND*%
X59480000Y-86800000D03*
D22*
%TO.P,R9,2*%
%TO.N,Pot-*%
X49320000Y-86800000D03*
%TD*%
D16*
%TO.P,D1,1,K*%
%TO.N,+3.3V*%
X61545000Y-65075000D03*
D17*
%TO.P,D1,2,A*%
%TO.N,Net-(D1-A)*%
X46305000Y-65075000D03*
%TD*%
D19*
%TO.P,R1,1*%
%TO.N,Vcurrent*%
X24915000Y-76550000D03*
D22*
%TO.P,R1,2*%
%TO.N,Net-(U4A-+)*%
X35075000Y-76550000D03*
%TD*%
D19*
%TO.P,R3,1*%
%TO.N,Pot+*%
X59480000Y-71200000D03*
D22*
%TO.P,R3,2*%
%TO.N,Net-(D1-A)*%
X49320000Y-71200000D03*
%TD*%
D19*
%TO.P,R10,1*%
%TO.N,GND*%
X59585000Y-91150000D03*
D22*
%TO.P,R10,2*%
%TO.N,Net-(U4B-+)*%
X49425000Y-91150000D03*
%TD*%
D27*
%TO.N,GND*%
X35725000Y-93270000D02*
X35725000Y-92500000D01*
X36915000Y-94460000D02*
X35725000Y-93270000D01*
X46670000Y-96918802D02*
X44211198Y-94460000D01*
X44211198Y-94460000D02*
X36915000Y-94460000D01*
X46670000Y-97330000D02*
X46670000Y-96918802D01*
%TO.N,+5V*%
X31255000Y-97330000D02*
X42070000Y-97330000D01*
X23280000Y-89355000D02*
X31255000Y-97330000D01*
X42070000Y-98330000D02*
X42070000Y-97330000D01*
X43105000Y-99365000D02*
X42070000Y-98330000D01*
X52665113Y-99365000D02*
X43105000Y-99365000D01*
X55880113Y-96150000D02*
X52665113Y-99365000D01*
%TO.N,GND*%
X47850000Y-96150000D02*
X46670000Y-97330000D01*
X53380113Y-96150000D02*
X47850000Y-96150000D01*
%TO.N,+3.3V*%
X42900000Y-92500000D02*
X44370000Y-91030000D01*
X38225000Y-92500000D02*
X42900000Y-92500000D01*
%TO.N,Net-(D1-A)*%
X40780113Y-65075000D02*
X40575000Y-64869887D01*
X38460000Y-60400000D02*
X38460000Y-62754887D01*
X49320000Y-68090000D02*
X49320000Y-71200000D01*
X46305000Y-65075000D02*
X49320000Y-68090000D01*
X38460000Y-62754887D02*
X40575000Y-64869887D01*
X46305000Y-65075000D02*
X40780113Y-65075000D01*
%TO.N,GND*%
X27200000Y-71500000D02*
X32700000Y-66000000D01*
X27500000Y-84500000D02*
X30755000Y-81245000D01*
X59480000Y-85945000D02*
X63705100Y-81719900D01*
X33380000Y-60400000D02*
X33380000Y-65320000D01*
X38000000Y-88875000D02*
X38000000Y-84560000D01*
X30755000Y-75400000D02*
X30755000Y-74909000D01*
X30755000Y-81245000D02*
X30755000Y-75400000D01*
X67305000Y-89000000D02*
X65155000Y-91150000D01*
X27200000Y-71615000D02*
X27200000Y-71500000D01*
X35725000Y-91150000D02*
X38000000Y-88875000D01*
X33380000Y-65320000D02*
X32700000Y-66000000D01*
X53380113Y-95018630D02*
X57248743Y-91150000D01*
X27200000Y-71615000D02*
X30755000Y-75170000D01*
X38000000Y-84560000D02*
X34070000Y-84560000D01*
X53380113Y-96150000D02*
X53380113Y-95018630D01*
X63705100Y-81719900D02*
X63705100Y-78905000D01*
X65155000Y-91150000D02*
X59585000Y-91150000D01*
X40575000Y-67369887D02*
X38294113Y-67369887D01*
X30755000Y-75170000D02*
X30755000Y-75400000D01*
X59480000Y-91045000D02*
X59585000Y-91150000D01*
X59480000Y-86800000D02*
X59480000Y-91045000D01*
X59480000Y-86800000D02*
X59480000Y-85945000D01*
X41915000Y-82820000D02*
X39740000Y-82820000D01*
X34070000Y-84560000D02*
X30755000Y-81245000D01*
X38294113Y-67369887D02*
X30755000Y-74909000D01*
X57248743Y-91150000D02*
X59585000Y-91150000D01*
X35725000Y-92500000D02*
X35725000Y-91150000D01*
X39740000Y-82820000D02*
X38000000Y-84560000D01*
%TO.N,+5V*%
X27200000Y-66535000D02*
X23280000Y-70455000D01*
X70200000Y-90300000D02*
X70200000Y-86895000D01*
X51902761Y-75200000D02*
X52075000Y-75200000D01*
X67305000Y-84000000D02*
X70865000Y-80440000D01*
D28*
X64025000Y-69200000D02*
X64025000Y-69450000D01*
X64025000Y-69450000D02*
X58380000Y-75095000D01*
D27*
X70865000Y-80440000D02*
X70865000Y-67665000D01*
X58075000Y-69200000D02*
X52075000Y-75200000D01*
X70000000Y-66800000D02*
X70865000Y-67665000D01*
X70200000Y-86895000D02*
X67305000Y-84000000D01*
D28*
X58380000Y-75095000D02*
X58294900Y-75095000D01*
D27*
X66425000Y-66800000D02*
X70000000Y-66800000D01*
X64350000Y-96150000D02*
X70200000Y-90300000D01*
X64025000Y-69200000D02*
X66425000Y-66800000D01*
X55880113Y-96150000D02*
X64350000Y-96150000D01*
X64025000Y-69200000D02*
X58075000Y-69200000D01*
X23280000Y-70455000D02*
X23280000Y-89355000D01*
%TO.N,+3.3V*%
X60400000Y-59600000D02*
X61468000Y-59600000D01*
X41000000Y-60400000D02*
X42210000Y-61610000D01*
X59085000Y-61610000D02*
X61520000Y-59175000D01*
X61520000Y-59175000D02*
X61520000Y-65050000D01*
X58650000Y-65075000D02*
X61545000Y-65075000D01*
X46425000Y-77300000D02*
X58650000Y-65075000D01*
X42210000Y-61610000D02*
X59085000Y-61610000D01*
X38225000Y-91425000D02*
X46425000Y-83225000D01*
X46425000Y-83225000D02*
X46425000Y-77300000D01*
X38225000Y-92500000D02*
X38225000Y-91425000D01*
X61520000Y-65050000D02*
X61545000Y-65075000D01*
%TO.N,Net-(D2-A)*%
X31120000Y-70080000D02*
X35200000Y-66000000D01*
X35200000Y-61120000D02*
X35920000Y-60400000D01*
X35200000Y-66000000D02*
X35200000Y-61120000D01*
X31120000Y-71200000D02*
X31120000Y-70080000D01*
X46280000Y-59175000D02*
X45505000Y-58400000D01*
X35920000Y-60400000D02*
X37920000Y-58400000D01*
X45505000Y-58400000D02*
X37920000Y-58400000D01*
%TO.N,Vcurrent*%
X24915000Y-71360000D02*
X27200000Y-69075000D01*
X24915000Y-76550000D02*
X24915000Y-71360000D01*
%TO.N,Vpanel*%
X33700000Y-89500000D02*
X35400000Y-87800000D01*
X27500000Y-89500000D02*
X33700000Y-89500000D01*
%TO.N,Net-(U4A-+)*%
X36975000Y-76550000D02*
X38000000Y-77575000D01*
X40705000Y-80280000D02*
X38000000Y-77575000D01*
X41915000Y-80280000D02*
X40705000Y-80280000D01*
X38000000Y-77575000D02*
X38000000Y-74400000D01*
X35075000Y-76550000D02*
X36975000Y-76550000D01*
%TO.N,Vamp1*%
X41915000Y-71835000D02*
X41280000Y-71200000D01*
X41915000Y-75200000D02*
X41915000Y-71835000D01*
X41915000Y-77740000D02*
X41915000Y-75200000D01*
%TO.N,Net-(U4B-+)*%
X52075000Y-88500000D02*
X52075000Y-82820000D01*
X49425000Y-91150000D02*
X52075000Y-88500000D01*
X45560000Y-87800000D02*
X46075000Y-87800000D01*
X46075000Y-87800000D02*
X49425000Y-91150000D01*
D28*
%TO.N,DIR*%
X63705100Y-76365000D02*
X66175000Y-76365000D01*
X66175000Y-76365000D02*
X68400000Y-74140000D01*
%TO.N,POT_CS*%
X67040000Y-69060000D02*
X68400000Y-69060000D01*
X59735000Y-76365000D02*
X67040000Y-69060000D01*
X58294900Y-76365000D02*
X59735000Y-76365000D01*
%TO.N,STEP*%
X63705100Y-75095000D02*
X64430000Y-75095000D01*
X67925000Y-71600000D02*
X68400000Y-71600000D01*
X64430000Y-75095000D02*
X67925000Y-71600000D01*
%TO.N,Pot-*%
X59435000Y-77635000D02*
X58294900Y-77635000D01*
X60575000Y-79550000D02*
X60575000Y-78775000D01*
X59845000Y-80280000D02*
X60575000Y-79550000D01*
D27*
X49320000Y-86800000D02*
X49320000Y-81980000D01*
D28*
X60575000Y-78775000D02*
X59435000Y-77635000D01*
D27*
X51020000Y-80280000D02*
X52075000Y-80280000D01*
X49320000Y-81980000D02*
X51020000Y-80280000D01*
X52075000Y-80280000D02*
X51320000Y-80280000D01*
D28*
X52075000Y-80280000D02*
X59845000Y-80280000D01*
%TO.N,Pot+*%
X53240000Y-78905000D02*
X52075000Y-77740000D01*
D27*
X52940000Y-77740000D02*
X52075000Y-77740000D01*
D28*
X58294900Y-78905000D02*
X53240000Y-78905000D01*
D27*
X59480000Y-71200000D02*
X52940000Y-77740000D01*
%TD*%
%TA.AperFunction,Conductor*%
%TO.N,GND*%
G36*
X71442539Y-56020185D02*
G01*
X71488294Y-56072989D01*
X71499500Y-56124500D01*
X71499500Y-66394299D01*
X71479815Y-66461338D01*
X71427011Y-66507093D01*
X71357853Y-66517037D01*
X71294297Y-66488012D01*
X71287819Y-66481980D01*
X70739727Y-65933888D01*
X70712074Y-65913797D01*
X70595132Y-65828833D01*
X70435881Y-65747691D01*
X70435875Y-65747688D01*
X70394062Y-65734103D01*
X70327390Y-65712439D01*
X70265897Y-65692459D01*
X70265895Y-65692458D01*
X70265894Y-65692458D01*
X70089370Y-65664500D01*
X70089366Y-65664500D01*
X66514367Y-65664500D01*
X66335634Y-65664500D01*
X66335630Y-65664500D01*
X66159102Y-65692459D01*
X66077287Y-65719042D01*
X65989120Y-65747690D01*
X65989118Y-65747690D01*
X65989118Y-65747691D01*
X65944574Y-65770386D01*
X65944575Y-65770387D01*
X65829867Y-65828833D01*
X65712926Y-65913797D01*
X65685272Y-65933888D01*
X65685269Y-65933891D01*
X63590980Y-68028181D01*
X63529657Y-68061666D01*
X63503299Y-68064500D01*
X57985634Y-68064500D01*
X57926790Y-68073820D01*
X57809101Y-68092460D01*
X57809098Y-68092460D01*
X57639121Y-68147689D01*
X57639118Y-68147690D01*
X57479866Y-68228834D01*
X57396116Y-68289680D01*
X57396117Y-68289681D01*
X57372736Y-68306668D01*
X57306929Y-68330147D01*
X57238875Y-68314321D01*
X57190181Y-68264215D01*
X57176306Y-68195737D01*
X57201656Y-68130628D01*
X57212164Y-68118674D01*
X59084020Y-66246819D01*
X59145343Y-66213334D01*
X59171701Y-66210500D01*
X59320501Y-66210500D01*
X59387540Y-66230185D01*
X59433295Y-66282989D01*
X59444501Y-66334500D01*
X59444501Y-66722876D01*
X59450908Y-66782483D01*
X59501202Y-66917328D01*
X59501206Y-66917335D01*
X59587452Y-67032544D01*
X59587455Y-67032547D01*
X59702664Y-67118793D01*
X59702671Y-67118797D01*
X59837517Y-67169091D01*
X59837516Y-67169091D01*
X59844444Y-67169835D01*
X59897127Y-67175500D01*
X63192872Y-67175499D01*
X63252483Y-67169091D01*
X63387331Y-67118796D01*
X63502546Y-67032546D01*
X63588796Y-66917331D01*
X63639091Y-66782483D01*
X63645500Y-66722873D01*
X63645499Y-63427128D01*
X63639091Y-63367517D01*
X63588796Y-63232669D01*
X63588795Y-63232668D01*
X63588793Y-63232664D01*
X63502547Y-63117455D01*
X63502544Y-63117452D01*
X63387335Y-63031206D01*
X63387328Y-63031202D01*
X63252482Y-62980908D01*
X63252483Y-62980908D01*
X63192883Y-62974501D01*
X63192881Y-62974500D01*
X63192873Y-62974500D01*
X63192865Y-62974500D01*
X62779500Y-62974500D01*
X62712461Y-62954815D01*
X62666706Y-62902011D01*
X62655500Y-62850500D01*
X62655500Y-61399499D01*
X62675185Y-61332460D01*
X62727989Y-61286705D01*
X62779500Y-61275499D01*
X63167871Y-61275499D01*
X63167872Y-61275499D01*
X63227483Y-61269091D01*
X63362331Y-61218796D01*
X63477546Y-61132546D01*
X63563796Y-61017331D01*
X63614091Y-60882483D01*
X63620500Y-60822873D01*
X63620499Y-58621288D01*
X67149500Y-58621288D01*
X67181161Y-58861785D01*
X67243947Y-59096104D01*
X67297917Y-59226399D01*
X67336776Y-59320212D01*
X67458064Y-59530289D01*
X67458066Y-59530292D01*
X67458067Y-59530293D01*
X67605733Y-59722736D01*
X67605739Y-59722743D01*
X67777256Y-59894260D01*
X67777263Y-59894266D01*
X67832091Y-59936337D01*
X67969711Y-60041936D01*
X68179788Y-60163224D01*
X68403900Y-60256054D01*
X68638211Y-60318838D01*
X68818586Y-60342584D01*
X68878711Y-60350500D01*
X68878712Y-60350500D01*
X69121289Y-60350500D01*
X69169388Y-60344167D01*
X69361789Y-60318838D01*
X69596100Y-60256054D01*
X69820212Y-60163224D01*
X70030289Y-60041936D01*
X70222738Y-59894265D01*
X70394265Y-59722738D01*
X70541936Y-59530289D01*
X70663224Y-59320212D01*
X70756054Y-59096100D01*
X70818838Y-58861789D01*
X70850500Y-58621288D01*
X70850500Y-58378712D01*
X70818838Y-58138211D01*
X70756054Y-57903900D01*
X70663224Y-57679788D01*
X70541936Y-57469711D01*
X70436776Y-57332664D01*
X70394266Y-57277263D01*
X70394260Y-57277256D01*
X70222743Y-57105739D01*
X70222736Y-57105733D01*
X70030293Y-56958067D01*
X70030292Y-56958066D01*
X70030289Y-56958064D01*
X69820212Y-56836776D01*
X69820205Y-56836773D01*
X69596104Y-56743947D01*
X69361785Y-56681161D01*
X69121289Y-56649500D01*
X69121288Y-56649500D01*
X68878712Y-56649500D01*
X68878711Y-56649500D01*
X68638214Y-56681161D01*
X68403895Y-56743947D01*
X68179794Y-56836773D01*
X68179785Y-56836777D01*
X67969706Y-56958067D01*
X67777263Y-57105733D01*
X67777256Y-57105739D01*
X67605739Y-57277256D01*
X67605733Y-57277263D01*
X67458067Y-57469706D01*
X67336777Y-57679785D01*
X67336773Y-57679794D01*
X67243947Y-57903895D01*
X67181161Y-58138214D01*
X67149500Y-58378711D01*
X67149500Y-58621288D01*
X63620499Y-58621288D01*
X63620499Y-57527128D01*
X63614091Y-57467517D01*
X63563796Y-57332669D01*
X63563795Y-57332668D01*
X63563793Y-57332664D01*
X63477547Y-57217455D01*
X63477544Y-57217452D01*
X63362335Y-57131206D01*
X63362328Y-57131202D01*
X63227482Y-57080908D01*
X63227483Y-57080908D01*
X63167883Y-57074501D01*
X63167881Y-57074500D01*
X63167873Y-57074500D01*
X63167864Y-57074500D01*
X59872129Y-57074500D01*
X59872123Y-57074501D01*
X59812516Y-57080908D01*
X59677671Y-57131202D01*
X59677664Y-57131206D01*
X59562455Y-57217452D01*
X59562452Y-57217455D01*
X59476206Y-57332664D01*
X59476202Y-57332671D01*
X59425908Y-57467517D01*
X59419501Y-57527116D01*
X59419501Y-57527123D01*
X59419500Y-57527135D01*
X59419500Y-58993414D01*
X59405985Y-59049708D01*
X59347690Y-59164119D01*
X59347690Y-59164120D01*
X59292460Y-59334098D01*
X59292460Y-59334101D01*
X59264500Y-59510634D01*
X59264500Y-59689370D01*
X59273114Y-59743758D01*
X59264159Y-59813052D01*
X59238322Y-59850837D01*
X58650980Y-60438181D01*
X58589657Y-60471666D01*
X58563299Y-60474500D01*
X48173107Y-60474500D01*
X48106068Y-60454815D01*
X48060313Y-60402011D01*
X48050369Y-60332853D01*
X48071804Y-60278990D01*
X48078901Y-60268936D01*
X48211104Y-60013797D01*
X48307334Y-59743032D01*
X48365798Y-59461686D01*
X48385408Y-59175000D01*
X48365798Y-58888314D01*
X48307334Y-58606968D01*
X48211105Y-58336206D01*
X48211106Y-58336206D01*
X48078901Y-58081064D01*
X47913187Y-57846299D01*
X47834554Y-57762105D01*
X47717053Y-57636292D01*
X47494147Y-57454945D01*
X47494146Y-57454944D01*
X47248617Y-57305634D01*
X46985063Y-57191158D01*
X46985061Y-57191157D01*
X46985058Y-57191156D01*
X46855578Y-57154877D01*
X46708364Y-57113630D01*
X46708359Y-57113629D01*
X46708358Y-57113629D01*
X46566018Y-57094064D01*
X46423679Y-57074500D01*
X46423678Y-57074500D01*
X46136322Y-57074500D01*
X46136321Y-57074500D01*
X45851642Y-57113629D01*
X45851635Y-57113630D01*
X45574938Y-57191157D01*
X45429722Y-57254234D01*
X45380320Y-57264500D01*
X37830630Y-57264500D01*
X37654108Y-57292458D01*
X37654106Y-57292458D01*
X37654103Y-57292459D01*
X37569111Y-57320075D01*
X37484114Y-57347692D01*
X37324867Y-57428833D01*
X37271625Y-57467516D01*
X37180271Y-57533889D01*
X37180269Y-57533891D01*
X37180268Y-57533891D01*
X35659773Y-59054386D01*
X35604186Y-59086480D01*
X35456342Y-59126095D01*
X35456335Y-59126098D01*
X35242171Y-59225964D01*
X35242169Y-59225965D01*
X35048597Y-59361505D01*
X34881508Y-59528594D01*
X34751269Y-59714595D01*
X34696692Y-59758219D01*
X34627193Y-59765412D01*
X34564839Y-59733890D01*
X34548119Y-59714594D01*
X34418113Y-59528926D01*
X34418108Y-59528920D01*
X34251082Y-59361894D01*
X34057578Y-59226399D01*
X33843492Y-59126570D01*
X33843486Y-59126567D01*
X33630000Y-59069364D01*
X33630000Y-59966988D01*
X33572993Y-59934075D01*
X33445826Y-59900000D01*
X33314174Y-59900000D01*
X33187007Y-59934075D01*
X33130000Y-59966988D01*
X33130000Y-59069364D01*
X33129999Y-59069364D01*
X32916513Y-59126567D01*
X32916507Y-59126570D01*
X32702422Y-59226399D01*
X32702420Y-59226400D01*
X32508926Y-59361886D01*
X32508920Y-59361891D01*
X32341891Y-59528920D01*
X32341886Y-59528926D01*
X32206400Y-59722420D01*
X32206399Y-59722422D01*
X32106570Y-59936507D01*
X32106567Y-59936513D01*
X32049364Y-60149999D01*
X32049364Y-60150000D01*
X32946988Y-60150000D01*
X32914075Y-60207007D01*
X32880000Y-60334174D01*
X32880000Y-60465826D01*
X32914075Y-60592993D01*
X32946988Y-60650000D01*
X32049364Y-60650000D01*
X32106567Y-60863486D01*
X32106570Y-60863492D01*
X32206399Y-61077578D01*
X32341894Y-61271082D01*
X32508917Y-61438105D01*
X32702421Y-61573600D01*
X32916507Y-61673429D01*
X32916516Y-61673433D01*
X33130000Y-61730634D01*
X33130000Y-60833012D01*
X33187007Y-60865925D01*
X33314174Y-60900000D01*
X33445826Y-60900000D01*
X33572993Y-60865925D01*
X33630000Y-60833012D01*
X33630000Y-61730633D01*
X33843483Y-61673433D01*
X33843487Y-61673431D01*
X33888094Y-61652631D01*
X33957171Y-61642139D01*
X34020956Y-61670658D01*
X34059196Y-61729134D01*
X34064500Y-61765013D01*
X34064500Y-64771733D01*
X34044815Y-64838772D01*
X34039766Y-64846044D01*
X33956206Y-64957664D01*
X33956202Y-64957671D01*
X33905908Y-65092517D01*
X33900921Y-65138907D01*
X33899501Y-65152123D01*
X33899322Y-65155452D01*
X33897847Y-65155372D01*
X33879815Y-65216784D01*
X33827011Y-65262539D01*
X33783522Y-65270029D01*
X33100000Y-65953552D01*
X33100000Y-65947339D01*
X33072741Y-65845606D01*
X33020080Y-65754394D01*
X32945606Y-65679920D01*
X32854394Y-65627259D01*
X32752661Y-65600000D01*
X32746448Y-65600000D01*
X33425472Y-64920974D01*
X33352478Y-64869863D01*
X33146331Y-64773735D01*
X33146317Y-64773730D01*
X32926610Y-64714860D01*
X32926599Y-64714858D01*
X32700002Y-64695034D01*
X32699998Y-64695034D01*
X32473400Y-64714858D01*
X32473389Y-64714860D01*
X32253682Y-64773730D01*
X32253673Y-64773734D01*
X32047516Y-64869866D01*
X32047512Y-64869868D01*
X31974526Y-64920973D01*
X31974526Y-64920974D01*
X32653553Y-65600000D01*
X32647339Y-65600000D01*
X32545606Y-65627259D01*
X32454394Y-65679920D01*
X32379920Y-65754394D01*
X32327259Y-65845606D01*
X32300000Y-65947339D01*
X32300000Y-65953552D01*
X31620974Y-65274526D01*
X31620973Y-65274526D01*
X31569868Y-65347512D01*
X31569866Y-65347516D01*
X31473734Y-65553673D01*
X31473730Y-65553682D01*
X31414860Y-65773389D01*
X31414858Y-65773400D01*
X31395034Y-65999997D01*
X31395034Y-66000002D01*
X31414858Y-66226599D01*
X31414860Y-66226610D01*
X31473730Y-66446317D01*
X31473735Y-66446331D01*
X31569863Y-66652478D01*
X31620974Y-66725472D01*
X32300000Y-66046446D01*
X32300000Y-66052661D01*
X32327259Y-66154394D01*
X32379920Y-66245606D01*
X32454394Y-66320080D01*
X32545606Y-66372741D01*
X32647339Y-66400000D01*
X32653553Y-66400000D01*
X31974526Y-67079025D01*
X32047513Y-67130132D01*
X32047521Y-67130136D01*
X32171070Y-67187748D01*
X32223510Y-67233920D01*
X32242662Y-67301113D01*
X32222446Y-67367995D01*
X32206347Y-67387811D01*
X30380272Y-69213889D01*
X30253891Y-69340269D01*
X30253890Y-69340270D01*
X30148833Y-69484867D01*
X30067243Y-69644997D01*
X30066184Y-69648754D01*
X30012459Y-69814101D01*
X30012457Y-69814110D01*
X29987252Y-69973257D01*
X29987252Y-69973258D01*
X29984500Y-69990633D01*
X29984500Y-70530351D01*
X29972882Y-70582756D01*
X29893262Y-70753502D01*
X29893258Y-70753511D01*
X29834366Y-70973302D01*
X29834364Y-70973313D01*
X29814532Y-71199998D01*
X29814532Y-71200001D01*
X29834364Y-71426686D01*
X29834366Y-71426697D01*
X29893258Y-71646488D01*
X29893261Y-71646497D01*
X29989431Y-71852732D01*
X29989432Y-71852734D01*
X30119954Y-72039141D01*
X30280858Y-72200045D01*
X30280861Y-72200047D01*
X30467266Y-72330568D01*
X30673504Y-72426739D01*
X30893308Y-72485635D01*
X31055230Y-72499801D01*
X31119998Y-72505468D01*
X31120000Y-72505468D01*
X31120002Y-72505468D01*
X31176673Y-72500509D01*
X31346692Y-72485635D01*
X31566496Y-72426739D01*
X31772734Y-72330568D01*
X31959139Y-72200047D01*
X32120047Y-72039139D01*
X32250568Y-71852734D01*
X32346739Y-71646496D01*
X32405635Y-71426692D01*
X32425468Y-71200000D01*
X32405635Y-70973308D01*
X32346739Y-70753504D01*
X32289808Y-70631415D01*
X32279316Y-70562337D01*
X32307836Y-70498553D01*
X32314496Y-70491342D01*
X35469021Y-67336818D01*
X35530344Y-67303333D01*
X35556702Y-67300499D01*
X36047871Y-67300499D01*
X36047872Y-67300499D01*
X36107483Y-67294091D01*
X36242331Y-67243796D01*
X36357546Y-67157546D01*
X36443796Y-67042331D01*
X36494091Y-66907483D01*
X36500500Y-66847873D01*
X36500499Y-65152128D01*
X36494091Y-65092517D01*
X36443796Y-64957669D01*
X36443795Y-64957668D01*
X36443793Y-64957664D01*
X36360234Y-64846044D01*
X36335816Y-64780580D01*
X36335500Y-64771733D01*
X36335500Y-61775358D01*
X36355185Y-61708319D01*
X36407093Y-61662976D01*
X36597830Y-61574035D01*
X36791401Y-61438495D01*
X36958495Y-61271401D01*
X37088425Y-61085842D01*
X37143002Y-61042217D01*
X37212500Y-61035023D01*
X37274855Y-61066546D01*
X37291572Y-61085838D01*
X37302074Y-61100836D01*
X37324402Y-61167040D01*
X37324500Y-61171960D01*
X37324500Y-62844257D01*
X37352458Y-63020781D01*
X37375325Y-63091156D01*
X37407692Y-63190772D01*
X37488833Y-63350019D01*
X37544856Y-63427128D01*
X37593890Y-63494616D01*
X39238181Y-65138907D01*
X39271666Y-65200230D01*
X39274500Y-65226588D01*
X39274500Y-65717757D01*
X39274501Y-65717763D01*
X39280908Y-65777370D01*
X39331202Y-65912215D01*
X39331206Y-65912222D01*
X39417452Y-66027431D01*
X39417455Y-66027434D01*
X39532664Y-66113680D01*
X39532671Y-66113684D01*
X39577618Y-66130448D01*
X39667517Y-66163978D01*
X39727127Y-66170387D01*
X39727153Y-66170386D01*
X39730453Y-66170565D01*
X39730372Y-66172070D01*
X39791672Y-66189999D01*
X39837483Y-66242754D01*
X39845016Y-66286351D01*
X40528553Y-66969887D01*
X40522339Y-66969887D01*
X40420606Y-66997146D01*
X40329394Y-67049807D01*
X40254920Y-67124281D01*
X40202259Y-67215493D01*
X40175000Y-67317226D01*
X40175000Y-67323439D01*
X39495974Y-66644413D01*
X39495973Y-66644413D01*
X39444868Y-66717399D01*
X39444866Y-66717403D01*
X39348734Y-66923560D01*
X39348730Y-66923569D01*
X39289860Y-67143276D01*
X39289858Y-67143287D01*
X39270034Y-67369884D01*
X39270034Y-67369889D01*
X39289858Y-67596486D01*
X39289860Y-67596497D01*
X39348730Y-67816204D01*
X39348735Y-67816218D01*
X39444863Y-68022365D01*
X39495974Y-68095359D01*
X40175000Y-67416333D01*
X40175000Y-67422548D01*
X40202259Y-67524281D01*
X40254920Y-67615493D01*
X40329394Y-67689967D01*
X40420606Y-67742628D01*
X40522339Y-67769887D01*
X40528553Y-67769887D01*
X39849526Y-68448912D01*
X39922513Y-68500019D01*
X39922521Y-68500023D01*
X40128668Y-68596151D01*
X40128682Y-68596156D01*
X40348389Y-68655026D01*
X40348400Y-68655028D01*
X40574998Y-68674853D01*
X40575002Y-68674853D01*
X40801599Y-68655028D01*
X40801610Y-68655026D01*
X41021317Y-68596156D01*
X41021331Y-68596151D01*
X41227478Y-68500023D01*
X41300471Y-68448911D01*
X40621447Y-67769887D01*
X40627661Y-67769887D01*
X40729394Y-67742628D01*
X40820606Y-67689967D01*
X40895080Y-67615493D01*
X40947741Y-67524281D01*
X40975000Y-67422548D01*
X40975000Y-67416334D01*
X41654024Y-68095358D01*
X41705136Y-68022365D01*
X41801264Y-67816218D01*
X41801269Y-67816204D01*
X41860139Y-67596497D01*
X41860141Y-67596486D01*
X41879966Y-67369889D01*
X41879966Y-67369884D01*
X41860141Y-67143287D01*
X41860139Y-67143276D01*
X41801269Y-66923569D01*
X41801264Y-66923555D01*
X41705136Y-66717408D01*
X41705132Y-66717400D01*
X41654025Y-66644413D01*
X40975000Y-67323438D01*
X40975000Y-67317226D01*
X40947741Y-67215493D01*
X40895080Y-67124281D01*
X40820606Y-67049807D01*
X40729394Y-66997146D01*
X40627661Y-66969887D01*
X40621448Y-66969887D01*
X41341359Y-66249975D01*
X41343206Y-66251822D01*
X41367622Y-66226622D01*
X41428764Y-66210500D01*
X44471186Y-66210500D01*
X44538225Y-66230185D01*
X44572489Y-66262990D01*
X44609892Y-66315978D01*
X44671812Y-66403700D01*
X44725643Y-66461338D01*
X44867947Y-66613708D01*
X45090853Y-66795055D01*
X45302184Y-66923569D01*
X45336382Y-66944365D01*
X45502074Y-67016334D01*
X45599942Y-67058844D01*
X45876642Y-67136371D01*
X46114694Y-67169091D01*
X46161321Y-67175500D01*
X46161322Y-67175500D01*
X46448679Y-67175500D01*
X46495306Y-67169091D01*
X46696235Y-67141473D01*
X46765327Y-67151845D01*
X46800798Y-67176637D01*
X48148181Y-68524020D01*
X48181666Y-68585343D01*
X48184500Y-68611701D01*
X48184500Y-70530351D01*
X48172882Y-70582756D01*
X48093262Y-70753502D01*
X48093258Y-70753511D01*
X48034366Y-70973302D01*
X48034364Y-70973313D01*
X48014532Y-71199998D01*
X48014532Y-71200001D01*
X48034364Y-71426686D01*
X48034366Y-71426697D01*
X48093258Y-71646488D01*
X48093261Y-71646497D01*
X48189431Y-71852732D01*
X48189432Y-71852734D01*
X48319954Y-72039141D01*
X48480858Y-72200045D01*
X48480861Y-72200047D01*
X48667266Y-72330568D01*
X48873504Y-72426739D01*
X49093308Y-72485635D01*
X49320000Y-72505468D01*
X49320001Y-72505467D01*
X49325157Y-72505919D01*
X49390226Y-72531371D01*
X49431205Y-72587962D01*
X49435083Y-72657724D01*
X49402031Y-72717128D01*
X45685272Y-76433889D01*
X45558891Y-76560269D01*
X45558890Y-76560270D01*
X45453833Y-76704867D01*
X45372243Y-76864997D01*
X45371184Y-76868754D01*
X45317459Y-77034101D01*
X45317457Y-77034110D01*
X45296575Y-77165964D01*
X45296575Y-77165965D01*
X45289500Y-77210634D01*
X45289500Y-82703298D01*
X45269815Y-82770337D01*
X45253181Y-82790979D01*
X37485272Y-90558889D01*
X37358891Y-90685269D01*
X37358890Y-90685270D01*
X37253833Y-90829867D01*
X37172243Y-90989997D01*
X37171184Y-90993754D01*
X37117459Y-91159101D01*
X37117457Y-91159110D01*
X37098668Y-91277747D01*
X37071728Y-91334576D01*
X37072768Y-91335355D01*
X37068926Y-91340486D01*
X37068739Y-91340882D01*
X37068214Y-91341437D01*
X36981206Y-91457664D01*
X36981202Y-91457671D01*
X36930908Y-91592517D01*
X36924501Y-91652116D01*
X36924322Y-91655452D01*
X36922847Y-91655372D01*
X36904815Y-91716784D01*
X36852011Y-91762539D01*
X36808522Y-91770029D01*
X36125000Y-92453551D01*
X36125000Y-92447339D01*
X36097741Y-92345606D01*
X36045080Y-92254394D01*
X35970606Y-92179920D01*
X35879394Y-92127259D01*
X35777661Y-92100000D01*
X35771448Y-92100000D01*
X36450472Y-91420974D01*
X36377478Y-91369863D01*
X36171331Y-91273735D01*
X36171317Y-91273730D01*
X35951610Y-91214860D01*
X35951599Y-91214858D01*
X35725002Y-91195034D01*
X35724998Y-91195034D01*
X35498400Y-91214858D01*
X35498389Y-91214860D01*
X35278682Y-91273730D01*
X35278673Y-91273734D01*
X35072516Y-91369866D01*
X35072512Y-91369868D01*
X34999526Y-91420973D01*
X34999526Y-91420974D01*
X35678553Y-92100000D01*
X35672339Y-92100000D01*
X35570606Y-92127259D01*
X35479394Y-92179920D01*
X35404920Y-92254394D01*
X35352259Y-92345606D01*
X35325000Y-92447339D01*
X35325000Y-92453552D01*
X34645974Y-91774526D01*
X34645973Y-91774526D01*
X34594868Y-91847512D01*
X34594866Y-91847516D01*
X34498734Y-92053673D01*
X34498730Y-92053682D01*
X34439860Y-92273389D01*
X34439858Y-92273400D01*
X34420034Y-92499997D01*
X34420034Y-92500002D01*
X34439858Y-92726599D01*
X34439860Y-92726610D01*
X34498730Y-92946317D01*
X34498735Y-92946331D01*
X34594863Y-93152478D01*
X34645974Y-93225472D01*
X35325000Y-92546446D01*
X35325000Y-92552661D01*
X35352259Y-92654394D01*
X35404920Y-92745606D01*
X35479394Y-92820080D01*
X35570606Y-92872741D01*
X35672339Y-92900000D01*
X35678553Y-92900000D01*
X34999526Y-93579025D01*
X35072513Y-93630132D01*
X35072521Y-93630136D01*
X35278668Y-93726264D01*
X35278682Y-93726269D01*
X35498389Y-93785139D01*
X35498400Y-93785141D01*
X35724998Y-93804966D01*
X35725002Y-93804966D01*
X35951599Y-93785141D01*
X35951610Y-93785139D01*
X36171317Y-93726269D01*
X36171331Y-93726264D01*
X36377478Y-93630136D01*
X36450471Y-93579024D01*
X35771447Y-92900000D01*
X35777661Y-92900000D01*
X35879394Y-92872741D01*
X35970606Y-92820080D01*
X36045080Y-92745606D01*
X36097741Y-92654394D01*
X36125000Y-92552661D01*
X36125000Y-92546447D01*
X36809197Y-93230644D01*
X36858192Y-93240491D01*
X36908375Y-93289106D01*
X36923049Y-93344632D01*
X36924099Y-93344576D01*
X36924146Y-93344571D01*
X36924146Y-93344573D01*
X36924324Y-93344564D01*
X36924501Y-93347876D01*
X36930908Y-93407483D01*
X36981202Y-93542328D01*
X36981206Y-93542335D01*
X37067452Y-93657544D01*
X37067455Y-93657547D01*
X37182664Y-93743793D01*
X37182671Y-93743797D01*
X37317517Y-93794091D01*
X37317516Y-93794091D01*
X37324444Y-93794835D01*
X37377127Y-93800500D01*
X39072872Y-93800499D01*
X39132483Y-93794091D01*
X39267331Y-93743796D01*
X39290751Y-93726264D01*
X39378956Y-93660234D01*
X39444420Y-93635816D01*
X39453267Y-93635500D01*
X42989370Y-93635500D01*
X43067824Y-93623073D01*
X43165897Y-93607541D01*
X43294193Y-93565853D01*
X43335881Y-93552309D01*
X43495132Y-93471167D01*
X43639728Y-93366111D01*
X43766111Y-93239728D01*
X44439020Y-92566817D01*
X44500343Y-92533333D01*
X44526701Y-92530499D01*
X45828028Y-92530499D01*
X45828036Y-92530499D01*
X45947418Y-92519886D01*
X46143049Y-92463909D01*
X46323407Y-92369698D01*
X46481109Y-92241109D01*
X46609698Y-92083407D01*
X46703909Y-91903049D01*
X46759886Y-91707418D01*
X46770500Y-91588037D01*
X46770499Y-90471964D01*
X46764569Y-90405262D01*
X46778240Y-90336745D01*
X46826785Y-90286494D01*
X46894791Y-90270466D01*
X46960667Y-90293749D01*
X46975763Y-90306603D01*
X48150097Y-91480937D01*
X48182190Y-91536522D01*
X48198260Y-91596495D01*
X48294431Y-91802732D01*
X48294432Y-91802734D01*
X48424954Y-91989141D01*
X48585858Y-92150045D01*
X48585861Y-92150047D01*
X48772266Y-92280568D01*
X48978504Y-92376739D01*
X49198308Y-92435635D01*
X49360230Y-92449801D01*
X49424998Y-92455468D01*
X49425000Y-92455468D01*
X49425002Y-92455468D01*
X49481673Y-92450509D01*
X49651692Y-92435635D01*
X49871496Y-92376739D01*
X50077734Y-92280568D01*
X50264139Y-92150047D01*
X50425047Y-91989139D01*
X50555568Y-91802734D01*
X50651739Y-91596496D01*
X50667808Y-91536521D01*
X50699899Y-91480938D01*
X51030835Y-91150002D01*
X58280034Y-91150002D01*
X58299858Y-91376599D01*
X58299860Y-91376610D01*
X58358730Y-91596317D01*
X58358735Y-91596331D01*
X58454863Y-91802478D01*
X58505974Y-91875472D01*
X59185000Y-91196446D01*
X59185000Y-91202661D01*
X59212259Y-91304394D01*
X59264920Y-91395606D01*
X59339394Y-91470080D01*
X59430606Y-91522741D01*
X59532339Y-91550000D01*
X59538553Y-91550000D01*
X58859526Y-92229025D01*
X58932513Y-92280132D01*
X58932521Y-92280136D01*
X59138668Y-92376264D01*
X59138682Y-92376269D01*
X59358389Y-92435139D01*
X59358400Y-92435141D01*
X59584998Y-92454966D01*
X59585002Y-92454966D01*
X59811599Y-92435141D01*
X59811610Y-92435139D01*
X60031317Y-92376269D01*
X60031331Y-92376264D01*
X60237478Y-92280136D01*
X60310471Y-92229024D01*
X59631447Y-91550000D01*
X59637661Y-91550000D01*
X59739394Y-91522741D01*
X59830606Y-91470080D01*
X59905080Y-91395606D01*
X59957741Y-91304394D01*
X59985000Y-91202661D01*
X59985000Y-91196447D01*
X60664024Y-91875471D01*
X60715136Y-91802478D01*
X60811264Y-91596331D01*
X60811269Y-91596317D01*
X60870139Y-91376610D01*
X60870141Y-91376599D01*
X60889966Y-91150002D01*
X60889966Y-91149997D01*
X60870141Y-90923400D01*
X60870139Y-90923389D01*
X60811269Y-90703682D01*
X60811264Y-90703668D01*
X60715136Y-90497521D01*
X60715132Y-90497513D01*
X60664025Y-90424526D01*
X59985000Y-91103551D01*
X59985000Y-91097339D01*
X59957741Y-90995606D01*
X59905080Y-90904394D01*
X59830606Y-90829920D01*
X59739394Y-90777259D01*
X59637661Y-90750000D01*
X59631448Y-90750000D01*
X60310472Y-90070974D01*
X60237478Y-90019863D01*
X60031331Y-89923735D01*
X60031317Y-89923730D01*
X59811610Y-89864860D01*
X59811599Y-89864858D01*
X59585002Y-89845034D01*
X59584998Y-89845034D01*
X59358400Y-89864858D01*
X59358389Y-89864860D01*
X59138682Y-89923730D01*
X59138673Y-89923734D01*
X58932516Y-90019866D01*
X58932512Y-90019868D01*
X58859526Y-90070973D01*
X58859526Y-90070974D01*
X59538553Y-90750000D01*
X59532339Y-90750000D01*
X59430606Y-90777259D01*
X59339394Y-90829920D01*
X59264920Y-90904394D01*
X59212259Y-90995606D01*
X59185000Y-91097339D01*
X59185000Y-91103552D01*
X58505974Y-90424526D01*
X58505973Y-90424526D01*
X58454868Y-90497512D01*
X58454866Y-90497516D01*
X58358734Y-90703673D01*
X58358730Y-90703682D01*
X58299860Y-90923389D01*
X58299858Y-90923400D01*
X58280034Y-91149997D01*
X58280034Y-91150002D01*
X51030835Y-91150002D01*
X52941111Y-89239728D01*
X53038657Y-89105468D01*
X53046167Y-89095132D01*
X53127309Y-88935881D01*
X53154463Y-88852309D01*
X53182541Y-88765897D01*
X53202617Y-88639139D01*
X53210500Y-88589370D01*
X53210500Y-86800002D01*
X58175034Y-86800002D01*
X58194858Y-87026599D01*
X58194860Y-87026610D01*
X58253730Y-87246317D01*
X58253735Y-87246331D01*
X58349863Y-87452478D01*
X58400974Y-87525472D01*
X59080000Y-86846446D01*
X59080000Y-86852661D01*
X59107259Y-86954394D01*
X59159920Y-87045606D01*
X59234394Y-87120080D01*
X59325606Y-87172741D01*
X59427339Y-87200000D01*
X59433553Y-87200000D01*
X58754526Y-87879025D01*
X58827513Y-87930132D01*
X58827521Y-87930136D01*
X59033668Y-88026264D01*
X59033682Y-88026269D01*
X59253389Y-88085139D01*
X59253400Y-88085141D01*
X59479998Y-88104966D01*
X59480002Y-88104966D01*
X59706599Y-88085141D01*
X59706610Y-88085139D01*
X59926317Y-88026269D01*
X59926331Y-88026264D01*
X60132478Y-87930136D01*
X60205471Y-87879024D01*
X59526447Y-87200000D01*
X59532661Y-87200000D01*
X59634394Y-87172741D01*
X59725606Y-87120080D01*
X59800080Y-87045606D01*
X59852741Y-86954394D01*
X59880000Y-86852661D01*
X59880000Y-86846447D01*
X60559024Y-87525471D01*
X60610136Y-87452478D01*
X60706264Y-87246331D01*
X60706269Y-87246317D01*
X60765139Y-87026610D01*
X60765141Y-87026599D01*
X60784966Y-86800002D01*
X60784966Y-86799997D01*
X60765141Y-86573400D01*
X60765139Y-86573389D01*
X60706269Y-86353682D01*
X60706264Y-86353668D01*
X60610136Y-86147521D01*
X60610132Y-86147513D01*
X60559025Y-86074526D01*
X59880000Y-86753551D01*
X59880000Y-86747339D01*
X59852741Y-86645606D01*
X59800080Y-86554394D01*
X59725606Y-86479920D01*
X59634394Y-86427259D01*
X59532661Y-86400000D01*
X59526448Y-86400000D01*
X60205472Y-85720974D01*
X60132478Y-85669863D01*
X59926331Y-85573735D01*
X59926317Y-85573730D01*
X59706610Y-85514860D01*
X59706599Y-85514858D01*
X59480002Y-85495034D01*
X59479998Y-85495034D01*
X59253400Y-85514858D01*
X59253389Y-85514860D01*
X59033682Y-85573730D01*
X59033673Y-85573734D01*
X58827516Y-85669866D01*
X58827512Y-85669868D01*
X58754526Y-85720973D01*
X58754526Y-85720974D01*
X59433553Y-86400000D01*
X59427339Y-86400000D01*
X59325606Y-86427259D01*
X59234394Y-86479920D01*
X59159920Y-86554394D01*
X59107259Y-86645606D01*
X59080000Y-86747339D01*
X59080000Y-86753552D01*
X58400974Y-86074526D01*
X58400973Y-86074526D01*
X58349868Y-86147512D01*
X58349866Y-86147516D01*
X58253734Y-86353673D01*
X58253730Y-86353682D01*
X58194860Y-86573389D01*
X58194858Y-86573400D01*
X58175034Y-86799997D01*
X58175034Y-86800002D01*
X53210500Y-86800002D01*
X53210500Y-83956314D01*
X53230185Y-83889275D01*
X53261613Y-83855997D01*
X53322219Y-83811966D01*
X53466966Y-83667219D01*
X53466968Y-83667215D01*
X53466971Y-83667213D01*
X53544616Y-83560342D01*
X53587287Y-83501610D01*
X53680220Y-83319219D01*
X53743477Y-83124534D01*
X53775500Y-82922352D01*
X53775500Y-82717648D01*
X53755023Y-82588365D01*
X53743477Y-82515465D01*
X53680218Y-82320776D01*
X53617112Y-82196925D01*
X53587287Y-82138390D01*
X53579556Y-82127749D01*
X53466971Y-81972786D01*
X53322213Y-81828028D01*
X53156614Y-81707715D01*
X53145111Y-81701854D01*
X53063917Y-81660483D01*
X53013123Y-81612511D01*
X52996328Y-81544690D01*
X53018865Y-81478555D01*
X53063917Y-81439516D01*
X53156610Y-81392287D01*
X53277877Y-81304181D01*
X53343683Y-81280702D01*
X53350762Y-81280500D01*
X59943542Y-81280500D01*
X59962870Y-81276655D01*
X60040188Y-81261275D01*
X60136836Y-81242051D01*
X60190165Y-81219961D01*
X60318914Y-81166632D01*
X60482782Y-81057139D01*
X60622139Y-80917782D01*
X60622140Y-80917779D01*
X60629206Y-80910714D01*
X60629209Y-80910710D01*
X61212778Y-80327141D01*
X61212782Y-80327139D01*
X61352139Y-80187782D01*
X61461632Y-80023914D01*
X61469061Y-80005978D01*
X61532239Y-79853454D01*
X61537049Y-79841840D01*
X61537051Y-79841836D01*
X61557894Y-79737051D01*
X61568367Y-79684400D01*
X61575500Y-79648543D01*
X61575500Y-79155000D01*
X62455800Y-79155000D01*
X62455800Y-79232244D01*
X62462201Y-79291772D01*
X62462203Y-79291779D01*
X62512445Y-79426486D01*
X62512449Y-79426493D01*
X62598609Y-79541587D01*
X62598612Y-79541590D01*
X62713706Y-79627750D01*
X62713713Y-79627754D01*
X62848420Y-79677996D01*
X62848427Y-79677998D01*
X62907955Y-79684399D01*
X62907972Y-79684400D01*
X63455100Y-79684400D01*
X63455100Y-79155000D01*
X63955100Y-79155000D01*
X63955100Y-79684400D01*
X64502228Y-79684400D01*
X64502244Y-79684399D01*
X64561772Y-79677998D01*
X64561779Y-79677996D01*
X64696486Y-79627754D01*
X64696493Y-79627750D01*
X64811587Y-79541590D01*
X64811590Y-79541587D01*
X64897750Y-79426493D01*
X64897754Y-79426486D01*
X64947996Y-79291779D01*
X64947998Y-79291772D01*
X64954399Y-79232244D01*
X64954400Y-79232227D01*
X64954400Y-79155000D01*
X63955100Y-79155000D01*
X63455100Y-79155000D01*
X62455800Y-79155000D01*
X61575500Y-79155000D01*
X61575500Y-78676456D01*
X61544703Y-78521632D01*
X61544703Y-78521631D01*
X61537052Y-78483171D01*
X61537051Y-78483164D01*
X61493400Y-78377781D01*
X61479709Y-78344727D01*
X61461635Y-78301092D01*
X61461628Y-78301079D01*
X61352140Y-78137219D01*
X61352139Y-78137218D01*
X61212782Y-77997861D01*
X61212781Y-77997860D01*
X60452600Y-77237680D01*
X60419116Y-77176358D01*
X60424100Y-77106667D01*
X60452597Y-77062323D01*
X60512139Y-77002782D01*
X60512140Y-77002779D01*
X60519206Y-76995714D01*
X60519209Y-76995710D01*
X62243621Y-75271297D01*
X62304942Y-75237814D01*
X62374634Y-75242798D01*
X62430567Y-75284670D01*
X62454984Y-75350134D01*
X62455300Y-75358978D01*
X62455300Y-75422269D01*
X62455301Y-75422276D01*
X62461708Y-75481883D01*
X62512002Y-75616728D01*
X62512003Y-75616730D01*
X62541168Y-75655690D01*
X62565584Y-75721155D01*
X62550732Y-75789428D01*
X62541168Y-75804310D01*
X62512003Y-75843269D01*
X62512002Y-75843271D01*
X62461710Y-75978113D01*
X62461709Y-75978117D01*
X62455300Y-76037727D01*
X62455300Y-76037734D01*
X62455300Y-76037735D01*
X62455300Y-76692270D01*
X62455301Y-76692276D01*
X62461708Y-76751883D01*
X62512002Y-76886728D01*
X62512003Y-76886730D01*
X62541168Y-76925690D01*
X62565584Y-76991155D01*
X62550732Y-77059428D01*
X62541168Y-77074310D01*
X62512003Y-77113269D01*
X62512002Y-77113271D01*
X62464445Y-77240781D01*
X62461709Y-77248117D01*
X62455300Y-77307727D01*
X62455300Y-77307734D01*
X62455300Y-77307735D01*
X62455300Y-77962270D01*
X62455301Y-77962276D01*
X62461708Y-78021883D01*
X62512002Y-78156728D01*
X62512004Y-78156731D01*
X62541479Y-78196104D01*
X62565897Y-78261568D01*
X62551046Y-78329841D01*
X62541480Y-78344726D01*
X62512449Y-78383506D01*
X62512445Y-78383513D01*
X62462203Y-78518220D01*
X62462201Y-78518227D01*
X62455800Y-78577755D01*
X62455800Y-78655000D01*
X64954400Y-78655000D01*
X64954400Y-78577772D01*
X64954399Y-78577755D01*
X64947998Y-78518227D01*
X64947996Y-78518220D01*
X64897754Y-78383513D01*
X64897750Y-78383506D01*
X64868720Y-78344727D01*
X64844302Y-78279263D01*
X64859153Y-78210990D01*
X64868714Y-78196113D01*
X64898196Y-78156731D01*
X64905474Y-78137219D01*
X64909452Y-78126550D01*
X64948491Y-78021883D01*
X64954900Y-77962273D01*
X64954899Y-77489499D01*
X64974583Y-77422461D01*
X65027387Y-77376706D01*
X65078899Y-77365500D01*
X66273542Y-77365500D01*
X66292870Y-77361655D01*
X66370188Y-77346275D01*
X66466836Y-77327051D01*
X66556941Y-77289728D01*
X66648914Y-77251632D01*
X66812782Y-77142139D01*
X66952139Y-77002782D01*
X66952140Y-77002779D01*
X66959206Y-76995714D01*
X66959209Y-76995710D01*
X68433030Y-75521888D01*
X68494351Y-75488405D01*
X68509894Y-75486044D01*
X68635408Y-75475063D01*
X68863663Y-75413903D01*
X69077830Y-75314035D01*
X69271401Y-75178495D01*
X69438495Y-75011401D01*
X69503925Y-74917956D01*
X69558502Y-74874332D01*
X69628000Y-74867138D01*
X69690355Y-74898661D01*
X69725769Y-74958890D01*
X69729500Y-74989080D01*
X69729500Y-79918297D01*
X69709815Y-79985336D01*
X69693181Y-80005978D01*
X67535718Y-82163440D01*
X67474395Y-82196925D01*
X67444568Y-82199011D01*
X67444568Y-82199500D01*
X67170063Y-82199500D01*
X66903232Y-82239718D01*
X66903226Y-82239720D01*
X66645358Y-82319262D01*
X66402230Y-82436346D01*
X66179258Y-82588365D01*
X65981442Y-82771910D01*
X65813185Y-82982898D01*
X65678258Y-83216599D01*
X65678256Y-83216603D01*
X65579666Y-83467804D01*
X65579664Y-83467811D01*
X65519616Y-83730898D01*
X65499451Y-83999995D01*
X65499451Y-84000004D01*
X65519616Y-84269101D01*
X65579664Y-84532188D01*
X65579666Y-84532195D01*
X65678256Y-84783396D01*
X65678258Y-84783400D01*
X65706770Y-84832784D01*
X65813185Y-85017102D01*
X65899248Y-85125021D01*
X65981442Y-85228089D01*
X66165448Y-85398820D01*
X66179259Y-85411635D01*
X66402226Y-85563651D01*
X66402229Y-85563652D01*
X66402230Y-85563653D01*
X66423166Y-85573735D01*
X66645359Y-85680738D01*
X66903228Y-85760280D01*
X66903229Y-85760280D01*
X66903232Y-85760281D01*
X67170063Y-85800499D01*
X67170068Y-85800499D01*
X67170071Y-85800500D01*
X67170072Y-85800500D01*
X67444569Y-85800500D01*
X67444569Y-85801836D01*
X67507059Y-85815187D01*
X67535718Y-85836558D01*
X68275233Y-86576073D01*
X68687480Y-86988319D01*
X68720965Y-87049642D01*
X68715981Y-87119334D01*
X68674109Y-87175267D01*
X68608645Y-87199684D01*
X68599799Y-87200000D01*
X67555000Y-87200000D01*
X67555000Y-88399998D01*
X67494598Y-88374979D01*
X67369019Y-88350000D01*
X67240981Y-88350000D01*
X67115402Y-88374979D01*
X67055000Y-88399998D01*
X67055000Y-87200000D01*
X65957155Y-87200000D01*
X65897627Y-87206401D01*
X65897620Y-87206403D01*
X65762913Y-87256645D01*
X65762906Y-87256649D01*
X65647812Y-87342809D01*
X65647809Y-87342812D01*
X65561649Y-87457906D01*
X65561645Y-87457913D01*
X65511403Y-87592620D01*
X65511401Y-87592627D01*
X65505000Y-87652155D01*
X65505000Y-88750000D01*
X66704999Y-88750000D01*
X66679979Y-88810402D01*
X66655000Y-88935981D01*
X66655000Y-89064019D01*
X66679979Y-89189598D01*
X66704999Y-89250000D01*
X65505000Y-89250000D01*
X65505000Y-90347844D01*
X65511401Y-90407372D01*
X65511403Y-90407379D01*
X65561645Y-90542086D01*
X65561649Y-90542093D01*
X65647809Y-90657187D01*
X65647812Y-90657190D01*
X65762906Y-90743350D01*
X65762913Y-90743354D01*
X65897620Y-90793596D01*
X65897627Y-90793598D01*
X65957155Y-90799999D01*
X65957172Y-90800000D01*
X67055000Y-90800000D01*
X67055000Y-89600001D01*
X67115402Y-89625021D01*
X67240981Y-89650000D01*
X67369019Y-89650000D01*
X67494598Y-89625021D01*
X67555000Y-89600001D01*
X67555000Y-90800000D01*
X67794798Y-90800000D01*
X67861837Y-90819685D01*
X67907592Y-90872489D01*
X67917536Y-90941647D01*
X67888511Y-91005203D01*
X67882479Y-91011681D01*
X63915980Y-94978181D01*
X63854657Y-95011666D01*
X63828299Y-95014500D01*
X57108380Y-95014500D01*
X57041341Y-94994815D01*
X57034069Y-94989766D01*
X56922448Y-94906206D01*
X56922441Y-94906202D01*
X56787595Y-94855908D01*
X56787596Y-94855908D01*
X56727996Y-94849501D01*
X56727994Y-94849500D01*
X56727986Y-94849500D01*
X56727977Y-94849500D01*
X55032242Y-94849500D01*
X55032236Y-94849501D01*
X54972629Y-94855908D01*
X54837784Y-94906202D01*
X54837777Y-94906206D01*
X54722568Y-94992452D01*
X54722565Y-94992455D01*
X54636319Y-95107664D01*
X54636315Y-95107671D01*
X54586021Y-95242517D01*
X54579614Y-95302116D01*
X54579435Y-95305452D01*
X54577960Y-95305372D01*
X54559928Y-95366784D01*
X54507124Y-95412539D01*
X54463635Y-95420029D01*
X53780113Y-96103552D01*
X53780113Y-96097339D01*
X53752854Y-95995606D01*
X53700193Y-95904394D01*
X53625719Y-95829920D01*
X53534507Y-95777259D01*
X53432774Y-95750000D01*
X53426561Y-95750000D01*
X54105585Y-95070974D01*
X54032591Y-95019863D01*
X53826444Y-94923735D01*
X53826430Y-94923730D01*
X53606723Y-94864860D01*
X53606712Y-94864858D01*
X53380115Y-94845034D01*
X53380111Y-94845034D01*
X53153513Y-94864858D01*
X53153502Y-94864860D01*
X52933795Y-94923730D01*
X52933786Y-94923734D01*
X52727629Y-95019866D01*
X52727625Y-95019868D01*
X52654639Y-95070973D01*
X52654639Y-95070974D01*
X53333666Y-95750000D01*
X53327452Y-95750000D01*
X53225719Y-95777259D01*
X53134507Y-95829920D01*
X53060033Y-95904394D01*
X53007372Y-95995606D01*
X52980113Y-96097339D01*
X52980113Y-96103552D01*
X52301087Y-95424526D01*
X52301086Y-95424526D01*
X52249981Y-95497512D01*
X52249979Y-95497516D01*
X52153847Y-95703673D01*
X52153843Y-95703682D01*
X52094973Y-95923389D01*
X52094971Y-95923400D01*
X52075147Y-96149997D01*
X52075147Y-96150002D01*
X52094971Y-96376599D01*
X52094973Y-96376610D01*
X52153843Y-96596317D01*
X52153848Y-96596331D01*
X52249976Y-96802478D01*
X52301087Y-96875472D01*
X52980113Y-96196446D01*
X52980113Y-96202661D01*
X53007372Y-96304394D01*
X53060033Y-96395606D01*
X53134507Y-96470080D01*
X53225719Y-96522741D01*
X53327452Y-96550000D01*
X53333666Y-96550000D01*
X52654639Y-97229025D01*
X52727626Y-97280132D01*
X52727634Y-97280136D01*
X52851184Y-97337748D01*
X52903624Y-97383920D01*
X52922776Y-97451113D01*
X52902561Y-97517994D01*
X52886461Y-97537811D01*
X52231093Y-98193181D01*
X52169770Y-98226666D01*
X52143412Y-98229500D01*
X48037002Y-98229500D01*
X47969963Y-98209815D01*
X47924208Y-98157011D01*
X47914264Y-98087853D01*
X47916669Y-98075566D01*
X47917102Y-98073824D01*
X47920000Y-98031096D01*
X47920000Y-97580000D01*
X46544000Y-97580000D01*
X46476961Y-97560315D01*
X46431206Y-97507511D01*
X46420000Y-97456000D01*
X46420000Y-95830000D01*
X46920000Y-95830000D01*
X46920000Y-97080000D01*
X47920000Y-97080000D01*
X47920000Y-96628903D01*
X47917102Y-96586175D01*
X47871168Y-96401476D01*
X47786609Y-96230977D01*
X47786607Y-96230974D01*
X47667367Y-96082633D01*
X47667366Y-96082632D01*
X47519025Y-95963392D01*
X47519022Y-95963390D01*
X47348523Y-95878831D01*
X47163824Y-95832897D01*
X47121097Y-95830000D01*
X46920000Y-95830000D01*
X46420000Y-95830000D01*
X46218903Y-95830000D01*
X46176175Y-95832897D01*
X45991476Y-95878831D01*
X45820977Y-95963390D01*
X45820974Y-95963392D01*
X45672635Y-96082631D01*
X45616967Y-96151885D01*
X45559624Y-96191803D01*
X45489801Y-96194383D01*
X45429669Y-96158804D01*
X45423673Y-96151884D01*
X45367722Y-96082278D01*
X45367721Y-96082277D01*
X45219295Y-95962969D01*
X45219292Y-95962967D01*
X45048697Y-95878360D01*
X44863892Y-95832400D01*
X44842506Y-95830950D01*
X44821123Y-95829500D01*
X44821120Y-95829500D01*
X43918877Y-95829500D01*
X43918874Y-95829501D01*
X43876113Y-95832399D01*
X43876112Y-95832399D01*
X43691303Y-95878360D01*
X43520707Y-95962967D01*
X43520704Y-95962969D01*
X43372278Y-96082277D01*
X43372277Y-96082278D01*
X43316647Y-96151486D01*
X43259304Y-96191405D01*
X43189482Y-96193985D01*
X43129349Y-96158406D01*
X43123353Y-96151486D01*
X43067722Y-96082278D01*
X43067721Y-96082277D01*
X42919295Y-95962969D01*
X42919292Y-95962967D01*
X42748697Y-95878360D01*
X42563892Y-95832400D01*
X42542506Y-95830950D01*
X42521123Y-95829500D01*
X42521120Y-95829500D01*
X41618877Y-95829500D01*
X41618874Y-95829501D01*
X41576113Y-95832399D01*
X41576112Y-95832399D01*
X41391303Y-95878360D01*
X41220707Y-95962967D01*
X41220704Y-95962969D01*
X41072278Y-96082277D01*
X41072277Y-96082278D01*
X41019299Y-96148187D01*
X40961956Y-96188106D01*
X40922652Y-96194500D01*
X31776702Y-96194500D01*
X31709663Y-96174815D01*
X31689021Y-96158181D01*
X30375874Y-94845034D01*
X27003073Y-91472234D01*
X26969589Y-91410912D01*
X26974573Y-91341220D01*
X27016445Y-91285287D01*
X27081909Y-91260870D01*
X27109234Y-91261938D01*
X27214114Y-91277747D01*
X27365063Y-91300499D01*
X27365068Y-91300499D01*
X27365071Y-91300500D01*
X27365072Y-91300500D01*
X27634928Y-91300500D01*
X27634929Y-91300500D01*
X27634936Y-91300499D01*
X27901767Y-91260281D01*
X27901768Y-91260280D01*
X27901772Y-91260280D01*
X28159641Y-91180738D01*
X28402775Y-91063651D01*
X28625741Y-90911635D01*
X28779259Y-90769190D01*
X28823557Y-90728089D01*
X28823557Y-90728087D01*
X28823561Y-90728085D01*
X28860163Y-90682186D01*
X28917352Y-90642047D01*
X28957110Y-90635500D01*
X33789370Y-90635500D01*
X33867824Y-90623073D01*
X33965897Y-90607541D01*
X34094193Y-90565853D01*
X34135881Y-90552309D01*
X34295132Y-90471167D01*
X34439728Y-90366111D01*
X34566111Y-90239728D01*
X35730938Y-89074899D01*
X35786521Y-89042808D01*
X35846496Y-89026739D01*
X36052734Y-88930568D01*
X36239139Y-88800047D01*
X36400047Y-88639139D01*
X36530568Y-88452734D01*
X36626739Y-88246496D01*
X36685635Y-88026692D01*
X36705468Y-87800000D01*
X36685635Y-87573308D01*
X36626739Y-87353504D01*
X36530568Y-87147266D01*
X36400047Y-86960861D01*
X36400045Y-86960858D01*
X36239141Y-86799954D01*
X36052734Y-86669432D01*
X36052732Y-86669431D01*
X35846497Y-86573261D01*
X35846488Y-86573258D01*
X35626697Y-86514366D01*
X35626693Y-86514365D01*
X35626692Y-86514365D01*
X35626691Y-86514364D01*
X35626686Y-86514364D01*
X35400002Y-86494532D01*
X35399998Y-86494532D01*
X35173313Y-86514364D01*
X35173302Y-86514366D01*
X34953511Y-86573258D01*
X34953502Y-86573261D01*
X34747267Y-86669431D01*
X34747265Y-86669432D01*
X34560858Y-86799954D01*
X34399954Y-86960858D01*
X34269432Y-87147265D01*
X34269431Y-87147267D01*
X34173260Y-87353504D01*
X34157190Y-87413477D01*
X34125097Y-87469062D01*
X33265980Y-88328181D01*
X33204657Y-88361666D01*
X33178299Y-88364500D01*
X28957110Y-88364500D01*
X28890071Y-88344815D01*
X28860163Y-88317813D01*
X28823557Y-88271910D01*
X28625741Y-88088365D01*
X28592907Y-88065979D01*
X28402775Y-87936349D01*
X28402769Y-87936346D01*
X28402768Y-87936345D01*
X28402767Y-87936344D01*
X28159643Y-87819263D01*
X28159645Y-87819263D01*
X27901773Y-87739720D01*
X27901767Y-87739718D01*
X27634936Y-87699500D01*
X27634929Y-87699500D01*
X27365071Y-87699500D01*
X27365063Y-87699500D01*
X27098232Y-87739718D01*
X27098226Y-87739720D01*
X26840358Y-87819262D01*
X26597230Y-87936346D01*
X26374258Y-88088365D01*
X26176442Y-88271910D01*
X26008185Y-88482898D01*
X25873258Y-88716599D01*
X25873256Y-88716603D01*
X25774666Y-88967804D01*
X25774664Y-88967811D01*
X25714616Y-89230898D01*
X25694451Y-89499995D01*
X25694451Y-89500004D01*
X25714616Y-89769101D01*
X25714616Y-89769103D01*
X25741478Y-89886794D01*
X25737205Y-89956533D01*
X25695906Y-90012890D01*
X25630694Y-90037973D01*
X25562273Y-90023818D01*
X25532906Y-90002067D01*
X25180839Y-89650000D01*
X24451819Y-88920979D01*
X24418334Y-88859656D01*
X24415500Y-88833298D01*
X24415500Y-85847844D01*
X25700000Y-85847844D01*
X25706401Y-85907372D01*
X25706403Y-85907379D01*
X25756645Y-86042086D01*
X25756649Y-86042093D01*
X25842809Y-86157187D01*
X25842812Y-86157190D01*
X25957906Y-86243350D01*
X25957913Y-86243354D01*
X26092620Y-86293596D01*
X26092627Y-86293598D01*
X26152155Y-86299999D01*
X26152172Y-86300000D01*
X27250000Y-86300000D01*
X27250000Y-85100001D01*
X27310402Y-85125021D01*
X27435981Y-85150000D01*
X27564019Y-85150000D01*
X27689598Y-85125021D01*
X27750000Y-85100001D01*
X27750000Y-86300000D01*
X28847828Y-86300000D01*
X28847844Y-86299999D01*
X28907372Y-86293598D01*
X28907379Y-86293596D01*
X29042086Y-86243354D01*
X29042093Y-86243350D01*
X29157187Y-86157190D01*
X29157190Y-86157187D01*
X29243350Y-86042093D01*
X29243354Y-86042086D01*
X29293596Y-85907379D01*
X29293598Y-85907372D01*
X29299999Y-85847844D01*
X29300000Y-85847827D01*
X29300000Y-84750000D01*
X28100001Y-84750000D01*
X28125021Y-84689598D01*
X28150000Y-84564019D01*
X28150000Y-84435981D01*
X28125021Y-84310402D01*
X28124854Y-84309999D01*
X36721127Y-84309999D01*
X36721128Y-84310000D01*
X37684314Y-84310000D01*
X37679920Y-84314394D01*
X37627259Y-84405606D01*
X37600000Y-84507339D01*
X37600000Y-84612661D01*
X37627259Y-84714394D01*
X37679920Y-84805606D01*
X37684314Y-84810000D01*
X36721128Y-84810000D01*
X36773730Y-85006317D01*
X36773734Y-85006326D01*
X36869865Y-85212482D01*
X37000342Y-85398820D01*
X37161179Y-85559657D01*
X37347517Y-85690134D01*
X37553673Y-85786265D01*
X37553682Y-85786269D01*
X37749999Y-85838872D01*
X37750000Y-85838871D01*
X37750000Y-84875686D01*
X37754394Y-84880080D01*
X37845606Y-84932741D01*
X37947339Y-84960000D01*
X38052661Y-84960000D01*
X38154394Y-84932741D01*
X38245606Y-84880080D01*
X38250000Y-84875686D01*
X38250000Y-85838872D01*
X38446317Y-85786269D01*
X38446326Y-85786265D01*
X38652482Y-85690134D01*
X38838820Y-85559657D01*
X38999657Y-85398820D01*
X39130134Y-85212482D01*
X39226265Y-85006326D01*
X39226269Y-85006317D01*
X39278872Y-84810000D01*
X38315686Y-84810000D01*
X38320080Y-84805606D01*
X38372741Y-84714394D01*
X38400000Y-84612661D01*
X38400000Y-84507339D01*
X38372741Y-84405606D01*
X38320080Y-84314394D01*
X38315686Y-84310000D01*
X39278872Y-84310000D01*
X39278872Y-84309999D01*
X39226269Y-84113682D01*
X39226265Y-84113673D01*
X39130134Y-83907517D01*
X38999657Y-83721179D01*
X38838820Y-83560342D01*
X38652482Y-83429865D01*
X38446328Y-83333734D01*
X38250000Y-83281127D01*
X38250000Y-84244314D01*
X38245606Y-84239920D01*
X38154394Y-84187259D01*
X38052661Y-84160000D01*
X37947339Y-84160000D01*
X37845606Y-84187259D01*
X37754394Y-84239920D01*
X37750000Y-84244314D01*
X37750000Y-83281127D01*
X37553671Y-83333734D01*
X37347517Y-83429865D01*
X37161179Y-83560342D01*
X37000342Y-83721179D01*
X36869865Y-83907517D01*
X36773734Y-84113673D01*
X36773730Y-84113682D01*
X36721127Y-84309999D01*
X28124854Y-84309999D01*
X28100001Y-84250000D01*
X29300000Y-84250000D01*
X29300000Y-83152172D01*
X29299999Y-83152155D01*
X29293598Y-83092627D01*
X29293596Y-83092620D01*
X29243354Y-82957913D01*
X29243350Y-82957906D01*
X29157190Y-82842812D01*
X29157187Y-82842809D01*
X29042093Y-82756649D01*
X29042086Y-82756645D01*
X28907379Y-82706403D01*
X28907372Y-82706401D01*
X28847844Y-82700000D01*
X27750000Y-82700000D01*
X27750000Y-83899998D01*
X27689598Y-83874979D01*
X27564019Y-83850000D01*
X27435981Y-83850000D01*
X27310402Y-83874979D01*
X27250000Y-83899998D01*
X27250000Y-82700000D01*
X26152155Y-82700000D01*
X26092627Y-82706401D01*
X26092620Y-82706403D01*
X25957913Y-82756645D01*
X25957906Y-82756649D01*
X25842812Y-82842809D01*
X25842809Y-82842812D01*
X25756649Y-82957906D01*
X25756645Y-82957913D01*
X25706403Y-83092620D01*
X25706401Y-83092627D01*
X25700000Y-83152155D01*
X25700000Y-84250000D01*
X26899999Y-84250000D01*
X26874979Y-84310402D01*
X26850000Y-84435981D01*
X26850000Y-84564019D01*
X26874979Y-84689598D01*
X26899999Y-84750000D01*
X25700000Y-84750000D01*
X25700000Y-85847844D01*
X24415500Y-85847844D01*
X24415500Y-77924136D01*
X24435185Y-77857097D01*
X24487989Y-77811342D01*
X24557147Y-77801398D01*
X24571582Y-77804358D01*
X24688308Y-77835635D01*
X24850230Y-77849801D01*
X24914998Y-77855468D01*
X24915000Y-77855468D01*
X24915002Y-77855468D01*
X24971673Y-77850509D01*
X25141692Y-77835635D01*
X25361496Y-77776739D01*
X25567734Y-77680568D01*
X25754139Y-77550047D01*
X25915047Y-77389139D01*
X26045568Y-77202734D01*
X26141739Y-76996496D01*
X26200635Y-76776692D01*
X26219569Y-76560272D01*
X26220468Y-76550001D01*
X33769532Y-76550001D01*
X33789364Y-76776686D01*
X33789366Y-76776697D01*
X33848258Y-76996488D01*
X33848261Y-76996497D01*
X33944431Y-77202732D01*
X33944432Y-77202734D01*
X34074954Y-77389141D01*
X34235858Y-77550045D01*
X34235861Y-77550047D01*
X34422266Y-77680568D01*
X34628504Y-77776739D01*
X34848308Y-77835635D01*
X35010230Y-77849801D01*
X35074998Y-77855468D01*
X35075000Y-77855468D01*
X35075002Y-77855468D01*
X35131673Y-77850509D01*
X35301692Y-77835635D01*
X35521496Y-77776739D01*
X35692242Y-77697117D01*
X35744647Y-77685500D01*
X36453299Y-77685500D01*
X36520338Y-77705185D01*
X36540980Y-77721819D01*
X37133889Y-78314728D01*
X39838889Y-81019728D01*
X39965272Y-81146111D01*
X39993517Y-81166632D01*
X40109869Y-81251168D01*
X40167834Y-81280702D01*
X40269119Y-81332309D01*
X40310802Y-81345851D01*
X40310804Y-81345853D01*
X40310805Y-81345853D01*
X40342880Y-81356275D01*
X40439103Y-81387541D01*
X40514759Y-81399523D01*
X40615630Y-81415500D01*
X40615634Y-81415500D01*
X40849178Y-81415500D01*
X40905475Y-81429016D01*
X40926631Y-81439796D01*
X40977426Y-81487771D01*
X40994220Y-81555593D01*
X40971681Y-81621727D01*
X40926629Y-81660765D01*
X40833650Y-81708140D01*
X40668105Y-81828417D01*
X40668104Y-81828417D01*
X40523417Y-81973104D01*
X40523417Y-81973105D01*
X40403140Y-82138650D01*
X40310244Y-82320970D01*
X40247009Y-82515586D01*
X40238391Y-82570000D01*
X41599314Y-82570000D01*
X41594920Y-82574394D01*
X41542259Y-82665606D01*
X41515000Y-82767339D01*
X41515000Y-82872661D01*
X41542259Y-82974394D01*
X41594920Y-83065606D01*
X41599314Y-83070000D01*
X40238391Y-83070000D01*
X40247009Y-83124413D01*
X40310244Y-83319029D01*
X40403140Y-83501349D01*
X40523417Y-83666894D01*
X40523417Y-83666895D01*
X40668104Y-83811582D01*
X40833650Y-83931859D01*
X41015968Y-84024755D01*
X41210582Y-84087990D01*
X41412683Y-84120000D01*
X41665000Y-84120000D01*
X41665000Y-83135686D01*
X41669394Y-83140080D01*
X41760606Y-83192741D01*
X41862339Y-83220000D01*
X41967661Y-83220000D01*
X42069394Y-83192741D01*
X42160606Y-83140080D01*
X42165000Y-83135686D01*
X42165000Y-84120000D01*
X42417317Y-84120000D01*
X42619417Y-84087990D01*
X42814031Y-84024755D01*
X42996349Y-83931859D01*
X43161894Y-83811582D01*
X43161895Y-83811582D01*
X43306582Y-83666895D01*
X43306582Y-83666894D01*
X43426859Y-83501349D01*
X43519755Y-83319029D01*
X43582990Y-83124413D01*
X43591609Y-83070000D01*
X42230686Y-83070000D01*
X42235080Y-83065606D01*
X42287741Y-82974394D01*
X42315000Y-82872661D01*
X42315000Y-82767339D01*
X42287741Y-82665606D01*
X42235080Y-82574394D01*
X42230686Y-82570000D01*
X43591609Y-82570000D01*
X43582990Y-82515586D01*
X43519755Y-82320970D01*
X43426859Y-82138650D01*
X43306582Y-81973105D01*
X43306582Y-81973104D01*
X43161895Y-81828417D01*
X42996349Y-81708140D01*
X42903370Y-81660765D01*
X42852574Y-81612790D01*
X42835779Y-81544969D01*
X42858316Y-81478835D01*
X42903370Y-81439795D01*
X42924525Y-81429016D01*
X42996610Y-81392287D01*
X43017770Y-81376913D01*
X43162213Y-81271971D01*
X43162215Y-81271968D01*
X43162219Y-81271966D01*
X43306966Y-81127219D01*
X43306968Y-81127215D01*
X43306971Y-81127213D01*
X43385062Y-81019728D01*
X43427287Y-80961610D01*
X43520220Y-80779219D01*
X43583477Y-80584534D01*
X43615500Y-80382352D01*
X43615500Y-80177648D01*
X43583477Y-79975465D01*
X43543833Y-79853454D01*
X43520220Y-79780781D01*
X43520218Y-79780778D01*
X43520218Y-79780776D01*
X43452840Y-79648541D01*
X43427287Y-79598390D01*
X43386018Y-79541587D01*
X43306971Y-79432786D01*
X43162213Y-79288028D01*
X42996614Y-79167715D01*
X42951052Y-79144500D01*
X42903917Y-79120483D01*
X42853123Y-79072511D01*
X42836328Y-79004690D01*
X42858865Y-78938555D01*
X42903917Y-78899516D01*
X42996610Y-78852287D01*
X43017770Y-78836913D01*
X43162213Y-78731971D01*
X43162215Y-78731968D01*
X43162219Y-78731966D01*
X43306966Y-78587219D01*
X43306968Y-78587215D01*
X43306971Y-78587213D01*
X43359732Y-78514590D01*
X43427287Y-78421610D01*
X43520220Y-78239219D01*
X43583477Y-78044534D01*
X43615500Y-77842352D01*
X43615500Y-77637648D01*
X43583477Y-77435466D01*
X43579251Y-77422461D01*
X43548251Y-77327051D01*
X43520220Y-77240781D01*
X43520218Y-77240778D01*
X43520218Y-77240776D01*
X43469959Y-77142139D01*
X43427287Y-77058390D01*
X43384865Y-77000000D01*
X43306971Y-76892786D01*
X43162219Y-76748034D01*
X43125930Y-76721669D01*
X43083264Y-76666339D01*
X43077285Y-76596726D01*
X43109890Y-76534931D01*
X43170728Y-76500573D01*
X43185562Y-76498060D01*
X43222483Y-76494091D01*
X43357328Y-76443797D01*
X43357327Y-76443797D01*
X43357331Y-76443796D01*
X43472546Y-76357546D01*
X43558796Y-76242331D01*
X43609091Y-76107483D01*
X43615500Y-76047873D01*
X43615499Y-74352128D01*
X43609091Y-74292517D01*
X43558796Y-74157669D01*
X43558795Y-74157668D01*
X43558793Y-74157664D01*
X43472547Y-74042455D01*
X43472544Y-74042452D01*
X43357335Y-73956206D01*
X43357328Y-73956202D01*
X43222483Y-73905908D01*
X43161243Y-73899324D01*
X43096692Y-73872585D01*
X43056845Y-73815192D01*
X43050500Y-73776035D01*
X43050500Y-71745634D01*
X43043041Y-71698541D01*
X43043041Y-71698540D01*
X43022541Y-71569103D01*
X42976270Y-71426697D01*
X42967310Y-71399120D01*
X42967308Y-71399117D01*
X42967308Y-71399115D01*
X42901843Y-71270634D01*
X42886166Y-71239867D01*
X42868027Y-71214901D01*
X42781111Y-71095272D01*
X42654728Y-70968889D01*
X42554901Y-70869062D01*
X42522807Y-70813472D01*
X42506743Y-70753516D01*
X42506738Y-70753502D01*
X42495127Y-70728603D01*
X42410568Y-70547266D01*
X42309420Y-70402810D01*
X42280045Y-70360858D01*
X42119141Y-70199954D01*
X41932734Y-70069432D01*
X41932732Y-70069431D01*
X41726497Y-69973261D01*
X41726488Y-69973258D01*
X41506697Y-69914366D01*
X41506693Y-69914365D01*
X41506692Y-69914365D01*
X41506691Y-69914364D01*
X41506686Y-69914364D01*
X41280002Y-69894532D01*
X41279998Y-69894532D01*
X41053313Y-69914364D01*
X41053302Y-69914366D01*
X40833511Y-69973258D01*
X40833502Y-69973261D01*
X40627267Y-70069431D01*
X40627265Y-70069432D01*
X40440858Y-70199954D01*
X40279954Y-70360858D01*
X40149432Y-70547265D01*
X40149431Y-70547267D01*
X40053261Y-70753502D01*
X40053258Y-70753511D01*
X39994366Y-70973302D01*
X39994364Y-70973313D01*
X39974532Y-71199998D01*
X39974532Y-71200001D01*
X39994364Y-71426686D01*
X39994366Y-71426697D01*
X40053258Y-71646488D01*
X40053261Y-71646497D01*
X40149431Y-71852732D01*
X40149432Y-71852734D01*
X40279954Y-72039141D01*
X40440858Y-72200045D01*
X40440861Y-72200047D01*
X40627266Y-72330568D01*
X40687512Y-72358661D01*
X40707904Y-72368170D01*
X40760344Y-72414342D01*
X40779500Y-72480552D01*
X40779500Y-73776036D01*
X40759815Y-73843075D01*
X40707011Y-73888830D01*
X40668754Y-73899326D01*
X40607516Y-73905909D01*
X40472671Y-73956202D01*
X40472664Y-73956206D01*
X40357455Y-74042452D01*
X40357452Y-74042455D01*
X40271206Y-74157664D01*
X40271202Y-74157671D01*
X40220908Y-74292517D01*
X40214501Y-74352116D01*
X40214501Y-74352123D01*
X40214500Y-74352135D01*
X40214500Y-76047870D01*
X40214501Y-76047876D01*
X40220908Y-76107483D01*
X40271202Y-76242328D01*
X40271206Y-76242335D01*
X40357452Y-76357544D01*
X40357455Y-76357547D01*
X40472664Y-76443793D01*
X40472671Y-76443797D01*
X40607517Y-76494091D01*
X40607515Y-76494091D01*
X40644440Y-76498061D01*
X40708991Y-76524799D01*
X40748839Y-76582191D01*
X40751332Y-76652017D01*
X40715679Y-76712105D01*
X40704070Y-76721668D01*
X40667782Y-76748032D01*
X40523028Y-76892786D01*
X40402715Y-77058386D01*
X40309781Y-77240776D01*
X40246522Y-77435465D01*
X40214500Y-77637648D01*
X40214500Y-77842352D01*
X40219031Y-77870959D01*
X40210076Y-77940253D01*
X40165080Y-77993705D01*
X40098328Y-78014344D01*
X40031015Y-77995619D01*
X40008877Y-77978038D01*
X39171819Y-77140980D01*
X39138334Y-77079657D01*
X39135500Y-77053299D01*
X39135500Y-75069647D01*
X39147118Y-75017242D01*
X39193416Y-74917957D01*
X39226739Y-74846496D01*
X39285635Y-74626692D01*
X39305468Y-74400000D01*
X39285635Y-74173308D01*
X39227463Y-73956206D01*
X39226741Y-73953511D01*
X39226738Y-73953502D01*
X39201474Y-73899324D01*
X39130568Y-73747266D01*
X39000047Y-73560861D01*
X39000045Y-73560858D01*
X38839141Y-73399954D01*
X38652734Y-73269432D01*
X38652732Y-73269431D01*
X38446497Y-73173261D01*
X38446488Y-73173258D01*
X38226697Y-73114366D01*
X38226693Y-73114365D01*
X38226692Y-73114365D01*
X38226691Y-73114364D01*
X38226686Y-73114364D01*
X38000002Y-73094532D01*
X37999998Y-73094532D01*
X37773313Y-73114364D01*
X37773302Y-73114366D01*
X37553511Y-73173258D01*
X37553502Y-73173261D01*
X37347267Y-73269431D01*
X37347265Y-73269432D01*
X37160858Y-73399954D01*
X36999954Y-73560858D01*
X36869432Y-73747265D01*
X36869431Y-73747267D01*
X36773261Y-73953502D01*
X36773258Y-73953511D01*
X36714366Y-74173302D01*
X36714364Y-74173313D01*
X36694532Y-74399998D01*
X36694532Y-74400001D01*
X36714364Y-74626686D01*
X36714366Y-74626697D01*
X36773258Y-74846488D01*
X36773261Y-74846497D01*
X36852882Y-75017242D01*
X36864500Y-75069647D01*
X36864500Y-75290500D01*
X36844815Y-75357539D01*
X36792011Y-75403294D01*
X36740500Y-75414500D01*
X35744647Y-75414500D01*
X35692242Y-75402882D01*
X35521497Y-75323261D01*
X35521488Y-75323258D01*
X35301697Y-75264366D01*
X35301693Y-75264365D01*
X35301692Y-75264365D01*
X35301691Y-75264364D01*
X35301686Y-75264364D01*
X35075002Y-75244532D01*
X35074998Y-75244532D01*
X34848313Y-75264364D01*
X34848302Y-75264366D01*
X34628511Y-75323258D01*
X34628502Y-75323261D01*
X34422267Y-75419431D01*
X34422265Y-75419432D01*
X34235858Y-75549954D01*
X34074954Y-75710858D01*
X33944432Y-75897265D01*
X33944431Y-75897267D01*
X33848261Y-76103502D01*
X33848258Y-76103511D01*
X33789366Y-76323302D01*
X33789364Y-76323313D01*
X33769532Y-76549998D01*
X33769532Y-76550001D01*
X26220468Y-76550001D01*
X26220468Y-76549998D01*
X26211176Y-76443793D01*
X26200635Y-76323308D01*
X26141739Y-76103504D01*
X26062118Y-75932756D01*
X26050500Y-75880351D01*
X26050500Y-72674050D01*
X26070185Y-72607011D01*
X26122989Y-72561256D01*
X26192147Y-72551312D01*
X26255703Y-72580337D01*
X26262181Y-72586369D01*
X26328917Y-72653105D01*
X26522421Y-72788600D01*
X26736507Y-72888429D01*
X26736516Y-72888433D01*
X26950000Y-72945634D01*
X26950000Y-72048012D01*
X27007007Y-72080925D01*
X27134174Y-72115000D01*
X27265826Y-72115000D01*
X27392993Y-72080925D01*
X27450000Y-72048012D01*
X27450000Y-72945633D01*
X27663483Y-72888433D01*
X27663492Y-72888429D01*
X27877578Y-72788600D01*
X28071082Y-72653105D01*
X28238105Y-72486082D01*
X28373600Y-72292578D01*
X28473429Y-72078492D01*
X28473432Y-72078486D01*
X28530636Y-71865000D01*
X27633012Y-71865000D01*
X27665925Y-71807993D01*
X27700000Y-71680826D01*
X27700000Y-71549174D01*
X27665925Y-71422007D01*
X27633012Y-71365000D01*
X28530636Y-71365000D01*
X28530635Y-71364999D01*
X28473432Y-71151513D01*
X28473429Y-71151507D01*
X28373600Y-70937422D01*
X28373599Y-70937420D01*
X28238113Y-70743926D01*
X28238108Y-70743920D01*
X28071078Y-70576890D01*
X27885405Y-70446879D01*
X27841780Y-70392302D01*
X27834588Y-70322804D01*
X27866110Y-70260449D01*
X27885406Y-70243730D01*
X28071401Y-70113495D01*
X28238495Y-69946401D01*
X28374035Y-69752830D01*
X28473903Y-69538663D01*
X28535063Y-69310408D01*
X28555659Y-69075000D01*
X28535063Y-68839592D01*
X28473903Y-68611337D01*
X28374035Y-68397171D01*
X28327104Y-68330147D01*
X28238496Y-68203600D01*
X28182585Y-68147689D01*
X28116567Y-68081671D01*
X28083084Y-68020351D01*
X28088068Y-67950659D01*
X28129939Y-67894725D01*
X28160915Y-67877810D01*
X28292331Y-67828796D01*
X28407546Y-67742546D01*
X28493796Y-67627331D01*
X28544091Y-67492483D01*
X28550500Y-67432873D01*
X28550499Y-65637128D01*
X28544091Y-65577517D01*
X28498821Y-65456143D01*
X28493797Y-65442671D01*
X28493793Y-65442664D01*
X28407547Y-65327455D01*
X28407544Y-65327452D01*
X28292335Y-65241206D01*
X28292328Y-65241202D01*
X28157482Y-65190908D01*
X28157483Y-65190908D01*
X28097883Y-65184501D01*
X28097881Y-65184500D01*
X28097873Y-65184500D01*
X28097864Y-65184500D01*
X26302129Y-65184500D01*
X26302123Y-65184501D01*
X26242516Y-65190908D01*
X26107671Y-65241202D01*
X26107664Y-65241206D01*
X25992455Y-65327452D01*
X25992452Y-65327455D01*
X25906206Y-65442664D01*
X25906202Y-65442671D01*
X25855908Y-65577517D01*
X25850561Y-65627259D01*
X25849501Y-65637123D01*
X25849500Y-65637135D01*
X25849500Y-66228297D01*
X25829815Y-66295336D01*
X25813181Y-66315978D01*
X22712181Y-69416979D01*
X22650858Y-69450464D01*
X22581166Y-69445480D01*
X22525233Y-69403608D01*
X22500816Y-69338144D01*
X22500500Y-69329298D01*
X22500500Y-58621288D01*
X23149500Y-58621288D01*
X23181161Y-58861785D01*
X23243947Y-59096104D01*
X23297917Y-59226399D01*
X23336776Y-59320212D01*
X23458064Y-59530289D01*
X23458066Y-59530292D01*
X23458067Y-59530293D01*
X23605733Y-59722736D01*
X23605739Y-59722743D01*
X23777256Y-59894260D01*
X23777263Y-59894266D01*
X23832091Y-59936337D01*
X23969711Y-60041936D01*
X24179788Y-60163224D01*
X24403900Y-60256054D01*
X24638211Y-60318838D01*
X24818586Y-60342584D01*
X24878711Y-60350500D01*
X24878712Y-60350500D01*
X25121289Y-60350500D01*
X25169388Y-60344167D01*
X25361789Y-60318838D01*
X25596100Y-60256054D01*
X25820212Y-60163224D01*
X26030289Y-60041936D01*
X26222738Y-59894265D01*
X26394265Y-59722738D01*
X26541936Y-59530289D01*
X26663224Y-59320212D01*
X26756054Y-59096100D01*
X26818838Y-58861789D01*
X26850500Y-58621288D01*
X26850500Y-58378712D01*
X26818838Y-58138211D01*
X26756054Y-57903900D01*
X26663224Y-57679788D01*
X26541936Y-57469711D01*
X26436776Y-57332664D01*
X26394266Y-57277263D01*
X26394260Y-57277256D01*
X26222743Y-57105739D01*
X26222736Y-57105733D01*
X26030293Y-56958067D01*
X26030292Y-56958066D01*
X26030289Y-56958064D01*
X25820212Y-56836776D01*
X25820205Y-56836773D01*
X25596104Y-56743947D01*
X25361785Y-56681161D01*
X25121289Y-56649500D01*
X25121288Y-56649500D01*
X24878712Y-56649500D01*
X24878711Y-56649500D01*
X24638214Y-56681161D01*
X24403895Y-56743947D01*
X24179794Y-56836773D01*
X24179785Y-56836777D01*
X23969706Y-56958067D01*
X23777263Y-57105733D01*
X23777256Y-57105739D01*
X23605739Y-57277256D01*
X23605733Y-57277263D01*
X23458067Y-57469706D01*
X23336777Y-57679785D01*
X23336773Y-57679794D01*
X23243947Y-57903895D01*
X23181161Y-58138214D01*
X23149500Y-58378711D01*
X23149500Y-58621288D01*
X22500500Y-58621288D01*
X22500500Y-56124500D01*
X22520185Y-56057461D01*
X22572989Y-56011706D01*
X22624500Y-56000500D01*
X71375500Y-56000500D01*
X71442539Y-56020185D01*
G37*
%TD.AperFunction*%
%TD*%
M02*
