%TF.GenerationSoftware,KiCad,Pcbnew,8.0.1*%
%TF.CreationDate,2024-08-15T00:47:39-03:00*%
%TF.ProjectId,monitoreo_solar,6d6f6e69-746f-4726-956f-5f736f6c6172,rev?*%
%TF.SameCoordinates,Original*%
%TF.FileFunction,Drillmap*%
%TF.FilePolarity,Positive*%
%FSLAX45Y45*%
G04 Gerber Fmt 4.5, Leading zero omitted, Abs format (unit mm)*
G04 Created by KiCad (PCBNEW 8.0.1) date 2024-08-15 00:47:39*
%MOMM*%
%LPD*%
G01*
G04 APERTURE LIST*
%ADD10C,0.050000*%
%ADD11C,0.200000*%
%ADD12C,0.320000*%
G04 APERTURE END LIST*
D10*
X2200000Y-5550000D02*
X7200000Y-5550000D01*
X7200000Y-10050000D01*
X2200000Y-10050000D01*
X2200000Y-5550000D01*
D11*
D12*
X2340000Y-5690000D02*
X2660000Y-6010000D01*
X2660000Y-5690000D02*
X2340000Y-6010000D01*
X2340000Y-9590000D02*
X2660000Y-9910000D01*
X2660000Y-9590000D02*
X2340000Y-9910000D01*
X6740000Y-5690000D02*
X7060000Y-6010000D01*
X7060000Y-5690000D02*
X6740000Y-6010000D01*
X6740000Y-9590000D02*
X7060000Y-9910000D01*
X7060000Y-9590000D02*
X6740000Y-9910000D01*
D11*
X2458277Y-10363984D02*
X2458277Y-10163984D01*
X2458277Y-10163984D02*
X2505896Y-10163984D01*
X2505896Y-10163984D02*
X2534467Y-10173508D01*
X2534467Y-10173508D02*
X2553515Y-10192555D01*
X2553515Y-10192555D02*
X2563039Y-10211603D01*
X2563039Y-10211603D02*
X2572563Y-10249698D01*
X2572563Y-10249698D02*
X2572563Y-10278270D01*
X2572563Y-10278270D02*
X2563039Y-10316365D01*
X2563039Y-10316365D02*
X2553515Y-10335412D01*
X2553515Y-10335412D02*
X2534467Y-10354460D01*
X2534467Y-10354460D02*
X2505896Y-10363984D01*
X2505896Y-10363984D02*
X2458277Y-10363984D01*
X2658277Y-10363984D02*
X2658277Y-10230650D01*
X2658277Y-10268746D02*
X2667801Y-10249698D01*
X2667801Y-10249698D02*
X2677324Y-10240174D01*
X2677324Y-10240174D02*
X2696372Y-10230650D01*
X2696372Y-10230650D02*
X2715420Y-10230650D01*
X2782086Y-10363984D02*
X2782086Y-10230650D01*
X2782086Y-10163984D02*
X2772563Y-10173508D01*
X2772563Y-10173508D02*
X2782086Y-10183031D01*
X2782086Y-10183031D02*
X2791610Y-10173508D01*
X2791610Y-10173508D02*
X2782086Y-10163984D01*
X2782086Y-10163984D02*
X2782086Y-10183031D01*
X2905896Y-10363984D02*
X2886848Y-10354460D01*
X2886848Y-10354460D02*
X2877324Y-10335412D01*
X2877324Y-10335412D02*
X2877324Y-10163984D01*
X3010658Y-10363984D02*
X2991610Y-10354460D01*
X2991610Y-10354460D02*
X2982086Y-10335412D01*
X2982086Y-10335412D02*
X2982086Y-10163984D01*
X3239229Y-10363984D02*
X3239229Y-10163984D01*
X3239229Y-10163984D02*
X3305896Y-10306841D01*
X3305896Y-10306841D02*
X3372562Y-10163984D01*
X3372562Y-10163984D02*
X3372562Y-10363984D01*
X3553515Y-10363984D02*
X3553515Y-10259222D01*
X3553515Y-10259222D02*
X3543991Y-10240174D01*
X3543991Y-10240174D02*
X3524943Y-10230650D01*
X3524943Y-10230650D02*
X3486848Y-10230650D01*
X3486848Y-10230650D02*
X3467801Y-10240174D01*
X3553515Y-10354460D02*
X3534467Y-10363984D01*
X3534467Y-10363984D02*
X3486848Y-10363984D01*
X3486848Y-10363984D02*
X3467801Y-10354460D01*
X3467801Y-10354460D02*
X3458277Y-10335412D01*
X3458277Y-10335412D02*
X3458277Y-10316365D01*
X3458277Y-10316365D02*
X3467801Y-10297317D01*
X3467801Y-10297317D02*
X3486848Y-10287793D01*
X3486848Y-10287793D02*
X3534467Y-10287793D01*
X3534467Y-10287793D02*
X3553515Y-10278270D01*
X3648753Y-10230650D02*
X3648753Y-10430650D01*
X3648753Y-10240174D02*
X3667801Y-10230650D01*
X3667801Y-10230650D02*
X3705896Y-10230650D01*
X3705896Y-10230650D02*
X3724943Y-10240174D01*
X3724943Y-10240174D02*
X3734467Y-10249698D01*
X3734467Y-10249698D02*
X3743991Y-10268746D01*
X3743991Y-10268746D02*
X3743991Y-10325889D01*
X3743991Y-10325889D02*
X3734467Y-10344936D01*
X3734467Y-10344936D02*
X3724943Y-10354460D01*
X3724943Y-10354460D02*
X3705896Y-10363984D01*
X3705896Y-10363984D02*
X3667801Y-10363984D01*
X3667801Y-10363984D02*
X3648753Y-10354460D01*
X3829705Y-10344936D02*
X3839229Y-10354460D01*
X3839229Y-10354460D02*
X3829705Y-10363984D01*
X3829705Y-10363984D02*
X3820182Y-10354460D01*
X3820182Y-10354460D02*
X3829705Y-10344936D01*
X3829705Y-10344936D02*
X3829705Y-10363984D01*
X3829705Y-10240174D02*
X3839229Y-10249698D01*
X3839229Y-10249698D02*
X3829705Y-10259222D01*
X3829705Y-10259222D02*
X3820182Y-10249698D01*
X3820182Y-10249698D02*
X3829705Y-10240174D01*
X3829705Y-10240174D02*
X3829705Y-10259222D01*
X1997500Y-10592500D02*
X2197500Y-10792500D01*
X2197500Y-10592500D02*
X1997500Y-10792500D01*
X2439229Y-10583984D02*
X2563039Y-10583984D01*
X2563039Y-10583984D02*
X2496372Y-10660174D01*
X2496372Y-10660174D02*
X2524944Y-10660174D01*
X2524944Y-10660174D02*
X2543991Y-10669698D01*
X2543991Y-10669698D02*
X2553515Y-10679222D01*
X2553515Y-10679222D02*
X2563039Y-10698270D01*
X2563039Y-10698270D02*
X2563039Y-10745889D01*
X2563039Y-10745889D02*
X2553515Y-10764936D01*
X2553515Y-10764936D02*
X2543991Y-10774460D01*
X2543991Y-10774460D02*
X2524944Y-10783984D01*
X2524944Y-10783984D02*
X2467801Y-10783984D01*
X2467801Y-10783984D02*
X2448753Y-10774460D01*
X2448753Y-10774460D02*
X2439229Y-10764936D01*
X2648753Y-10764936D02*
X2658277Y-10774460D01*
X2658277Y-10774460D02*
X2648753Y-10783984D01*
X2648753Y-10783984D02*
X2639229Y-10774460D01*
X2639229Y-10774460D02*
X2648753Y-10764936D01*
X2648753Y-10764936D02*
X2648753Y-10783984D01*
X2734467Y-10603031D02*
X2743991Y-10593508D01*
X2743991Y-10593508D02*
X2763039Y-10583984D01*
X2763039Y-10583984D02*
X2810658Y-10583984D01*
X2810658Y-10583984D02*
X2829705Y-10593508D01*
X2829705Y-10593508D02*
X2839229Y-10603031D01*
X2839229Y-10603031D02*
X2848753Y-10622079D01*
X2848753Y-10622079D02*
X2848753Y-10641127D01*
X2848753Y-10641127D02*
X2839229Y-10669698D01*
X2839229Y-10669698D02*
X2724944Y-10783984D01*
X2724944Y-10783984D02*
X2848753Y-10783984D01*
X2972562Y-10583984D02*
X2991610Y-10583984D01*
X2991610Y-10583984D02*
X3010658Y-10593508D01*
X3010658Y-10593508D02*
X3020182Y-10603031D01*
X3020182Y-10603031D02*
X3029705Y-10622079D01*
X3029705Y-10622079D02*
X3039229Y-10660174D01*
X3039229Y-10660174D02*
X3039229Y-10707793D01*
X3039229Y-10707793D02*
X3029705Y-10745889D01*
X3029705Y-10745889D02*
X3020182Y-10764936D01*
X3020182Y-10764936D02*
X3010658Y-10774460D01*
X3010658Y-10774460D02*
X2991610Y-10783984D01*
X2991610Y-10783984D02*
X2972562Y-10783984D01*
X2972562Y-10783984D02*
X2953515Y-10774460D01*
X2953515Y-10774460D02*
X2943991Y-10764936D01*
X2943991Y-10764936D02*
X2934467Y-10745889D01*
X2934467Y-10745889D02*
X2924943Y-10707793D01*
X2924943Y-10707793D02*
X2924943Y-10660174D01*
X2924943Y-10660174D02*
X2934467Y-10622079D01*
X2934467Y-10622079D02*
X2943991Y-10603031D01*
X2943991Y-10603031D02*
X2953515Y-10593508D01*
X2953515Y-10593508D02*
X2972562Y-10583984D01*
X3163039Y-10583984D02*
X3182086Y-10583984D01*
X3182086Y-10583984D02*
X3201134Y-10593508D01*
X3201134Y-10593508D02*
X3210658Y-10603031D01*
X3210658Y-10603031D02*
X3220182Y-10622079D01*
X3220182Y-10622079D02*
X3229705Y-10660174D01*
X3229705Y-10660174D02*
X3229705Y-10707793D01*
X3229705Y-10707793D02*
X3220182Y-10745889D01*
X3220182Y-10745889D02*
X3210658Y-10764936D01*
X3210658Y-10764936D02*
X3201134Y-10774460D01*
X3201134Y-10774460D02*
X3182086Y-10783984D01*
X3182086Y-10783984D02*
X3163039Y-10783984D01*
X3163039Y-10783984D02*
X3143991Y-10774460D01*
X3143991Y-10774460D02*
X3134467Y-10764936D01*
X3134467Y-10764936D02*
X3124943Y-10745889D01*
X3124943Y-10745889D02*
X3115420Y-10707793D01*
X3115420Y-10707793D02*
X3115420Y-10660174D01*
X3115420Y-10660174D02*
X3124943Y-10622079D01*
X3124943Y-10622079D02*
X3134467Y-10603031D01*
X3134467Y-10603031D02*
X3143991Y-10593508D01*
X3143991Y-10593508D02*
X3163039Y-10583984D01*
X3315420Y-10783984D02*
X3315420Y-10650650D01*
X3315420Y-10669698D02*
X3324943Y-10660174D01*
X3324943Y-10660174D02*
X3343991Y-10650650D01*
X3343991Y-10650650D02*
X3372563Y-10650650D01*
X3372563Y-10650650D02*
X3391610Y-10660174D01*
X3391610Y-10660174D02*
X3401134Y-10679222D01*
X3401134Y-10679222D02*
X3401134Y-10783984D01*
X3401134Y-10679222D02*
X3410658Y-10660174D01*
X3410658Y-10660174D02*
X3429705Y-10650650D01*
X3429705Y-10650650D02*
X3458277Y-10650650D01*
X3458277Y-10650650D02*
X3477324Y-10660174D01*
X3477324Y-10660174D02*
X3486848Y-10679222D01*
X3486848Y-10679222D02*
X3486848Y-10783984D01*
X3582086Y-10783984D02*
X3582086Y-10650650D01*
X3582086Y-10669698D02*
X3591610Y-10660174D01*
X3591610Y-10660174D02*
X3610658Y-10650650D01*
X3610658Y-10650650D02*
X3639229Y-10650650D01*
X3639229Y-10650650D02*
X3658277Y-10660174D01*
X3658277Y-10660174D02*
X3667801Y-10679222D01*
X3667801Y-10679222D02*
X3667801Y-10783984D01*
X3667801Y-10679222D02*
X3677324Y-10660174D01*
X3677324Y-10660174D02*
X3696372Y-10650650D01*
X3696372Y-10650650D02*
X3724943Y-10650650D01*
X3724943Y-10650650D02*
X3743991Y-10660174D01*
X3743991Y-10660174D02*
X3753515Y-10679222D01*
X3753515Y-10679222D02*
X3753515Y-10783984D01*
X4143991Y-10574460D02*
X3972563Y-10831603D01*
X4401134Y-10583984D02*
X4420182Y-10583984D01*
X4420182Y-10583984D02*
X4439229Y-10593508D01*
X4439229Y-10593508D02*
X4448753Y-10603031D01*
X4448753Y-10603031D02*
X4458277Y-10622079D01*
X4458277Y-10622079D02*
X4467801Y-10660174D01*
X4467801Y-10660174D02*
X4467801Y-10707793D01*
X4467801Y-10707793D02*
X4458277Y-10745889D01*
X4458277Y-10745889D02*
X4448753Y-10764936D01*
X4448753Y-10764936D02*
X4439229Y-10774460D01*
X4439229Y-10774460D02*
X4420182Y-10783984D01*
X4420182Y-10783984D02*
X4401134Y-10783984D01*
X4401134Y-10783984D02*
X4382087Y-10774460D01*
X4382087Y-10774460D02*
X4372563Y-10764936D01*
X4372563Y-10764936D02*
X4363039Y-10745889D01*
X4363039Y-10745889D02*
X4353515Y-10707793D01*
X4353515Y-10707793D02*
X4353515Y-10660174D01*
X4353515Y-10660174D02*
X4363039Y-10622079D01*
X4363039Y-10622079D02*
X4372563Y-10603031D01*
X4372563Y-10603031D02*
X4382087Y-10593508D01*
X4382087Y-10593508D02*
X4401134Y-10583984D01*
X4553515Y-10764936D02*
X4563039Y-10774460D01*
X4563039Y-10774460D02*
X4553515Y-10783984D01*
X4553515Y-10783984D02*
X4543991Y-10774460D01*
X4543991Y-10774460D02*
X4553515Y-10764936D01*
X4553515Y-10764936D02*
X4553515Y-10783984D01*
X4753515Y-10783984D02*
X4639229Y-10783984D01*
X4696372Y-10783984D02*
X4696372Y-10583984D01*
X4696372Y-10583984D02*
X4677325Y-10612555D01*
X4677325Y-10612555D02*
X4658277Y-10631603D01*
X4658277Y-10631603D02*
X4639229Y-10641127D01*
X4829706Y-10603031D02*
X4839229Y-10593508D01*
X4839229Y-10593508D02*
X4858277Y-10583984D01*
X4858277Y-10583984D02*
X4905896Y-10583984D01*
X4905896Y-10583984D02*
X4924944Y-10593508D01*
X4924944Y-10593508D02*
X4934468Y-10603031D01*
X4934468Y-10603031D02*
X4943991Y-10622079D01*
X4943991Y-10622079D02*
X4943991Y-10641127D01*
X4943991Y-10641127D02*
X4934468Y-10669698D01*
X4934468Y-10669698D02*
X4820182Y-10783984D01*
X4820182Y-10783984D02*
X4943991Y-10783984D01*
X5115420Y-10583984D02*
X5077325Y-10583984D01*
X5077325Y-10583984D02*
X5058277Y-10593508D01*
X5058277Y-10593508D02*
X5048753Y-10603031D01*
X5048753Y-10603031D02*
X5029706Y-10631603D01*
X5029706Y-10631603D02*
X5020182Y-10669698D01*
X5020182Y-10669698D02*
X5020182Y-10745889D01*
X5020182Y-10745889D02*
X5029706Y-10764936D01*
X5029706Y-10764936D02*
X5039229Y-10774460D01*
X5039229Y-10774460D02*
X5058277Y-10783984D01*
X5058277Y-10783984D02*
X5096372Y-10783984D01*
X5096372Y-10783984D02*
X5115420Y-10774460D01*
X5115420Y-10774460D02*
X5124944Y-10764936D01*
X5124944Y-10764936D02*
X5134468Y-10745889D01*
X5134468Y-10745889D02*
X5134468Y-10698270D01*
X5134468Y-10698270D02*
X5124944Y-10679222D01*
X5124944Y-10679222D02*
X5115420Y-10669698D01*
X5115420Y-10669698D02*
X5096372Y-10660174D01*
X5096372Y-10660174D02*
X5058277Y-10660174D01*
X5058277Y-10660174D02*
X5039229Y-10669698D01*
X5039229Y-10669698D02*
X5029706Y-10679222D01*
X5029706Y-10679222D02*
X5020182Y-10698270D01*
X5258277Y-10583984D02*
X5277325Y-10583984D01*
X5277325Y-10583984D02*
X5296372Y-10593508D01*
X5296372Y-10593508D02*
X5305896Y-10603031D01*
X5305896Y-10603031D02*
X5315420Y-10622079D01*
X5315420Y-10622079D02*
X5324944Y-10660174D01*
X5324944Y-10660174D02*
X5324944Y-10707793D01*
X5324944Y-10707793D02*
X5315420Y-10745889D01*
X5315420Y-10745889D02*
X5305896Y-10764936D01*
X5305896Y-10764936D02*
X5296372Y-10774460D01*
X5296372Y-10774460D02*
X5277325Y-10783984D01*
X5277325Y-10783984D02*
X5258277Y-10783984D01*
X5258277Y-10783984D02*
X5239229Y-10774460D01*
X5239229Y-10774460D02*
X5229706Y-10764936D01*
X5229706Y-10764936D02*
X5220182Y-10745889D01*
X5220182Y-10745889D02*
X5210658Y-10707793D01*
X5210658Y-10707793D02*
X5210658Y-10660174D01*
X5210658Y-10660174D02*
X5220182Y-10622079D01*
X5220182Y-10622079D02*
X5229706Y-10603031D01*
X5229706Y-10603031D02*
X5239229Y-10593508D01*
X5239229Y-10593508D02*
X5258277Y-10583984D01*
X5401134Y-10583984D02*
X5401134Y-10622079D01*
X5477325Y-10583984D02*
X5477325Y-10622079D01*
X5772563Y-10860174D02*
X5763039Y-10850650D01*
X5763039Y-10850650D02*
X5743991Y-10822079D01*
X5743991Y-10822079D02*
X5734468Y-10803031D01*
X5734468Y-10803031D02*
X5724944Y-10774460D01*
X5724944Y-10774460D02*
X5715420Y-10726841D01*
X5715420Y-10726841D02*
X5715420Y-10688746D01*
X5715420Y-10688746D02*
X5724944Y-10641127D01*
X5724944Y-10641127D02*
X5734468Y-10612555D01*
X5734468Y-10612555D02*
X5743991Y-10593508D01*
X5743991Y-10593508D02*
X5763039Y-10564936D01*
X5763039Y-10564936D02*
X5772563Y-10555412D01*
X5934468Y-10650650D02*
X5934468Y-10783984D01*
X5886848Y-10574460D02*
X5839229Y-10717317D01*
X5839229Y-10717317D02*
X5963039Y-10717317D01*
X6191610Y-10783984D02*
X6191610Y-10583984D01*
X6277325Y-10783984D02*
X6277325Y-10679222D01*
X6277325Y-10679222D02*
X6267801Y-10660174D01*
X6267801Y-10660174D02*
X6248753Y-10650650D01*
X6248753Y-10650650D02*
X6220182Y-10650650D01*
X6220182Y-10650650D02*
X6201134Y-10660174D01*
X6201134Y-10660174D02*
X6191610Y-10669698D01*
X6401134Y-10783984D02*
X6382087Y-10774460D01*
X6382087Y-10774460D02*
X6372563Y-10764936D01*
X6372563Y-10764936D02*
X6363039Y-10745889D01*
X6363039Y-10745889D02*
X6363039Y-10688746D01*
X6363039Y-10688746D02*
X6372563Y-10669698D01*
X6372563Y-10669698D02*
X6382087Y-10660174D01*
X6382087Y-10660174D02*
X6401134Y-10650650D01*
X6401134Y-10650650D02*
X6429706Y-10650650D01*
X6429706Y-10650650D02*
X6448753Y-10660174D01*
X6448753Y-10660174D02*
X6458277Y-10669698D01*
X6458277Y-10669698D02*
X6467801Y-10688746D01*
X6467801Y-10688746D02*
X6467801Y-10745889D01*
X6467801Y-10745889D02*
X6458277Y-10764936D01*
X6458277Y-10764936D02*
X6448753Y-10774460D01*
X6448753Y-10774460D02*
X6429706Y-10783984D01*
X6429706Y-10783984D02*
X6401134Y-10783984D01*
X6582087Y-10783984D02*
X6563039Y-10774460D01*
X6563039Y-10774460D02*
X6553515Y-10755412D01*
X6553515Y-10755412D02*
X6553515Y-10583984D01*
X6734468Y-10774460D02*
X6715420Y-10783984D01*
X6715420Y-10783984D02*
X6677325Y-10783984D01*
X6677325Y-10783984D02*
X6658277Y-10774460D01*
X6658277Y-10774460D02*
X6648753Y-10755412D01*
X6648753Y-10755412D02*
X6648753Y-10679222D01*
X6648753Y-10679222D02*
X6658277Y-10660174D01*
X6658277Y-10660174D02*
X6677325Y-10650650D01*
X6677325Y-10650650D02*
X6715420Y-10650650D01*
X6715420Y-10650650D02*
X6734468Y-10660174D01*
X6734468Y-10660174D02*
X6743991Y-10679222D01*
X6743991Y-10679222D02*
X6743991Y-10698270D01*
X6743991Y-10698270D02*
X6648753Y-10717317D01*
X6820182Y-10774460D02*
X6839230Y-10783984D01*
X6839230Y-10783984D02*
X6877325Y-10783984D01*
X6877325Y-10783984D02*
X6896372Y-10774460D01*
X6896372Y-10774460D02*
X6905896Y-10755412D01*
X6905896Y-10755412D02*
X6905896Y-10745889D01*
X6905896Y-10745889D02*
X6896372Y-10726841D01*
X6896372Y-10726841D02*
X6877325Y-10717317D01*
X6877325Y-10717317D02*
X6848753Y-10717317D01*
X6848753Y-10717317D02*
X6829706Y-10707793D01*
X6829706Y-10707793D02*
X6820182Y-10688746D01*
X6820182Y-10688746D02*
X6820182Y-10679222D01*
X6820182Y-10679222D02*
X6829706Y-10660174D01*
X6829706Y-10660174D02*
X6848753Y-10650650D01*
X6848753Y-10650650D02*
X6877325Y-10650650D01*
X6877325Y-10650650D02*
X6896372Y-10660174D01*
X6972563Y-10860174D02*
X6982087Y-10850650D01*
X6982087Y-10850650D02*
X7001134Y-10822079D01*
X7001134Y-10822079D02*
X7010658Y-10803031D01*
X7010658Y-10803031D02*
X7020182Y-10774460D01*
X7020182Y-10774460D02*
X7029706Y-10726841D01*
X7029706Y-10726841D02*
X7029706Y-10688746D01*
X7029706Y-10688746D02*
X7020182Y-10641127D01*
X7020182Y-10641127D02*
X7010658Y-10612555D01*
X7010658Y-10612555D02*
X7001134Y-10593508D01*
X7001134Y-10593508D02*
X6982087Y-10564936D01*
X6982087Y-10564936D02*
X6972563Y-10555412D01*
X7334468Y-10860174D02*
X7324944Y-10850650D01*
X7324944Y-10850650D02*
X7305896Y-10822079D01*
X7305896Y-10822079D02*
X7296372Y-10803031D01*
X7296372Y-10803031D02*
X7286849Y-10774460D01*
X7286849Y-10774460D02*
X7277325Y-10726841D01*
X7277325Y-10726841D02*
X7277325Y-10688746D01*
X7277325Y-10688746D02*
X7286849Y-10641127D01*
X7286849Y-10641127D02*
X7296372Y-10612555D01*
X7296372Y-10612555D02*
X7305896Y-10593508D01*
X7305896Y-10593508D02*
X7324944Y-10564936D01*
X7324944Y-10564936D02*
X7334468Y-10555412D01*
X7410658Y-10650650D02*
X7410658Y-10783984D01*
X7410658Y-10669698D02*
X7420182Y-10660174D01*
X7420182Y-10660174D02*
X7439230Y-10650650D01*
X7439230Y-10650650D02*
X7467801Y-10650650D01*
X7467801Y-10650650D02*
X7486849Y-10660174D01*
X7486849Y-10660174D02*
X7496372Y-10679222D01*
X7496372Y-10679222D02*
X7496372Y-10783984D01*
X7620182Y-10783984D02*
X7601134Y-10774460D01*
X7601134Y-10774460D02*
X7591611Y-10764936D01*
X7591611Y-10764936D02*
X7582087Y-10745889D01*
X7582087Y-10745889D02*
X7582087Y-10688746D01*
X7582087Y-10688746D02*
X7591611Y-10669698D01*
X7591611Y-10669698D02*
X7601134Y-10660174D01*
X7601134Y-10660174D02*
X7620182Y-10650650D01*
X7620182Y-10650650D02*
X7648753Y-10650650D01*
X7648753Y-10650650D02*
X7667801Y-10660174D01*
X7667801Y-10660174D02*
X7677325Y-10669698D01*
X7677325Y-10669698D02*
X7686849Y-10688746D01*
X7686849Y-10688746D02*
X7686849Y-10745889D01*
X7686849Y-10745889D02*
X7677325Y-10764936D01*
X7677325Y-10764936D02*
X7667801Y-10774460D01*
X7667801Y-10774460D02*
X7648753Y-10783984D01*
X7648753Y-10783984D02*
X7620182Y-10783984D01*
X7743992Y-10650650D02*
X7820182Y-10650650D01*
X7772563Y-10583984D02*
X7772563Y-10755412D01*
X7772563Y-10755412D02*
X7782087Y-10774460D01*
X7782087Y-10774460D02*
X7801134Y-10783984D01*
X7801134Y-10783984D02*
X7820182Y-10783984D01*
X8039230Y-10650650D02*
X8039230Y-10850650D01*
X8039230Y-10660174D02*
X8058277Y-10650650D01*
X8058277Y-10650650D02*
X8096373Y-10650650D01*
X8096373Y-10650650D02*
X8115420Y-10660174D01*
X8115420Y-10660174D02*
X8124944Y-10669698D01*
X8124944Y-10669698D02*
X8134468Y-10688746D01*
X8134468Y-10688746D02*
X8134468Y-10745889D01*
X8134468Y-10745889D02*
X8124944Y-10764936D01*
X8124944Y-10764936D02*
X8115420Y-10774460D01*
X8115420Y-10774460D02*
X8096373Y-10783984D01*
X8096373Y-10783984D02*
X8058277Y-10783984D01*
X8058277Y-10783984D02*
X8039230Y-10774460D01*
X8248753Y-10783984D02*
X8229706Y-10774460D01*
X8229706Y-10774460D02*
X8220182Y-10755412D01*
X8220182Y-10755412D02*
X8220182Y-10583984D01*
X8410658Y-10783984D02*
X8410658Y-10679222D01*
X8410658Y-10679222D02*
X8401135Y-10660174D01*
X8401135Y-10660174D02*
X8382087Y-10650650D01*
X8382087Y-10650650D02*
X8343992Y-10650650D01*
X8343992Y-10650650D02*
X8324944Y-10660174D01*
X8410658Y-10774460D02*
X8391611Y-10783984D01*
X8391611Y-10783984D02*
X8343992Y-10783984D01*
X8343992Y-10783984D02*
X8324944Y-10774460D01*
X8324944Y-10774460D02*
X8315420Y-10755412D01*
X8315420Y-10755412D02*
X8315420Y-10736365D01*
X8315420Y-10736365D02*
X8324944Y-10717317D01*
X8324944Y-10717317D02*
X8343992Y-10707793D01*
X8343992Y-10707793D02*
X8391611Y-10707793D01*
X8391611Y-10707793D02*
X8410658Y-10698270D01*
X8477325Y-10650650D02*
X8553515Y-10650650D01*
X8505896Y-10583984D02*
X8505896Y-10755412D01*
X8505896Y-10755412D02*
X8515420Y-10774460D01*
X8515420Y-10774460D02*
X8534468Y-10783984D01*
X8534468Y-10783984D02*
X8553515Y-10783984D01*
X8696373Y-10774460D02*
X8677325Y-10783984D01*
X8677325Y-10783984D02*
X8639230Y-10783984D01*
X8639230Y-10783984D02*
X8620182Y-10774460D01*
X8620182Y-10774460D02*
X8610658Y-10755412D01*
X8610658Y-10755412D02*
X8610658Y-10679222D01*
X8610658Y-10679222D02*
X8620182Y-10660174D01*
X8620182Y-10660174D02*
X8639230Y-10650650D01*
X8639230Y-10650650D02*
X8677325Y-10650650D01*
X8677325Y-10650650D02*
X8696373Y-10660174D01*
X8696373Y-10660174D02*
X8705896Y-10679222D01*
X8705896Y-10679222D02*
X8705896Y-10698270D01*
X8705896Y-10698270D02*
X8610658Y-10717317D01*
X8877325Y-10783984D02*
X8877325Y-10583984D01*
X8877325Y-10774460D02*
X8858277Y-10783984D01*
X8858277Y-10783984D02*
X8820182Y-10783984D01*
X8820182Y-10783984D02*
X8801135Y-10774460D01*
X8801135Y-10774460D02*
X8791611Y-10764936D01*
X8791611Y-10764936D02*
X8782087Y-10745889D01*
X8782087Y-10745889D02*
X8782087Y-10688746D01*
X8782087Y-10688746D02*
X8791611Y-10669698D01*
X8791611Y-10669698D02*
X8801135Y-10660174D01*
X8801135Y-10660174D02*
X8820182Y-10650650D01*
X8820182Y-10650650D02*
X8858277Y-10650650D01*
X8858277Y-10650650D02*
X8877325Y-10660174D01*
X8953516Y-10860174D02*
X8963039Y-10850650D01*
X8963039Y-10850650D02*
X8982087Y-10822079D01*
X8982087Y-10822079D02*
X8991611Y-10803031D01*
X8991611Y-10803031D02*
X9001135Y-10774460D01*
X9001135Y-10774460D02*
X9010658Y-10726841D01*
X9010658Y-10726841D02*
X9010658Y-10688746D01*
X9010658Y-10688746D02*
X9001135Y-10641127D01*
X9001135Y-10641127D02*
X8991611Y-10612555D01*
X8991611Y-10612555D02*
X8982087Y-10593508D01*
X8982087Y-10593508D02*
X8963039Y-10564936D01*
X8963039Y-10564936D02*
X8953516Y-10555412D01*
M02*
