M48
; DRILL file {KiCad 8.0.1} date 2024-08-15T00:47:41-0300
; FORMAT={-:-/ absolute / inch / decimal}
; #@! TF.CreationDate,2024-08-15T00:47:41-03:00
; #@! TF.GenerationSoftware,Kicad,Pcbnew,8.0.1
; #@! TF.FileFunction,Plated,1,2,PTH
FMAT,2
INCH
; #@! TA.AperFunction,Plated,PTH,ComponentDrill
T1C0.0315
; #@! TA.AperFunction,Plated,PTH,ComponentDrill
T2C0.0394
; #@! TA.AperFunction,Plated,PTH,ComponentDrill
T3C0.0433
; #@! TA.AperFunction,Plated,PTH,ComponentDrill
T4C0.0512
; #@! TA.AperFunction,Plated,PTH,ComponentDrill
T5C0.0630
%
G90
G05
T1
X0.9809Y-3.0138
X1.2252Y-2.8031
X1.2874Y-2.5984
X1.3809Y-3.0138
X1.3858Y-2.5984
X1.3937Y-3.4567
X1.4065Y-3.6417
X1.4961Y-2.9291
X1.4961Y-3.3291
X1.5049Y-3.6417
X1.5974Y-2.5539
X1.5974Y-2.6524
X1.6252Y-2.8031
X1.6502Y-2.9606
X1.6502Y-3.0606
X1.6502Y-3.1606
X1.6502Y-3.2606
X1.7937Y-3.4567
X1.9417Y-2.8031
X1.9417Y-3.4173
X1.9459Y-3.5886
X2.0502Y-2.9606
X2.0502Y-3.0606
X2.0502Y-3.1606
X2.0502Y-3.2606
X2.1016Y-3.7854
X2.2Y-3.7854
X2.3417Y-2.8031
X2.3417Y-3.4173
X2.3459Y-3.5886
T2
X1.0709Y-2.6195
X1.0709Y-2.7195
X1.0709Y-2.8195
X1.3142Y-2.378
X1.4142Y-2.378
X1.5142Y-2.378
X1.6142Y-2.378
X2.6929Y-2.7189
X2.6929Y-2.8189
X2.6929Y-2.9189
T3
X1.6841Y-3.7943
X1.7841Y-3.7943
X1.8841Y-3.7943
T4
X1.0827Y-3.3268
X1.0827Y-3.5236
X2.6498Y-3.3071
X2.6498Y-3.5039
T5
X1.822Y-2.3297
X1.823Y-2.562
X2.422Y-2.3297
X2.423Y-2.562
M30
