%TF.GenerationSoftware,KiCad,Pcbnew,8.0.1*%
%TF.CreationDate,2024-08-15T00:47:12-03:00*%
%TF.ProjectId,monitoreo_solar,6d6f6e69-746f-4726-956f-5f736f6c6172,rev?*%
%TF.SameCoordinates,Original*%
%TF.FileFunction,Legend,Bot*%
%TF.FilePolarity,Positive*%
%FSLAX46Y46*%
G04 Gerber Fmt 4.6, Leading zero omitted, Abs format (unit mm)*
G04 Created by KiCad (PCBNEW 8.0.1) date 2024-08-15 00:47:12*
%MOMM*%
%LPD*%
G01*
G04 APERTURE LIST*
%ADD10C,0.150000*%
%ADD11C,0.152400*%
G04 APERTURE END LIST*
D10*
X61761904Y-76454819D02*
X61761904Y-77264342D01*
X61761904Y-77264342D02*
X61714285Y-77359580D01*
X61714285Y-77359580D02*
X61666666Y-77407200D01*
X61666666Y-77407200D02*
X61571428Y-77454819D01*
X61571428Y-77454819D02*
X61380952Y-77454819D01*
X61380952Y-77454819D02*
X61285714Y-77407200D01*
X61285714Y-77407200D02*
X61238095Y-77359580D01*
X61238095Y-77359580D02*
X61190476Y-77264342D01*
X61190476Y-77264342D02*
X61190476Y-76454819D01*
X60190476Y-77454819D02*
X60761904Y-77454819D01*
X60476190Y-77454819D02*
X60476190Y-76454819D01*
X60476190Y-76454819D02*
X60571428Y-76597676D01*
X60571428Y-76597676D02*
X60666666Y-76692914D01*
X60666666Y-76692914D02*
X60761904Y-76740533D01*
X63959099Y-72848019D02*
X63959099Y-73086114D01*
X64197194Y-72990876D02*
X63959099Y-73086114D01*
X63959099Y-73086114D02*
X63721004Y-72990876D01*
X64101956Y-73276590D02*
X63959099Y-73086114D01*
X63959099Y-73086114D02*
X63816242Y-73276590D01*
X63959099Y-72848019D02*
X63959099Y-73086114D01*
X64197194Y-72990876D02*
X63959099Y-73086114D01*
X63959099Y-73086114D02*
X63721004Y-72990876D01*
X64101956Y-73276590D02*
X63959099Y-73086114D01*
X63959099Y-73086114D02*
X63816242Y-73276590D01*
D11*
%TO.C,U1*%
X58917200Y-79578100D02*
X63082800Y-79578100D01*
X63082800Y-74421900D02*
X58917200Y-74421900D01*
%TD*%
M02*
