%TF.GenerationSoftware,KiCad,Pcbnew,8.0.1*%
%TF.CreationDate,2024-08-15T00:47:12-03:00*%
%TF.ProjectId,monitoreo_solar,6d6f6e69-746f-4726-956f-5f736f6c6172,rev?*%
%TF.SameCoordinates,Original*%
%TF.FileFunction,Copper,L2,Bot*%
%TF.FilePolarity,Positive*%
%FSLAX46Y46*%
G04 Gerber Fmt 4.6, Leading zero omitted, Abs format (unit mm)*
G04 Created by KiCad (PCBNEW 8.0.1) date 2024-08-15 00:47:12*
%MOMM*%
%LPD*%
G01*
G04 APERTURE LIST*
%ADD10C,0.300000*%
%TA.AperFunction,NonConductor*%
%ADD11C,0.300000*%
%TD*%
%TA.AperFunction,NonConductor*%
%ADD12C,0.200000*%
%TD*%
%TA.AperFunction,ComponentPad*%
%ADD13C,1.600000*%
%TD*%
%TA.AperFunction,ComponentPad*%
%ADD14R,1.600000X1.600000*%
%TD*%
%TA.AperFunction,SMDPad,CuDef*%
%ADD15R,1.498600X0.558800*%
%TD*%
%TA.AperFunction,ComponentPad*%
%ADD16R,3.200000X3.200000*%
%TD*%
%TA.AperFunction,ComponentPad*%
%ADD17O,3.200000X3.200000*%
%TD*%
%TA.AperFunction,ComponentPad*%
%ADD18R,1.700000X1.700000*%
%TD*%
%TA.AperFunction,ComponentPad*%
%ADD19O,1.700000X1.700000*%
%TD*%
%TA.AperFunction,ComponentPad*%
%ADD20O,1.600000X1.600000*%
%TD*%
%TA.AperFunction,ComponentPad*%
%ADD21R,1.905000X2.000000*%
%TD*%
%TA.AperFunction,ComponentPad*%
%ADD22O,1.905000X2.000000*%
%TD*%
%TA.AperFunction,ComponentPad*%
%ADD23R,2.600000X2.600000*%
%TD*%
%TA.AperFunction,ComponentPad*%
%ADD24C,2.600000*%
%TD*%
%TA.AperFunction,ComponentPad*%
%ADD25R,2.400000X1.600000*%
%TD*%
%TA.AperFunction,ComponentPad*%
%ADD26O,2.400000X1.600000*%
%TD*%
%TA.AperFunction,Conductor*%
%ADD27C,1.270000*%
%TD*%
%TA.AperFunction,Conductor*%
%ADD28C,1.000000*%
%TD*%
G04 APERTURE END LIST*
D10*
D11*
X80353328Y-84214284D02*
X81353328Y-84214284D01*
X79781900Y-84571426D02*
X80853328Y-84928569D01*
X80853328Y-84928569D02*
X80853328Y-83999998D01*
X79853328Y-82714284D02*
X79853328Y-83428570D01*
X79853328Y-83428570D02*
X80567614Y-83499998D01*
X80567614Y-83499998D02*
X80496185Y-83428570D01*
X80496185Y-83428570D02*
X80424757Y-83285713D01*
X80424757Y-83285713D02*
X80424757Y-82928570D01*
X80424757Y-82928570D02*
X80496185Y-82785713D01*
X80496185Y-82785713D02*
X80567614Y-82714284D01*
X80567614Y-82714284D02*
X80710471Y-82642855D01*
X80710471Y-82642855D02*
X81067614Y-82642855D01*
X81067614Y-82642855D02*
X81210471Y-82714284D01*
X81210471Y-82714284D02*
X81281900Y-82785713D01*
X81281900Y-82785713D02*
X81353328Y-82928570D01*
X81353328Y-82928570D02*
X81353328Y-83285713D01*
X81353328Y-83285713D02*
X81281900Y-83428570D01*
X81281900Y-83428570D02*
X81210471Y-83499998D01*
X81281900Y-81928570D02*
X81353328Y-81928570D01*
X81353328Y-81928570D02*
X81496185Y-81999999D01*
X81496185Y-81999999D02*
X81567614Y-82071427D01*
X79853328Y-80999998D02*
X79853328Y-80857141D01*
X79853328Y-80857141D02*
X79924757Y-80714284D01*
X79924757Y-80714284D02*
X79996185Y-80642856D01*
X79996185Y-80642856D02*
X80139042Y-80571427D01*
X80139042Y-80571427D02*
X80424757Y-80499998D01*
X80424757Y-80499998D02*
X80781900Y-80499998D01*
X80781900Y-80499998D02*
X81067614Y-80571427D01*
X81067614Y-80571427D02*
X81210471Y-80642856D01*
X81210471Y-80642856D02*
X81281900Y-80714284D01*
X81281900Y-80714284D02*
X81353328Y-80857141D01*
X81353328Y-80857141D02*
X81353328Y-80999998D01*
X81353328Y-80999998D02*
X81281900Y-81142856D01*
X81281900Y-81142856D02*
X81210471Y-81214284D01*
X81210471Y-81214284D02*
X81067614Y-81285713D01*
X81067614Y-81285713D02*
X80781900Y-81357141D01*
X80781900Y-81357141D02*
X80424757Y-81357141D01*
X80424757Y-81357141D02*
X80139042Y-81285713D01*
X80139042Y-81285713D02*
X79996185Y-81214284D01*
X79996185Y-81214284D02*
X79924757Y-81142856D01*
X79924757Y-81142856D02*
X79853328Y-80999998D01*
X79853328Y-79571427D02*
X79853328Y-79428570D01*
X79853328Y-79428570D02*
X79924757Y-79285713D01*
X79924757Y-79285713D02*
X79996185Y-79214285D01*
X79996185Y-79214285D02*
X80139042Y-79142856D01*
X80139042Y-79142856D02*
X80424757Y-79071427D01*
X80424757Y-79071427D02*
X80781900Y-79071427D01*
X80781900Y-79071427D02*
X81067614Y-79142856D01*
X81067614Y-79142856D02*
X81210471Y-79214285D01*
X81210471Y-79214285D02*
X81281900Y-79285713D01*
X81281900Y-79285713D02*
X81353328Y-79428570D01*
X81353328Y-79428570D02*
X81353328Y-79571427D01*
X81353328Y-79571427D02*
X81281900Y-79714285D01*
X81281900Y-79714285D02*
X81210471Y-79785713D01*
X81210471Y-79785713D02*
X81067614Y-79857142D01*
X81067614Y-79857142D02*
X80781900Y-79928570D01*
X80781900Y-79928570D02*
X80424757Y-79928570D01*
X80424757Y-79928570D02*
X80139042Y-79857142D01*
X80139042Y-79857142D02*
X79996185Y-79785713D01*
X79996185Y-79785713D02*
X79924757Y-79714285D01*
X79924757Y-79714285D02*
X79853328Y-79571427D01*
X79853328Y-78142856D02*
X79853328Y-77999999D01*
X79853328Y-77999999D02*
X79924757Y-77857142D01*
X79924757Y-77857142D02*
X79996185Y-77785714D01*
X79996185Y-77785714D02*
X80139042Y-77714285D01*
X80139042Y-77714285D02*
X80424757Y-77642856D01*
X80424757Y-77642856D02*
X80781900Y-77642856D01*
X80781900Y-77642856D02*
X81067614Y-77714285D01*
X81067614Y-77714285D02*
X81210471Y-77785714D01*
X81210471Y-77785714D02*
X81281900Y-77857142D01*
X81281900Y-77857142D02*
X81353328Y-77999999D01*
X81353328Y-77999999D02*
X81353328Y-78142856D01*
X81353328Y-78142856D02*
X81281900Y-78285714D01*
X81281900Y-78285714D02*
X81210471Y-78357142D01*
X81210471Y-78357142D02*
X81067614Y-78428571D01*
X81067614Y-78428571D02*
X80781900Y-78499999D01*
X80781900Y-78499999D02*
X80424757Y-78499999D01*
X80424757Y-78499999D02*
X80139042Y-78428571D01*
X80139042Y-78428571D02*
X79996185Y-78357142D01*
X79996185Y-78357142D02*
X79924757Y-78285714D01*
X79924757Y-78285714D02*
X79853328Y-78142856D01*
X79853328Y-76714285D02*
X79853328Y-76571428D01*
X79853328Y-76571428D02*
X79924757Y-76428571D01*
X79924757Y-76428571D02*
X79996185Y-76357143D01*
X79996185Y-76357143D02*
X80139042Y-76285714D01*
X80139042Y-76285714D02*
X80424757Y-76214285D01*
X80424757Y-76214285D02*
X80781900Y-76214285D01*
X80781900Y-76214285D02*
X81067614Y-76285714D01*
X81067614Y-76285714D02*
X81210471Y-76357143D01*
X81210471Y-76357143D02*
X81281900Y-76428571D01*
X81281900Y-76428571D02*
X81353328Y-76571428D01*
X81353328Y-76571428D02*
X81353328Y-76714285D01*
X81353328Y-76714285D02*
X81281900Y-76857143D01*
X81281900Y-76857143D02*
X81210471Y-76928571D01*
X81210471Y-76928571D02*
X81067614Y-77000000D01*
X81067614Y-77000000D02*
X80781900Y-77071428D01*
X80781900Y-77071428D02*
X80424757Y-77071428D01*
X80424757Y-77071428D02*
X80139042Y-77000000D01*
X80139042Y-77000000D02*
X79996185Y-76928571D01*
X79996185Y-76928571D02*
X79924757Y-76857143D01*
X79924757Y-76857143D02*
X79853328Y-76714285D01*
X81353328Y-74428572D02*
X80353328Y-74428572D01*
X80496185Y-74428572D02*
X80424757Y-74357143D01*
X80424757Y-74357143D02*
X80353328Y-74214286D01*
X80353328Y-74214286D02*
X80353328Y-74000000D01*
X80353328Y-74000000D02*
X80424757Y-73857143D01*
X80424757Y-73857143D02*
X80567614Y-73785715D01*
X80567614Y-73785715D02*
X81353328Y-73785715D01*
X80567614Y-73785715D02*
X80424757Y-73714286D01*
X80424757Y-73714286D02*
X80353328Y-73571429D01*
X80353328Y-73571429D02*
X80353328Y-73357143D01*
X80353328Y-73357143D02*
X80424757Y-73214286D01*
X80424757Y-73214286D02*
X80567614Y-73142857D01*
X80567614Y-73142857D02*
X81353328Y-73142857D01*
X81353328Y-72428572D02*
X80353328Y-72428572D01*
X80496185Y-72428572D02*
X80424757Y-72357143D01*
X80424757Y-72357143D02*
X80353328Y-72214286D01*
X80353328Y-72214286D02*
X80353328Y-72000000D01*
X80353328Y-72000000D02*
X80424757Y-71857143D01*
X80424757Y-71857143D02*
X80567614Y-71785715D01*
X80567614Y-71785715D02*
X81353328Y-71785715D01*
X80567614Y-71785715D02*
X80424757Y-71714286D01*
X80424757Y-71714286D02*
X80353328Y-71571429D01*
X80353328Y-71571429D02*
X80353328Y-71357143D01*
X80353328Y-71357143D02*
X80424757Y-71214286D01*
X80424757Y-71214286D02*
X80567614Y-71142857D01*
X80567614Y-71142857D02*
X81353328Y-71142857D01*
D12*
X72500000Y-100500000D02*
X83061420Y-100500000D01*
X72500000Y-55500000D02*
X83061420Y-55500000D01*
X82475000Y-100500000D02*
X82475000Y-55500000D01*
X82475000Y-100500000D02*
X82475000Y-55500000D01*
X82475000Y-100500000D02*
X81888579Y-99373496D01*
X82475000Y-100500000D02*
X83061421Y-99373496D01*
X82475000Y-55500000D02*
X83061421Y-56626504D01*
X82475000Y-55500000D02*
X81888579Y-56626504D01*
D10*
D11*
X40857144Y-47603328D02*
X40142858Y-47603328D01*
X40142858Y-47603328D02*
X40071430Y-48317614D01*
X40071430Y-48317614D02*
X40142858Y-48246185D01*
X40142858Y-48246185D02*
X40285716Y-48174757D01*
X40285716Y-48174757D02*
X40642858Y-48174757D01*
X40642858Y-48174757D02*
X40785716Y-48246185D01*
X40785716Y-48246185D02*
X40857144Y-48317614D01*
X40857144Y-48317614D02*
X40928573Y-48460471D01*
X40928573Y-48460471D02*
X40928573Y-48817614D01*
X40928573Y-48817614D02*
X40857144Y-48960471D01*
X40857144Y-48960471D02*
X40785716Y-49031900D01*
X40785716Y-49031900D02*
X40642858Y-49103328D01*
X40642858Y-49103328D02*
X40285716Y-49103328D01*
X40285716Y-49103328D02*
X40142858Y-49031900D01*
X40142858Y-49031900D02*
X40071430Y-48960471D01*
X41857144Y-47603328D02*
X42000001Y-47603328D01*
X42000001Y-47603328D02*
X42142858Y-47674757D01*
X42142858Y-47674757D02*
X42214287Y-47746185D01*
X42214287Y-47746185D02*
X42285715Y-47889042D01*
X42285715Y-47889042D02*
X42357144Y-48174757D01*
X42357144Y-48174757D02*
X42357144Y-48531900D01*
X42357144Y-48531900D02*
X42285715Y-48817614D01*
X42285715Y-48817614D02*
X42214287Y-48960471D01*
X42214287Y-48960471D02*
X42142858Y-49031900D01*
X42142858Y-49031900D02*
X42000001Y-49103328D01*
X42000001Y-49103328D02*
X41857144Y-49103328D01*
X41857144Y-49103328D02*
X41714287Y-49031900D01*
X41714287Y-49031900D02*
X41642858Y-48960471D01*
X41642858Y-48960471D02*
X41571429Y-48817614D01*
X41571429Y-48817614D02*
X41500001Y-48531900D01*
X41500001Y-48531900D02*
X41500001Y-48174757D01*
X41500001Y-48174757D02*
X41571429Y-47889042D01*
X41571429Y-47889042D02*
X41642858Y-47746185D01*
X41642858Y-47746185D02*
X41714287Y-47674757D01*
X41714287Y-47674757D02*
X41857144Y-47603328D01*
X43071429Y-49031900D02*
X43071429Y-49103328D01*
X43071429Y-49103328D02*
X43000000Y-49246185D01*
X43000000Y-49246185D02*
X42928572Y-49317614D01*
X44000001Y-47603328D02*
X44142858Y-47603328D01*
X44142858Y-47603328D02*
X44285715Y-47674757D01*
X44285715Y-47674757D02*
X44357144Y-47746185D01*
X44357144Y-47746185D02*
X44428572Y-47889042D01*
X44428572Y-47889042D02*
X44500001Y-48174757D01*
X44500001Y-48174757D02*
X44500001Y-48531900D01*
X44500001Y-48531900D02*
X44428572Y-48817614D01*
X44428572Y-48817614D02*
X44357144Y-48960471D01*
X44357144Y-48960471D02*
X44285715Y-49031900D01*
X44285715Y-49031900D02*
X44142858Y-49103328D01*
X44142858Y-49103328D02*
X44000001Y-49103328D01*
X44000001Y-49103328D02*
X43857144Y-49031900D01*
X43857144Y-49031900D02*
X43785715Y-48960471D01*
X43785715Y-48960471D02*
X43714286Y-48817614D01*
X43714286Y-48817614D02*
X43642858Y-48531900D01*
X43642858Y-48531900D02*
X43642858Y-48174757D01*
X43642858Y-48174757D02*
X43714286Y-47889042D01*
X43714286Y-47889042D02*
X43785715Y-47746185D01*
X43785715Y-47746185D02*
X43857144Y-47674757D01*
X43857144Y-47674757D02*
X44000001Y-47603328D01*
X45428572Y-47603328D02*
X45571429Y-47603328D01*
X45571429Y-47603328D02*
X45714286Y-47674757D01*
X45714286Y-47674757D02*
X45785715Y-47746185D01*
X45785715Y-47746185D02*
X45857143Y-47889042D01*
X45857143Y-47889042D02*
X45928572Y-48174757D01*
X45928572Y-48174757D02*
X45928572Y-48531900D01*
X45928572Y-48531900D02*
X45857143Y-48817614D01*
X45857143Y-48817614D02*
X45785715Y-48960471D01*
X45785715Y-48960471D02*
X45714286Y-49031900D01*
X45714286Y-49031900D02*
X45571429Y-49103328D01*
X45571429Y-49103328D02*
X45428572Y-49103328D01*
X45428572Y-49103328D02*
X45285715Y-49031900D01*
X45285715Y-49031900D02*
X45214286Y-48960471D01*
X45214286Y-48960471D02*
X45142857Y-48817614D01*
X45142857Y-48817614D02*
X45071429Y-48531900D01*
X45071429Y-48531900D02*
X45071429Y-48174757D01*
X45071429Y-48174757D02*
X45142857Y-47889042D01*
X45142857Y-47889042D02*
X45214286Y-47746185D01*
X45214286Y-47746185D02*
X45285715Y-47674757D01*
X45285715Y-47674757D02*
X45428572Y-47603328D01*
X46857143Y-47603328D02*
X47000000Y-47603328D01*
X47000000Y-47603328D02*
X47142857Y-47674757D01*
X47142857Y-47674757D02*
X47214286Y-47746185D01*
X47214286Y-47746185D02*
X47285714Y-47889042D01*
X47285714Y-47889042D02*
X47357143Y-48174757D01*
X47357143Y-48174757D02*
X47357143Y-48531900D01*
X47357143Y-48531900D02*
X47285714Y-48817614D01*
X47285714Y-48817614D02*
X47214286Y-48960471D01*
X47214286Y-48960471D02*
X47142857Y-49031900D01*
X47142857Y-49031900D02*
X47000000Y-49103328D01*
X47000000Y-49103328D02*
X46857143Y-49103328D01*
X46857143Y-49103328D02*
X46714286Y-49031900D01*
X46714286Y-49031900D02*
X46642857Y-48960471D01*
X46642857Y-48960471D02*
X46571428Y-48817614D01*
X46571428Y-48817614D02*
X46500000Y-48531900D01*
X46500000Y-48531900D02*
X46500000Y-48174757D01*
X46500000Y-48174757D02*
X46571428Y-47889042D01*
X46571428Y-47889042D02*
X46642857Y-47746185D01*
X46642857Y-47746185D02*
X46714286Y-47674757D01*
X46714286Y-47674757D02*
X46857143Y-47603328D01*
X48285714Y-47603328D02*
X48428571Y-47603328D01*
X48428571Y-47603328D02*
X48571428Y-47674757D01*
X48571428Y-47674757D02*
X48642857Y-47746185D01*
X48642857Y-47746185D02*
X48714285Y-47889042D01*
X48714285Y-47889042D02*
X48785714Y-48174757D01*
X48785714Y-48174757D02*
X48785714Y-48531900D01*
X48785714Y-48531900D02*
X48714285Y-48817614D01*
X48714285Y-48817614D02*
X48642857Y-48960471D01*
X48642857Y-48960471D02*
X48571428Y-49031900D01*
X48571428Y-49031900D02*
X48428571Y-49103328D01*
X48428571Y-49103328D02*
X48285714Y-49103328D01*
X48285714Y-49103328D02*
X48142857Y-49031900D01*
X48142857Y-49031900D02*
X48071428Y-48960471D01*
X48071428Y-48960471D02*
X47999999Y-48817614D01*
X47999999Y-48817614D02*
X47928571Y-48531900D01*
X47928571Y-48531900D02*
X47928571Y-48174757D01*
X47928571Y-48174757D02*
X47999999Y-47889042D01*
X47999999Y-47889042D02*
X48071428Y-47746185D01*
X48071428Y-47746185D02*
X48142857Y-47674757D01*
X48142857Y-47674757D02*
X48285714Y-47603328D01*
X50571427Y-49103328D02*
X50571427Y-48103328D01*
X50571427Y-48246185D02*
X50642856Y-48174757D01*
X50642856Y-48174757D02*
X50785713Y-48103328D01*
X50785713Y-48103328D02*
X50999999Y-48103328D01*
X50999999Y-48103328D02*
X51142856Y-48174757D01*
X51142856Y-48174757D02*
X51214285Y-48317614D01*
X51214285Y-48317614D02*
X51214285Y-49103328D01*
X51214285Y-48317614D02*
X51285713Y-48174757D01*
X51285713Y-48174757D02*
X51428570Y-48103328D01*
X51428570Y-48103328D02*
X51642856Y-48103328D01*
X51642856Y-48103328D02*
X51785713Y-48174757D01*
X51785713Y-48174757D02*
X51857142Y-48317614D01*
X51857142Y-48317614D02*
X51857142Y-49103328D01*
X52571427Y-49103328D02*
X52571427Y-48103328D01*
X52571427Y-48246185D02*
X52642856Y-48174757D01*
X52642856Y-48174757D02*
X52785713Y-48103328D01*
X52785713Y-48103328D02*
X52999999Y-48103328D01*
X52999999Y-48103328D02*
X53142856Y-48174757D01*
X53142856Y-48174757D02*
X53214285Y-48317614D01*
X53214285Y-48317614D02*
X53214285Y-49103328D01*
X53214285Y-48317614D02*
X53285713Y-48174757D01*
X53285713Y-48174757D02*
X53428570Y-48103328D01*
X53428570Y-48103328D02*
X53642856Y-48103328D01*
X53642856Y-48103328D02*
X53785713Y-48174757D01*
X53785713Y-48174757D02*
X53857142Y-48317614D01*
X53857142Y-48317614D02*
X53857142Y-49103328D01*
D12*
X22000000Y-55000000D02*
X22000000Y-49638580D01*
X72000000Y-55000000D02*
X72000000Y-49638580D01*
X22000000Y-50225000D02*
X72000000Y-50225000D01*
X22000000Y-50225000D02*
X72000000Y-50225000D01*
X22000000Y-50225000D02*
X23126504Y-49638579D01*
X22000000Y-50225000D02*
X23126504Y-50811421D01*
X72000000Y-50225000D02*
X70873496Y-50811421D01*
X72000000Y-50225000D02*
X70873496Y-49638579D01*
D13*
%TO.P,C4,2*%
%TO.N,GND*%
X53380113Y-96150000D03*
D14*
%TO.P,C4,1*%
%TO.N,+5V*%
X55880113Y-96150000D03*
%TD*%
D15*
%TO.P,U1,1,\u002AINC*%
%TO.N,STEP*%
X63705100Y-75095000D03*
%TO.P,U1,2,U/\u002AD*%
%TO.N,DIR*%
X63705100Y-76365000D03*
%TO.P,U1,3,VH/RH*%
%TO.N,unconnected-(U1-VH{slash}RH-Pad3)*%
X63705100Y-77635000D03*
%TO.P,U1,4,VSS*%
%TO.N,GND*%
X63705100Y-78905000D03*
%TO.P,U1,5,VW/RW*%
%TO.N,Pot+*%
X58294900Y-78905000D03*
%TO.P,U1,6,VL/RL*%
%TO.N,Pot-*%
X58294900Y-77635000D03*
%TO.P,U1,7,\u002ACS*%
%TO.N,POT_CS*%
X58294900Y-76365000D03*
%TO.P,U1,8,VCC*%
%TO.N,+5V*%
X58294900Y-75095000D03*
%TD*%
D16*
%TO.P,D2,1,K*%
%TO.N,+3.3V*%
X61520000Y-59175000D03*
D17*
%TO.P,D2,2,A*%
%TO.N,Net-(D2-A)*%
X46280000Y-59175000D03*
%TD*%
D14*
%TO.P,C1,1*%
%TO.N,Net-(D1-A)*%
X40575000Y-64869887D03*
D13*
%TO.P,C1,2*%
%TO.N,GND*%
X40575000Y-67369887D03*
%TD*%
D18*
%TO.P,J4,1,Pin_1*%
%TO.N,+3.3V*%
X41000000Y-60400000D03*
D19*
%TO.P,J4,2,Pin_2*%
%TO.N,Net-(D1-A)*%
X38460000Y-60400000D03*
%TO.P,J4,3,Pin_3*%
%TO.N,Net-(D2-A)*%
X35920000Y-60400000D03*
%TO.P,J4,4,Pin_4*%
%TO.N,GND*%
X33380000Y-60400000D03*
%TD*%
D13*
%TO.P,R4,1*%
%TO.N,Vamp1*%
X41280000Y-71200000D03*
D20*
%TO.P,R4,2*%
%TO.N,Net-(D2-A)*%
X31120000Y-71200000D03*
%TD*%
D21*
%TO.P,U2,1,GND*%
%TO.N,GND*%
X42775000Y-96375000D03*
D22*
%TO.P,U2,2,VO*%
%TO.N,+3.3V*%
X45315000Y-96375000D03*
%TO.P,U2,3,VI*%
%TO.N,+5V*%
X47855000Y-96375000D03*
%TD*%
D23*
%TO.P,J3,1,Pin_1*%
%TO.N,GND*%
X67305000Y-89000000D03*
D24*
%TO.P,J3,2,Pin_2*%
%TO.N,+5V*%
X67305000Y-84000000D03*
%TD*%
D14*
%TO.P,C5,1*%
%TO.N,+3.3V*%
X38225000Y-92500000D03*
D13*
%TO.P,C5,2*%
%TO.N,GND*%
X35725000Y-92500000D03*
%TD*%
D18*
%TO.P,J5,1,Pin_1*%
%TO.N,POT_CS*%
X68400000Y-69060000D03*
D19*
%TO.P,J5,2,Pin_2*%
%TO.N,STEP*%
X68400000Y-71600000D03*
%TO.P,J5,3,Pin_3*%
%TO.N,DIR*%
X68400000Y-74140000D03*
%TD*%
D13*
%TO.P,R11,1*%
%TO.N,Net-(U4B-+)*%
X45560000Y-87800000D03*
D20*
%TO.P,R11,2*%
%TO.N,Vpanel*%
X35400000Y-87800000D03*
%TD*%
D13*
%TO.P,R2,1*%
%TO.N,Net-(U4A-+)*%
X38000000Y-74400000D03*
D20*
%TO.P,R2,2*%
%TO.N,GND*%
X38000000Y-84560000D03*
%TD*%
D18*
%TO.P,J2,1,Pin_1*%
%TO.N,+5V*%
X27200000Y-66535000D03*
D19*
%TO.P,J2,2,Pin_2*%
%TO.N,Vcurrent*%
X27200000Y-69075000D03*
%TO.P,J2,3,Pin_3*%
%TO.N,GND*%
X27200000Y-71615000D03*
%TD*%
D23*
%TO.P,J1,1,Pin_1*%
%TO.N,GND*%
X27500000Y-84500000D03*
D24*
%TO.P,J1,2,Pin_2*%
%TO.N,Vpanel*%
X27500000Y-89500000D03*
%TD*%
D14*
%TO.P,C2,1*%
%TO.N,Net-(D2-A)*%
X35200000Y-66000000D03*
D13*
%TO.P,C2,2*%
%TO.N,GND*%
X32700000Y-66000000D03*
%TD*%
D25*
%TO.P,U4,1*%
%TO.N,Vamp1*%
X41915000Y-75200000D03*
D26*
%TO.P,U4,2,-*%
X41915000Y-77740000D03*
%TO.P,U4,3,+*%
%TO.N,Net-(U4A-+)*%
X41915000Y-80280000D03*
%TO.P,U4,4,V-*%
%TO.N,GND*%
X41915000Y-82820000D03*
%TO.P,U4,5,+*%
%TO.N,Net-(U4B-+)*%
X52075000Y-82820000D03*
%TO.P,U4,6,-*%
%TO.N,Pot-*%
X52075000Y-80280000D03*
%TO.P,U4,7*%
%TO.N,Pot+*%
X52075000Y-77740000D03*
%TO.P,U4,8,V+*%
%TO.N,+5V*%
X52075000Y-75200000D03*
%TD*%
D13*
%TO.P,R9,1*%
%TO.N,GND*%
X59480000Y-86800000D03*
D20*
%TO.P,R9,2*%
%TO.N,Pot-*%
X49320000Y-86800000D03*
%TD*%
D16*
%TO.P,D1,1,K*%
%TO.N,+3.3V*%
X61545000Y-65075000D03*
D17*
%TO.P,D1,2,A*%
%TO.N,Net-(D1-A)*%
X46305000Y-65075000D03*
%TD*%
D13*
%TO.P,R1,1*%
%TO.N,Vcurrent*%
X24915000Y-76550000D03*
D20*
%TO.P,R1,2*%
%TO.N,Net-(U4A-+)*%
X35075000Y-76550000D03*
%TD*%
D13*
%TO.P,R3,1*%
%TO.N,Pot+*%
X59480000Y-71200000D03*
D20*
%TO.P,R3,2*%
%TO.N,Net-(D1-A)*%
X49320000Y-71200000D03*
%TD*%
D13*
%TO.P,R10,1*%
%TO.N,GND*%
X59585000Y-91150000D03*
D20*
%TO.P,R10,2*%
%TO.N,Net-(U4B-+)*%
X49425000Y-91150000D03*
%TD*%
D27*
%TO.N,+5V*%
X47855000Y-96410407D02*
X47855000Y-96375000D01*
X32175000Y-98250000D02*
X46015407Y-98250000D01*
X46015407Y-98250000D02*
X47855000Y-96410407D01*
X23280000Y-89355000D02*
X32175000Y-98250000D01*
X23280000Y-70455000D02*
X23280000Y-89355000D01*
X27200000Y-66535000D02*
X23280000Y-70455000D01*
%TO.N,GND*%
X27200000Y-71615000D02*
X27200000Y-71500000D01*
X27200000Y-71500000D02*
X32700000Y-66000000D01*
%TO.N,+3.3V*%
X58650000Y-65075000D02*
X61545000Y-65075000D01*
X46425000Y-77300000D02*
X58650000Y-65075000D01*
X46425000Y-83225000D02*
X46425000Y-77300000D01*
X38225000Y-91425000D02*
X46425000Y-83225000D01*
X38225000Y-92500000D02*
X38225000Y-91425000D01*
X43710000Y-92500000D02*
X45315000Y-94105000D01*
X45315000Y-94105000D02*
X45315000Y-96375000D01*
X38225000Y-92500000D02*
X43710000Y-92500000D01*
%TO.N,GND*%
X35725000Y-93270000D02*
X35725000Y-92500000D01*
X38830000Y-96375000D02*
X35725000Y-93270000D01*
X42775000Y-96375000D02*
X38830000Y-96375000D01*
X38000000Y-88875000D02*
X38000000Y-84560000D01*
X35725000Y-91150000D02*
X38000000Y-88875000D01*
X35725000Y-92500000D02*
X35725000Y-91150000D01*
%TO.N,+3.3V*%
X59085000Y-61610000D02*
X61520000Y-59175000D01*
%TO.N,GND*%
X30755000Y-75170000D02*
X30755000Y-75400000D01*
X27200000Y-71615000D02*
X30755000Y-75170000D01*
%TO.N,Vcurrent*%
X24915000Y-71360000D02*
X27200000Y-69075000D01*
X24915000Y-76550000D02*
X24915000Y-71360000D01*
%TO.N,Net-(U4A-+)*%
X36975000Y-76550000D02*
X38000000Y-77575000D01*
X35075000Y-76550000D02*
X36975000Y-76550000D01*
X40705000Y-80280000D02*
X38000000Y-77575000D01*
%TO.N,Vpanel*%
X33700000Y-89500000D02*
X35400000Y-87800000D01*
X27500000Y-89500000D02*
X33700000Y-89500000D01*
%TO.N,+5V*%
X58075000Y-69200000D02*
X52075000Y-75200000D01*
D28*
X58380000Y-75095000D02*
X58294900Y-75095000D01*
X64025000Y-69450000D02*
X58380000Y-75095000D01*
X64025000Y-69200000D02*
X64025000Y-69450000D01*
D27*
X66425000Y-66800000D02*
X70000000Y-66800000D01*
X64025000Y-69200000D02*
X66425000Y-66800000D01*
X70000000Y-66800000D02*
X70865000Y-67665000D01*
X64025000Y-69200000D02*
X58075000Y-69200000D01*
D28*
%TO.N,Pot-*%
X59435000Y-77635000D02*
X58294900Y-77635000D01*
X60400000Y-79275000D02*
X60400000Y-78600000D01*
X60400000Y-78600000D02*
X59435000Y-77635000D01*
X52075000Y-80280000D02*
X59395000Y-80280000D01*
X59395000Y-80280000D02*
X60400000Y-79275000D01*
D27*
%TO.N,GND*%
X63220000Y-78905000D02*
X63705100Y-78905000D01*
X59480000Y-82645000D02*
X63220000Y-78905000D01*
X59480000Y-86800000D02*
X59480000Y-82645000D01*
X59480000Y-91045000D02*
X59585000Y-91150000D01*
X59480000Y-86800000D02*
X59480000Y-91045000D01*
%TO.N,+5V*%
X54245113Y-97785000D02*
X49265000Y-97785000D01*
X49265000Y-97785000D02*
X47855000Y-96375000D01*
X55880113Y-96150000D02*
X54245113Y-97785000D01*
%TO.N,GND*%
X38294113Y-67369887D02*
X30755000Y-74909000D01*
X40575000Y-67369887D02*
X38294113Y-67369887D01*
%TO.N,+3.3V*%
X61520000Y-65050000D02*
X61545000Y-65075000D01*
X61520000Y-59175000D02*
X61520000Y-65050000D01*
X42210000Y-61610000D02*
X59085000Y-61610000D01*
X41000000Y-60400000D02*
X42210000Y-61610000D01*
%TO.N,Net-(D2-A)*%
X45505000Y-58400000D02*
X37920000Y-58400000D01*
X46280000Y-59175000D02*
X45505000Y-58400000D01*
%TO.N,Net-(D1-A)*%
X46305000Y-65075000D02*
X49320000Y-68090000D01*
X49320000Y-68090000D02*
X49320000Y-71200000D01*
X40780113Y-65075000D02*
X40575000Y-64869887D01*
X46305000Y-65075000D02*
X40780113Y-65075000D01*
X38460000Y-60400000D02*
X38460000Y-62754887D01*
X38460000Y-62754887D02*
X40575000Y-64869887D01*
%TO.N,Net-(U4B-+)*%
X46075000Y-87800000D02*
X49425000Y-91150000D01*
X45560000Y-87800000D02*
X46075000Y-87800000D01*
%TO.N,GND*%
X67305000Y-89000000D02*
X65155000Y-91150000D01*
X65155000Y-91150000D02*
X59585000Y-91150000D01*
X57248743Y-91150000D02*
X59585000Y-91150000D01*
X53380113Y-95018630D02*
X57248743Y-91150000D01*
X53380113Y-96150000D02*
X53380113Y-95018630D01*
%TO.N,Net-(U4B-+)*%
X52075000Y-88500000D02*
X52075000Y-82820000D01*
X49425000Y-91150000D02*
X52075000Y-88500000D01*
%TO.N,+5V*%
X70200000Y-86895000D02*
X67305000Y-84000000D01*
X64350000Y-96150000D02*
X70200000Y-90300000D01*
X70200000Y-90300000D02*
X70200000Y-86895000D01*
X55880113Y-96150000D02*
X64350000Y-96150000D01*
%TO.N,GND*%
X42775000Y-96375000D02*
X42775000Y-96422500D01*
X42775000Y-96339593D02*
X42775000Y-96375000D01*
%TO.N,Pot-*%
X51020000Y-80280000D02*
X52075000Y-80280000D01*
X49320000Y-81980000D02*
X51020000Y-80280000D01*
X49320000Y-86800000D02*
X49320000Y-81980000D01*
%TO.N,GND*%
X34070000Y-84560000D02*
X30755000Y-81245000D01*
X38000000Y-84560000D02*
X34070000Y-84560000D01*
X39740000Y-82820000D02*
X38000000Y-84560000D01*
X41915000Y-82820000D02*
X39740000Y-82820000D01*
%TO.N,Net-(U4A-+)*%
X38000000Y-77575000D02*
X38000000Y-74400000D01*
X41915000Y-80280000D02*
X40705000Y-80280000D01*
%TO.N,+3.3V*%
X60400000Y-59600000D02*
X61468000Y-59600000D01*
%TO.N,GND*%
X33380000Y-65320000D02*
X32700000Y-66000000D01*
X33380000Y-60400000D02*
X33380000Y-65320000D01*
%TO.N,Net-(D2-A)*%
X35200000Y-61120000D02*
X35920000Y-60400000D01*
X35200000Y-66000000D02*
X35200000Y-61120000D01*
X31120000Y-70080000D02*
X35200000Y-66000000D01*
X31120000Y-71200000D02*
X31120000Y-70080000D01*
X35920000Y-60400000D02*
X37920000Y-58400000D01*
%TO.N,Vamp1*%
X41915000Y-71835000D02*
X41280000Y-71200000D01*
X41915000Y-75200000D02*
X41915000Y-71835000D01*
%TO.N,GND*%
X30755000Y-75400000D02*
X30755000Y-74909000D01*
X30755000Y-81245000D02*
X30755000Y-75400000D01*
%TO.N,+5V*%
X70865000Y-80440000D02*
X70865000Y-67665000D01*
X67305000Y-84000000D02*
X70865000Y-80440000D01*
%TO.N,Pot+*%
X52940000Y-77740000D02*
X52075000Y-77740000D01*
X59480000Y-71200000D02*
X52940000Y-77740000D01*
%TO.N,+5V*%
X51902761Y-75200000D02*
X52075000Y-75200000D01*
%TO.N,GND*%
X27500000Y-84500000D02*
X30755000Y-81245000D01*
%TO.N,Vamp1*%
X41915000Y-77740000D02*
X41915000Y-75200000D01*
D28*
%TO.N,STEP*%
X64905000Y-75095000D02*
X68400000Y-71600000D01*
X63705100Y-75095000D02*
X64905000Y-75095000D01*
%TO.N,DIR*%
X66175000Y-76365000D02*
X68400000Y-74140000D01*
X63705100Y-76365000D02*
X66175000Y-76365000D01*
%TO.N,POT_CS*%
X66540000Y-69060000D02*
X68400000Y-69060000D01*
X59235000Y-76365000D02*
X66540000Y-69060000D01*
X58294900Y-76365000D02*
X59235000Y-76365000D01*
D27*
%TO.N,Pot-*%
X52075000Y-80280000D02*
X51320000Y-80280000D01*
D28*
%TO.N,Pot+*%
X53240000Y-78905000D02*
X52075000Y-77740000D01*
X58294900Y-78905000D02*
X53240000Y-78905000D01*
%TD*%
M02*
