%TF.GenerationSoftware,KiCad,Pcbnew,8.0.1*%
%TF.CreationDate,2024-09-12T19:59:52-03:00*%
%TF.ProjectId,monitor_solar_v2,6d6f6e69-746f-4725-9f73-6f6c61725f76,rev?*%
%TF.SameCoordinates,PX602d950PY4d2bdc0*%
%TF.FileFunction,Soldermask,Bot*%
%TF.FilePolarity,Negative*%
%FSLAX46Y46*%
G04 Gerber Fmt 4.6, Leading zero omitted, Abs format (unit mm)*
G04 Created by KiCad (PCBNEW 8.0.1) date 2024-09-12 19:59:52*
%MOMM*%
%LPD*%
G01*
G04 APERTURE LIST*
%ADD10R,2.600000X2.600000*%
%ADD11C,2.600000*%
%ADD12C,1.600000*%
%ADD13O,1.600000X1.600000*%
%ADD14R,1.600000X1.600000*%
%ADD15R,1.700000X1.700000*%
%ADD16O,1.700000X1.700000*%
%ADD17C,1.524000*%
%ADD18R,3.200000X3.200000*%
%ADD19O,3.200000X3.200000*%
%ADD20C,3.200000*%
%ADD21R,2.400000X1.600000*%
%ADD22O,2.400000X1.600000*%
G04 APERTURE END LIST*
D10*
%TO.C,J3*%
X41125000Y5420000D03*
D11*
X46125000Y5420000D03*
%TD*%
D12*
%TO.C,R1*%
X8370000Y18055000D03*
D13*
X18530000Y18055000D03*
%TD*%
D14*
%TO.C,C4*%
X3925000Y21865000D03*
D12*
X6425000Y21865000D03*
%TD*%
D15*
%TO.C,J5*%
X52505000Y5560000D03*
D16*
X55045000Y5560000D03*
X57585000Y5560000D03*
%TD*%
D12*
%TO.C,R3*%
X36310000Y21865000D03*
D13*
X36310000Y32025000D03*
%TD*%
D15*
%TO.C,J4*%
X32570000Y41320000D03*
D16*
X30030000Y41320000D03*
X27490000Y41320000D03*
X24950000Y41320000D03*
%TD*%
D14*
%TO.C,C5*%
X6400113Y35835000D03*
D12*
X3900113Y35835000D03*
%TD*%
%TO.C,R4*%
X21070000Y25040000D03*
D13*
X21070000Y35200000D03*
%TD*%
D17*
%TO.C,U1*%
X56205000Y20740000D03*
X56205000Y18200000D03*
X56205000Y15660000D03*
X40965000Y23280000D03*
X40965000Y20740000D03*
X40965000Y18200000D03*
X40965000Y15660000D03*
X40965000Y13120000D03*
%TD*%
D18*
%TO.C,D2*%
X15355000Y42820000D03*
D19*
X15355000Y27580000D03*
%TD*%
D18*
%TO.C,D1*%
X43295000Y42820000D03*
D19*
X43295000Y27580000D03*
%TD*%
D12*
%TO.C,R11*%
X34278000Y7260000D03*
D13*
X24118000Y7260000D03*
%TD*%
D15*
%TO.C,J2*%
X3925000Y16150000D03*
D16*
X3925000Y13610000D03*
X3925000Y11070000D03*
%TD*%
D20*
%TO.C,H2*%
X63234000Y41804000D03*
%TD*%
D12*
%TO.C,R9*%
X48935000Y25450000D03*
D13*
X48935000Y15290000D03*
%TD*%
D14*
%TO.C,C1*%
X30659888Y35835000D03*
D12*
X33159888Y35835000D03*
%TD*%
D20*
%TO.C,H1*%
X3650000Y41920000D03*
%TD*%
D21*
%TO.C,U4*%
X22130000Y21880000D03*
D22*
X22130000Y19340000D03*
X22130000Y16800000D03*
X22130000Y14260000D03*
X32290000Y14260000D03*
X32290000Y16800000D03*
X32290000Y19340000D03*
X32290000Y21880000D03*
%TD*%
D20*
%TO.C,H3*%
X3650000Y3920000D03*
%TD*%
D12*
%TO.C,R2*%
X18430000Y13980000D03*
D13*
X8270000Y13980000D03*
%TD*%
D14*
%TO.C,C2*%
X27355113Y35835000D03*
D12*
X24855113Y35835000D03*
%TD*%
%TO.C,R10*%
X23610000Y10816000D03*
D13*
X33770000Y10816000D03*
%TD*%
D10*
%TO.C,J1*%
X14225000Y5755000D03*
D11*
X19225000Y5755000D03*
%TD*%
D20*
%TO.C,H4*%
X63234000Y3704000D03*
%TD*%
M02*
