%TF.GenerationSoftware,KiCad,Pcbnew,8.0.1*%
%TF.CreationDate,2024-09-12T19:59:52-03:00*%
%TF.ProjectId,monitor_solar_v2,6d6f6e69-746f-4725-9f73-6f6c61725f76,rev?*%
%TF.SameCoordinates,PX602d950PY4d2bdc0*%
%TF.FileFunction,Copper,L1,Top*%
%TF.FilePolarity,Positive*%
%FSLAX46Y46*%
G04 Gerber Fmt 4.6, Leading zero omitted, Abs format (unit mm)*
G04 Created by KiCad (PCBNEW 8.0.1) date 2024-09-12 19:59:52*
%MOMM*%
%LPD*%
G01*
G04 APERTURE LIST*
G04 Aperture macros list*
%AMRoundRect*
0 Rectangle with rounded corners*
0 $1 Rounding radius*
0 $2 $3 $4 $5 $6 $7 $8 $9 X,Y pos of 4 corners*
0 Add a 4 corners polygon primitive as box body*
4,1,4,$2,$3,$4,$5,$6,$7,$8,$9,$2,$3,0*
0 Add four circle primitives for the rounded corners*
1,1,$1+$1,$2,$3*
1,1,$1+$1,$4,$5*
1,1,$1+$1,$6,$7*
1,1,$1+$1,$8,$9*
0 Add four rect primitives between the rounded corners*
20,1,$1+$1,$2,$3,$4,$5,0*
20,1,$1+$1,$4,$5,$6,$7,0*
20,1,$1+$1,$6,$7,$8,$9,0*
20,1,$1+$1,$8,$9,$2,$3,0*%
G04 Aperture macros list end*
%TA.AperFunction,ComponentPad*%
%ADD10R,2.600000X2.600000*%
%TD*%
%TA.AperFunction,ComponentPad*%
%ADD11C,2.600000*%
%TD*%
%TA.AperFunction,ComponentPad*%
%ADD12C,1.600000*%
%TD*%
%TA.AperFunction,ComponentPad*%
%ADD13O,1.600000X1.600000*%
%TD*%
%TA.AperFunction,ComponentPad*%
%ADD14R,1.600000X1.600000*%
%TD*%
%TA.AperFunction,ComponentPad*%
%ADD15R,1.700000X1.700000*%
%TD*%
%TA.AperFunction,ComponentPad*%
%ADD16O,1.700000X1.700000*%
%TD*%
%TA.AperFunction,ComponentPad*%
%ADD17C,1.524000*%
%TD*%
%TA.AperFunction,ComponentPad*%
%ADD18R,3.200000X3.200000*%
%TD*%
%TA.AperFunction,ComponentPad*%
%ADD19O,3.200000X3.200000*%
%TD*%
%TA.AperFunction,SMDPad,CuDef*%
%ADD20RoundRect,0.375000X-0.625000X-0.375000X0.625000X-0.375000X0.625000X0.375000X-0.625000X0.375000X0*%
%TD*%
%TA.AperFunction,SMDPad,CuDef*%
%ADD21RoundRect,0.500000X-0.500000X-1.400000X0.500000X-1.400000X0.500000X1.400000X-0.500000X1.400000X0*%
%TD*%
%TA.AperFunction,ComponentPad*%
%ADD22R,2.400000X1.600000*%
%TD*%
%TA.AperFunction,ComponentPad*%
%ADD23O,2.400000X1.600000*%
%TD*%
%TA.AperFunction,Conductor*%
%ADD24C,1.270000*%
%TD*%
G04 APERTURE END LIST*
D10*
%TO.P,J3,1,Pin_1*%
%TO.N,GND*%
X41125000Y5420000D03*
D11*
%TO.P,J3,2,Pin_2*%
%TO.N,+5V*%
X46125000Y5420000D03*
%TD*%
D12*
%TO.P,R1,1*%
%TO.N,Vcurrent*%
X8370000Y18055000D03*
D13*
%TO.P,R1,2*%
%TO.N,Net-(U4A-+)*%
X18530000Y18055000D03*
%TD*%
D14*
%TO.P,C4,1*%
%TO.N,+5V*%
X3925000Y21865000D03*
D12*
%TO.P,C4,2*%
%TO.N,GND*%
X6425000Y21865000D03*
%TD*%
D15*
%TO.P,J5,1,Pin_1*%
%TO.N,POT_CS*%
X52505000Y5560000D03*
D16*
%TO.P,J5,2,Pin_2*%
%TO.N,STEP*%
X55045000Y5560000D03*
%TO.P,J5,3,Pin_3*%
%TO.N,DIR*%
X57585000Y5560000D03*
%TD*%
D12*
%TO.P,R3,1*%
%TO.N,Pot+*%
X36310000Y21865000D03*
D13*
%TO.P,R3,2*%
%TO.N,Net-(D1-A)*%
X36310000Y32025000D03*
%TD*%
D15*
%TO.P,J4,1,Pin_1*%
%TO.N,+3.3V*%
X32570000Y41320000D03*
D16*
%TO.P,J4,2,Pin_2*%
%TO.N,Net-(D1-A)*%
X30030000Y41320000D03*
%TO.P,J4,3,Pin_3*%
%TO.N,Net-(D2-A)*%
X27490000Y41320000D03*
%TO.P,J4,4,Pin_4*%
%TO.N,GND*%
X24950000Y41320000D03*
%TD*%
D14*
%TO.P,C5,1*%
%TO.N,+3.3V*%
X6400113Y35835000D03*
D12*
%TO.P,C5,2*%
%TO.N,GND*%
X3900113Y35835000D03*
%TD*%
%TO.P,R4,1*%
%TO.N,Vamp1*%
X21070000Y25040000D03*
D13*
%TO.P,R4,2*%
%TO.N,Net-(D2-A)*%
X21070000Y35200000D03*
%TD*%
D17*
%TO.P,U1,1,\u002AINC*%
%TO.N,STEP*%
X56205000Y20740000D03*
%TO.P,U1,2,U/\u002AD*%
%TO.N,DIR*%
X56205000Y18200000D03*
%TO.P,U1,3,VH/RH*%
%TO.N,unconnected-(U1-VH{slash}RH-Pad3)*%
X56205000Y15660000D03*
%TO.P,U1,4,VSS*%
%TO.N,GND*%
X40965000Y23280000D03*
%TO.P,U1,5,VW/RW*%
%TO.N,Pot+*%
X40965000Y20740000D03*
%TO.P,U1,6,VL/RL*%
%TO.N,Pot-*%
X40965000Y18200000D03*
%TO.P,U1,7,\u002ACS*%
%TO.N,POT_CS*%
X40965000Y15660000D03*
%TO.P,U1,8,VCC*%
%TO.N,+5V*%
X40965000Y13120000D03*
%TD*%
D18*
%TO.P,D2,1,K*%
%TO.N,+3.3V*%
X15355000Y42820000D03*
D19*
%TO.P,D2,2,A*%
%TO.N,Net-(D2-A)*%
X15355000Y27580000D03*
%TD*%
D18*
%TO.P,D1,1,K*%
%TO.N,+3.3V*%
X43295000Y42820000D03*
D19*
%TO.P,D1,2,A*%
%TO.N,Net-(D1-A)*%
X43295000Y27580000D03*
%TD*%
D12*
%TO.P,R11,1*%
%TO.N,Net-(U4B-+)*%
X34278000Y7260000D03*
D13*
%TO.P,R11,2*%
%TO.N,Vpanel*%
X24118000Y7260000D03*
%TD*%
D15*
%TO.P,J2,1,Pin_1*%
%TO.N,+5V*%
X3925000Y16150000D03*
D16*
%TO.P,J2,2,Pin_2*%
%TO.N,Vcurrent*%
X3925000Y13610000D03*
%TO.P,J2,3,Pin_3*%
%TO.N,GND*%
X3925000Y11070000D03*
%TD*%
D20*
%TO.P,U2,1,GND*%
%TO.N,GND*%
X3520000Y31360000D03*
%TO.P,U2,2,VO*%
%TO.N,+3.3V*%
X3520000Y29060000D03*
D21*
X9820000Y29060000D03*
D20*
%TO.P,U2,3,VI*%
%TO.N,+5V*%
X3520000Y26760000D03*
%TD*%
D12*
%TO.P,R9,1*%
%TO.N,GND*%
X48935000Y25450000D03*
D13*
%TO.P,R9,2*%
%TO.N,Pot-*%
X48935000Y15290000D03*
%TD*%
D14*
%TO.P,C1,1*%
%TO.N,Net-(D1-A)*%
X30659888Y35835000D03*
D12*
%TO.P,C1,2*%
%TO.N,GND*%
X33159888Y35835000D03*
%TD*%
D22*
%TO.P,U4,1*%
%TO.N,Vamp1*%
X22130000Y21880000D03*
D23*
%TO.P,U4,2,-*%
X22130000Y19340000D03*
%TO.P,U4,3,+*%
%TO.N,Net-(U4A-+)*%
X22130000Y16800000D03*
%TO.P,U4,4,V-*%
%TO.N,GND*%
X22130000Y14260000D03*
%TO.P,U4,5,+*%
%TO.N,Net-(U4B-+)*%
X32290000Y14260000D03*
%TO.P,U4,6,-*%
%TO.N,Pot-*%
X32290000Y16800000D03*
%TO.P,U4,7*%
%TO.N,Pot+*%
X32290000Y19340000D03*
%TO.P,U4,8,V+*%
%TO.N,+5V*%
X32290000Y21880000D03*
%TD*%
D12*
%TO.P,R2,1*%
%TO.N,Net-(U4A-+)*%
X18430000Y13980000D03*
D13*
%TO.P,R2,2*%
%TO.N,GND*%
X8270000Y13980000D03*
%TD*%
D14*
%TO.P,C2,1*%
%TO.N,Net-(D2-A)*%
X27355113Y35835000D03*
D12*
%TO.P,C2,2*%
%TO.N,GND*%
X24855113Y35835000D03*
%TD*%
%TO.P,R10,1*%
%TO.N,GND*%
X23610000Y10816000D03*
D13*
%TO.P,R10,2*%
%TO.N,Net-(U4B-+)*%
X33770000Y10816000D03*
%TD*%
D10*
%TO.P,J1,1,Pin_1*%
%TO.N,GND*%
X14225000Y5755000D03*
D11*
%TO.P,J1,2,Pin_2*%
%TO.N,Vpanel*%
X19225000Y5755000D03*
%TD*%
D24*
%TO.N,Net-(D1-A)*%
X30659888Y35835000D02*
X30659888Y33738112D01*
X32373000Y32025000D02*
X36310000Y32025000D01*
X30134000Y41216000D02*
X30134000Y38265888D01*
X30030000Y41320000D02*
X30134000Y41216000D01*
X30659888Y35835000D02*
X30659888Y37740000D01*
X30659888Y33738112D02*
X32373000Y32025000D01*
X30134000Y38265888D02*
X30659888Y37740000D01*
X40755000Y27580000D02*
X36310000Y32025000D01*
X43295000Y27580000D02*
X40755000Y27580000D01*
%TO.N,GND*%
X24514000Y14260000D02*
X25642000Y15388000D01*
X38901000Y3196000D02*
X41125000Y5420000D01*
X23610000Y11324000D02*
X23610000Y10816000D01*
X19038000Y38248000D02*
X22442113Y38248000D01*
X22110000Y41320000D02*
X19038000Y38248000D01*
X12434000Y31644000D02*
X19038000Y38248000D01*
X25642000Y21992000D02*
X27691999Y24041999D01*
X16784000Y3196000D02*
X38901000Y3196000D01*
X3520000Y31360000D02*
X3520000Y35454887D01*
X5360000Y11070000D02*
X8270000Y13980000D01*
X10275000Y19960000D02*
X12434000Y22119000D01*
X6465000Y29485000D02*
X6465000Y23770000D01*
X3520000Y35454887D02*
X3900113Y35835000D01*
X6465000Y23770000D02*
X8370000Y21865000D01*
X10275000Y19960000D02*
X8370000Y21865000D01*
X12434000Y22119000D02*
X12434000Y31644000D01*
X22130000Y12804000D02*
X23610000Y11324000D01*
X3925000Y11070000D02*
X5360000Y11070000D01*
X46765000Y23280000D02*
X40965000Y23280000D01*
X8370000Y21865000D02*
X6425000Y21865000D01*
X8270000Y13980000D02*
X10275000Y15985000D01*
X18270000Y9800000D02*
X14225000Y5755000D01*
X27691999Y24041999D02*
X40203001Y24041999D01*
X22130000Y14260000D02*
X24514000Y14260000D01*
X25642000Y15388000D02*
X25642000Y21992000D01*
X48935000Y25450000D02*
X46765000Y23280000D01*
X48935000Y29687000D02*
X42787000Y35835000D01*
X24950000Y41320000D02*
X22110000Y41320000D01*
X40203001Y24041999D02*
X40965000Y23280000D01*
X22130000Y14260000D02*
X22130000Y12804000D01*
X4590000Y31360000D02*
X6465000Y29485000D01*
X22130000Y13660000D02*
X14225000Y5755000D01*
X14225000Y5755000D02*
X16784000Y3196000D01*
X42787000Y35835000D02*
X33159888Y35835000D01*
X10275000Y15985000D02*
X10275000Y19960000D01*
X22442113Y38248000D02*
X24855113Y35835000D01*
X48935000Y25450000D02*
X48935000Y29687000D01*
X3520000Y31360000D02*
X4590000Y31360000D01*
X22130000Y14260000D02*
X22130000Y13660000D01*
%TO.N,Net-(D2-A)*%
X21070000Y29549887D02*
X19100113Y27580000D01*
X21070000Y35200000D02*
X21070000Y29549887D01*
X23547887Y29549887D02*
X21070000Y29549887D01*
X27355113Y35835000D02*
X27355113Y41185113D01*
X27355113Y35835000D02*
X27355113Y33357113D01*
X15355000Y27580000D02*
X19100113Y27580000D01*
X27355113Y33357113D02*
X23547887Y29549887D01*
X27355113Y41185113D02*
X27490000Y41320000D01*
%TO.N,+5V*%
X35618060Y5228000D02*
X31230000Y5228000D01*
X46125000Y3359000D02*
X46125000Y5420000D01*
X2655000Y16150000D02*
X1385000Y14880000D01*
X46125000Y7960000D02*
X44107500Y9977500D01*
X3925000Y21865000D02*
X3925000Y16150000D01*
X1385000Y14880000D02*
X1385000Y10435000D01*
X31230000Y5228000D02*
X28182000Y8276000D01*
X29594000Y21880000D02*
X32290000Y21880000D01*
X3925000Y26355000D02*
X3520000Y26760000D01*
X1385000Y10435000D02*
X10265000Y1555000D01*
X28182000Y8276000D02*
X28182000Y20468000D01*
X3925000Y21865000D02*
X3925000Y26355000D01*
X44321000Y1555000D02*
X46125000Y3359000D01*
X44107500Y9977500D02*
X40367560Y9977500D01*
X3925000Y16150000D02*
X2655000Y16150000D01*
X46125000Y5420000D02*
X46125000Y7960000D01*
X28182000Y20468000D02*
X29594000Y21880000D01*
X40367560Y9977500D02*
X35618060Y5228000D01*
X10265000Y1555000D02*
X44321000Y1555000D01*
X44107500Y9977500D02*
X40965000Y13120000D01*
%TO.N,+3.3V*%
X9820000Y29060000D02*
X9820000Y32415113D01*
X32570000Y41320000D02*
X32570000Y43004000D01*
X32570000Y43004000D02*
X31484000Y44090000D01*
X15355000Y42820000D02*
X16625000Y44090000D01*
X42025000Y44090000D02*
X43295000Y42820000D01*
X15355000Y42820000D02*
X13385113Y42820000D01*
X30595000Y44090000D02*
X42025000Y44090000D01*
X9820000Y32415113D02*
X6400113Y35835000D01*
X31484000Y44090000D02*
X30595000Y44090000D01*
X13385113Y42820000D02*
X6400113Y35835000D01*
X16625000Y44090000D02*
X30595000Y44090000D01*
%TO.N,Vpanel*%
X19225000Y5755000D02*
X22613000Y5755000D01*
X22613000Y5755000D02*
X24118000Y7260000D01*
%TO.N,Vcurrent*%
X5127081Y13610000D02*
X8370000Y16852919D01*
X3925000Y13610000D02*
X5127081Y13610000D01*
X8370000Y16852919D02*
X8370000Y18055000D01*
%TO.N,DIR*%
X57957500Y12878500D02*
X57957500Y5932500D01*
X57957500Y5932500D02*
X57585000Y5560000D01*
X58662000Y13583000D02*
X57957500Y12878500D01*
X58662000Y17420000D02*
X58662000Y13583000D01*
X56205000Y18200000D02*
X57882000Y18200000D01*
X57882000Y18200000D02*
X58662000Y17420000D01*
%TO.N,POT_CS*%
X42405000Y15660000D02*
X52505000Y5560000D01*
X40965000Y15660000D02*
X42405000Y15660000D01*
%TO.N,STEP*%
X55045000Y9800000D02*
X55045000Y5560000D01*
X53074000Y11771000D02*
X55045000Y9800000D01*
X53074000Y19452000D02*
X53074000Y11771000D01*
X54184500Y20562500D02*
X53074000Y19452000D01*
X56027500Y20562500D02*
X54184500Y20562500D01*
X56205000Y20740000D02*
X56027500Y20562500D01*
%TO.N,Net-(U4A-+)*%
X18430000Y17955000D02*
X18530000Y18055000D01*
X18430000Y13980000D02*
X18430000Y17955000D01*
X22130000Y16800000D02*
X19785000Y16800000D01*
X19785000Y16800000D02*
X18530000Y18055000D01*
%TO.N,Pot+*%
X37834000Y19452000D02*
X37834000Y19340000D01*
X40965000Y20740000D02*
X39122000Y20740000D01*
X36310000Y21865000D02*
X33785000Y19340000D01*
X39122000Y20740000D02*
X37834000Y19452000D01*
X37834000Y19340000D02*
X32290000Y19340000D01*
X33785000Y19340000D02*
X32290000Y19340000D01*
%TO.N,Vamp1*%
X22130000Y23980000D02*
X21070000Y25040000D01*
X22130000Y21880000D02*
X22130000Y19340000D01*
X22130000Y21880000D02*
X22130000Y23980000D01*
%TO.N,Pot-*%
X48935000Y15290000D02*
X46025000Y18200000D01*
X44438000Y18200000D02*
X39742000Y18200000D01*
X38342000Y16800000D02*
X32290000Y16800000D01*
X44438000Y18200000D02*
X40965000Y18200000D01*
X46025000Y18200000D02*
X44438000Y18200000D01*
X39742000Y18200000D02*
X38342000Y16800000D01*
%TO.N,Net-(U4B-+)*%
X33770000Y10816000D02*
X33770000Y12780000D01*
X34278000Y10308000D02*
X33770000Y10816000D01*
X34278000Y7260000D02*
X34278000Y10308000D01*
X33770000Y12780000D02*
X32290000Y14260000D01*
%TD*%
M02*
