%TF.GenerationSoftware,KiCad,Pcbnew,8.0.1*%
%TF.CreationDate,2024-09-12T19:59:52-03:00*%
%TF.ProjectId,monitor_solar_v2,6d6f6e69-746f-4725-9f73-6f6c61725f76,rev?*%
%TF.SameCoordinates,PX602d950PY4d2bdc0*%
%TF.FileFunction,Legend,Top*%
%TF.FilePolarity,Positive*%
%FSLAX46Y46*%
G04 Gerber Fmt 4.6, Leading zero omitted, Abs format (unit mm)*
G04 Created by KiCad (PCBNEW 8.0.1) date 2024-09-12 19:59:52*
%MOMM*%
%LPD*%
G01*
G04 APERTURE LIST*
%ADD10C,0.150000*%
%ADD11C,0.100000*%
%ADD12C,0.120000*%
G04 APERTURE END LIST*
D10*
X43291666Y12225181D02*
X43291666Y11510896D01*
X43291666Y11510896D02*
X43244047Y11368039D01*
X43244047Y11368039D02*
X43148809Y11272800D01*
X43148809Y11272800D02*
X43005952Y11225181D01*
X43005952Y11225181D02*
X42910714Y11225181D01*
X43672619Y12225181D02*
X44291666Y12225181D01*
X44291666Y12225181D02*
X43958333Y11844229D01*
X43958333Y11844229D02*
X44101190Y11844229D01*
X44101190Y11844229D02*
X44196428Y11796610D01*
X44196428Y11796610D02*
X44244047Y11748991D01*
X44244047Y11748991D02*
X44291666Y11653753D01*
X44291666Y11653753D02*
X44291666Y11415658D01*
X44291666Y11415658D02*
X44244047Y11320420D01*
X44244047Y11320420D02*
X44196428Y11272800D01*
X44196428Y11272800D02*
X44101190Y11225181D01*
X44101190Y11225181D02*
X43815476Y11225181D01*
X43815476Y11225181D02*
X43720238Y11272800D01*
X43720238Y11272800D02*
X43672619Y11320420D01*
X13283333Y19970181D02*
X12950000Y20446372D01*
X12711905Y19970181D02*
X12711905Y20970181D01*
X12711905Y20970181D02*
X13092857Y20970181D01*
X13092857Y20970181D02*
X13188095Y20922562D01*
X13188095Y20922562D02*
X13235714Y20874943D01*
X13235714Y20874943D02*
X13283333Y20779705D01*
X13283333Y20779705D02*
X13283333Y20636848D01*
X13283333Y20636848D02*
X13235714Y20541610D01*
X13235714Y20541610D02*
X13188095Y20493991D01*
X13188095Y20493991D02*
X13092857Y20446372D01*
X13092857Y20446372D02*
X12711905Y20446372D01*
X14235714Y19970181D02*
X13664286Y19970181D01*
X13950000Y19970181D02*
X13950000Y20970181D01*
X13950000Y20970181D02*
X13854762Y20827324D01*
X13854762Y20827324D02*
X13759524Y20732086D01*
X13759524Y20732086D02*
X13664286Y20684467D01*
X5008333Y25255420D02*
X4960714Y25207800D01*
X4960714Y25207800D02*
X4817857Y25160181D01*
X4817857Y25160181D02*
X4722619Y25160181D01*
X4722619Y25160181D02*
X4579762Y25207800D01*
X4579762Y25207800D02*
X4484524Y25303039D01*
X4484524Y25303039D02*
X4436905Y25398277D01*
X4436905Y25398277D02*
X4389286Y25588753D01*
X4389286Y25588753D02*
X4389286Y25731610D01*
X4389286Y25731610D02*
X4436905Y25922086D01*
X4436905Y25922086D02*
X4484524Y26017324D01*
X4484524Y26017324D02*
X4579762Y26112562D01*
X4579762Y26112562D02*
X4722619Y26160181D01*
X4722619Y26160181D02*
X4817857Y26160181D01*
X4817857Y26160181D02*
X4960714Y26112562D01*
X4960714Y26112562D02*
X5008333Y26064943D01*
X5865476Y25826848D02*
X5865476Y25160181D01*
X5627381Y26207800D02*
X5389286Y25493515D01*
X5389286Y25493515D02*
X6008333Y25493515D01*
X49629819Y5226667D02*
X50344104Y5226667D01*
X50344104Y5226667D02*
X50486961Y5179048D01*
X50486961Y5179048D02*
X50582200Y5083810D01*
X50582200Y5083810D02*
X50629819Y4940953D01*
X50629819Y4940953D02*
X50629819Y4845715D01*
X49629819Y6179048D02*
X49629819Y5702858D01*
X49629819Y5702858D02*
X50106009Y5655239D01*
X50106009Y5655239D02*
X50058390Y5702858D01*
X50058390Y5702858D02*
X50010771Y5798096D01*
X50010771Y5798096D02*
X50010771Y6036191D01*
X50010771Y6036191D02*
X50058390Y6131429D01*
X50058390Y6131429D02*
X50106009Y6179048D01*
X50106009Y6179048D02*
X50201247Y6226667D01*
X50201247Y6226667D02*
X50439342Y6226667D01*
X50439342Y6226667D02*
X50534580Y6179048D01*
X50534580Y6179048D02*
X50582200Y6131429D01*
X50582200Y6131429D02*
X50629819Y6036191D01*
X50629819Y6036191D02*
X50629819Y5798096D01*
X50629819Y5798096D02*
X50582200Y5702858D01*
X50582200Y5702858D02*
X50534580Y5655239D01*
X34394819Y26778334D02*
X33918628Y26445001D01*
X34394819Y26206906D02*
X33394819Y26206906D01*
X33394819Y26206906D02*
X33394819Y26587858D01*
X33394819Y26587858D02*
X33442438Y26683096D01*
X33442438Y26683096D02*
X33490057Y26730715D01*
X33490057Y26730715D02*
X33585295Y26778334D01*
X33585295Y26778334D02*
X33728152Y26778334D01*
X33728152Y26778334D02*
X33823390Y26730715D01*
X33823390Y26730715D02*
X33871009Y26683096D01*
X33871009Y26683096D02*
X33918628Y26587858D01*
X33918628Y26587858D02*
X33918628Y26206906D01*
X33394819Y27111668D02*
X33394819Y27730715D01*
X33394819Y27730715D02*
X33775771Y27397382D01*
X33775771Y27397382D02*
X33775771Y27540239D01*
X33775771Y27540239D02*
X33823390Y27635477D01*
X33823390Y27635477D02*
X33871009Y27683096D01*
X33871009Y27683096D02*
X33966247Y27730715D01*
X33966247Y27730715D02*
X34204342Y27730715D01*
X34204342Y27730715D02*
X34299580Y27683096D01*
X34299580Y27683096D02*
X34347200Y27635477D01*
X34347200Y27635477D02*
X34394819Y27540239D01*
X34394819Y27540239D02*
X34394819Y27254525D01*
X34394819Y27254525D02*
X34347200Y27159287D01*
X34347200Y27159287D02*
X34299580Y27111668D01*
X34354819Y40986667D02*
X35069104Y40986667D01*
X35069104Y40986667D02*
X35211961Y40939048D01*
X35211961Y40939048D02*
X35307200Y40843810D01*
X35307200Y40843810D02*
X35354819Y40700953D01*
X35354819Y40700953D02*
X35354819Y40605715D01*
X34688152Y41891429D02*
X35354819Y41891429D01*
X34307200Y41653334D02*
X35021485Y41415239D01*
X35021485Y41415239D02*
X35021485Y42034286D01*
X4983446Y31725420D02*
X4935827Y31677800D01*
X4935827Y31677800D02*
X4792970Y31630181D01*
X4792970Y31630181D02*
X4697732Y31630181D01*
X4697732Y31630181D02*
X4554875Y31677800D01*
X4554875Y31677800D02*
X4459637Y31773039D01*
X4459637Y31773039D02*
X4412018Y31868277D01*
X4412018Y31868277D02*
X4364399Y32058753D01*
X4364399Y32058753D02*
X4364399Y32201610D01*
X4364399Y32201610D02*
X4412018Y32392086D01*
X4412018Y32392086D02*
X4459637Y32487324D01*
X4459637Y32487324D02*
X4554875Y32582562D01*
X4554875Y32582562D02*
X4697732Y32630181D01*
X4697732Y32630181D02*
X4792970Y32630181D01*
X4792970Y32630181D02*
X4935827Y32582562D01*
X4935827Y32582562D02*
X4983446Y32534943D01*
X5888208Y32630181D02*
X5412018Y32630181D01*
X5412018Y32630181D02*
X5364399Y32153991D01*
X5364399Y32153991D02*
X5412018Y32201610D01*
X5412018Y32201610D02*
X5507256Y32249229D01*
X5507256Y32249229D02*
X5745351Y32249229D01*
X5745351Y32249229D02*
X5840589Y32201610D01*
X5840589Y32201610D02*
X5888208Y32153991D01*
X5888208Y32153991D02*
X5935827Y32058753D01*
X5935827Y32058753D02*
X5935827Y31820658D01*
X5935827Y31820658D02*
X5888208Y31725420D01*
X5888208Y31725420D02*
X5840589Y31677800D01*
X5840589Y31677800D02*
X5745351Y31630181D01*
X5745351Y31630181D02*
X5507256Y31630181D01*
X5507256Y31630181D02*
X5412018Y31677800D01*
X5412018Y31677800D02*
X5364399Y31725420D01*
X19154819Y29953334D02*
X18678628Y29620001D01*
X19154819Y29381906D02*
X18154819Y29381906D01*
X18154819Y29381906D02*
X18154819Y29762858D01*
X18154819Y29762858D02*
X18202438Y29858096D01*
X18202438Y29858096D02*
X18250057Y29905715D01*
X18250057Y29905715D02*
X18345295Y29953334D01*
X18345295Y29953334D02*
X18488152Y29953334D01*
X18488152Y29953334D02*
X18583390Y29905715D01*
X18583390Y29905715D02*
X18631009Y29858096D01*
X18631009Y29858096D02*
X18678628Y29762858D01*
X18678628Y29762858D02*
X18678628Y29381906D01*
X18488152Y30810477D02*
X19154819Y30810477D01*
X18107200Y30572382D02*
X18821485Y30334287D01*
X18821485Y30334287D02*
X18821485Y30953334D01*
D11*
X49627580Y18961905D02*
X48818057Y18961905D01*
X48818057Y18961905D02*
X48722819Y18914286D01*
X48722819Y18914286D02*
X48675200Y18866667D01*
X48675200Y18866667D02*
X48627580Y18771429D01*
X48627580Y18771429D02*
X48627580Y18580953D01*
X48627580Y18580953D02*
X48675200Y18485715D01*
X48675200Y18485715D02*
X48722819Y18438096D01*
X48722819Y18438096D02*
X48818057Y18390477D01*
X48818057Y18390477D02*
X49627580Y18390477D01*
X48627580Y17390477D02*
X48627580Y17961905D01*
X48627580Y17676191D02*
X49627580Y17676191D01*
X49627580Y17676191D02*
X49484723Y17771429D01*
X49484723Y17771429D02*
X49389485Y17866667D01*
X49389485Y17866667D02*
X49341866Y17961905D01*
X34315952Y29842581D02*
X33839762Y29842581D01*
X33839762Y29842581D02*
X33792143Y29366391D01*
X33792143Y29366391D02*
X33839762Y29414010D01*
X33839762Y29414010D02*
X33935000Y29461629D01*
X33935000Y29461629D02*
X34173095Y29461629D01*
X34173095Y29461629D02*
X34268333Y29414010D01*
X34268333Y29414010D02*
X34315952Y29366391D01*
X34315952Y29366391D02*
X34363571Y29271153D01*
X34363571Y29271153D02*
X34363571Y29033058D01*
X34363571Y29033058D02*
X34315952Y28937820D01*
X34315952Y28937820D02*
X34268333Y28890200D01*
X34268333Y28890200D02*
X34173095Y28842581D01*
X34173095Y28842581D02*
X33935000Y28842581D01*
X33935000Y28842581D02*
X33839762Y28890200D01*
X33839762Y28890200D02*
X33792143Y28937820D01*
X34839762Y28890200D02*
X34839762Y28842581D01*
X34839762Y28842581D02*
X34792143Y28747343D01*
X34792143Y28747343D02*
X34744524Y28699724D01*
X35173095Y29842581D02*
X35792142Y29842581D01*
X35792142Y29842581D02*
X35458809Y29461629D01*
X35458809Y29461629D02*
X35601666Y29461629D01*
X35601666Y29461629D02*
X35696904Y29414010D01*
X35696904Y29414010D02*
X35744523Y29366391D01*
X35744523Y29366391D02*
X35792142Y29271153D01*
X35792142Y29271153D02*
X35792142Y29033058D01*
X35792142Y29033058D02*
X35744523Y28937820D01*
X35744523Y28937820D02*
X35696904Y28890200D01*
X35696904Y28890200D02*
X35601666Y28842581D01*
X35601666Y28842581D02*
X35315952Y28842581D01*
X35315952Y28842581D02*
X35220714Y28890200D01*
X35220714Y28890200D02*
X35173095Y28937820D01*
X36411190Y29842581D02*
X36506428Y29842581D01*
X36506428Y29842581D02*
X36601666Y29794962D01*
X36601666Y29794962D02*
X36649285Y29747343D01*
X36649285Y29747343D02*
X36696904Y29652105D01*
X36696904Y29652105D02*
X36744523Y29461629D01*
X36744523Y29461629D02*
X36744523Y29223534D01*
X36744523Y29223534D02*
X36696904Y29033058D01*
X36696904Y29033058D02*
X36649285Y28937820D01*
X36649285Y28937820D02*
X36601666Y28890200D01*
X36601666Y28890200D02*
X36506428Y28842581D01*
X36506428Y28842581D02*
X36411190Y28842581D01*
X36411190Y28842581D02*
X36315952Y28890200D01*
X36315952Y28890200D02*
X36268333Y28937820D01*
X36268333Y28937820D02*
X36220714Y29033058D01*
X36220714Y29033058D02*
X36173095Y29223534D01*
X36173095Y29223534D02*
X36173095Y29461629D01*
X36173095Y29461629D02*
X36220714Y29652105D01*
X36220714Y29652105D02*
X36268333Y29747343D01*
X36268333Y29747343D02*
X36315952Y29794962D01*
X36315952Y29794962D02*
X36411190Y29842581D01*
X37363571Y29842581D02*
X37458809Y29842581D01*
X37458809Y29842581D02*
X37554047Y29794962D01*
X37554047Y29794962D02*
X37601666Y29747343D01*
X37601666Y29747343D02*
X37649285Y29652105D01*
X37649285Y29652105D02*
X37696904Y29461629D01*
X37696904Y29461629D02*
X37696904Y29223534D01*
X37696904Y29223534D02*
X37649285Y29033058D01*
X37649285Y29033058D02*
X37601666Y28937820D01*
X37601666Y28937820D02*
X37554047Y28890200D01*
X37554047Y28890200D02*
X37458809Y28842581D01*
X37458809Y28842581D02*
X37363571Y28842581D01*
X37363571Y28842581D02*
X37268333Y28890200D01*
X37268333Y28890200D02*
X37220714Y28937820D01*
X37220714Y28937820D02*
X37173095Y29033058D01*
X37173095Y29033058D02*
X37125476Y29223534D01*
X37125476Y29223534D02*
X37125476Y29461629D01*
X37125476Y29461629D02*
X37173095Y29652105D01*
X37173095Y29652105D02*
X37220714Y29747343D01*
X37220714Y29747343D02*
X37268333Y29794962D01*
X37268333Y29794962D02*
X37363571Y29842581D01*
X38315952Y29842581D02*
X38411190Y29842581D01*
X38411190Y29842581D02*
X38506428Y29794962D01*
X38506428Y29794962D02*
X38554047Y29747343D01*
X38554047Y29747343D02*
X38601666Y29652105D01*
X38601666Y29652105D02*
X38649285Y29461629D01*
X38649285Y29461629D02*
X38649285Y29223534D01*
X38649285Y29223534D02*
X38601666Y29033058D01*
X38601666Y29033058D02*
X38554047Y28937820D01*
X38554047Y28937820D02*
X38506428Y28890200D01*
X38506428Y28890200D02*
X38411190Y28842581D01*
X38411190Y28842581D02*
X38315952Y28842581D01*
X38315952Y28842581D02*
X38220714Y28890200D01*
X38220714Y28890200D02*
X38173095Y28937820D01*
X38173095Y28937820D02*
X38125476Y29033058D01*
X38125476Y29033058D02*
X38077857Y29223534D01*
X38077857Y29223534D02*
X38077857Y29461629D01*
X38077857Y29461629D02*
X38125476Y29652105D01*
X38125476Y29652105D02*
X38173095Y29747343D01*
X38173095Y29747343D02*
X38220714Y29794962D01*
X38220714Y29794962D02*
X38315952Y29842581D01*
X39839762Y28842581D02*
X39839762Y29509248D01*
X39839762Y29414010D02*
X39887381Y29461629D01*
X39887381Y29461629D02*
X39982619Y29509248D01*
X39982619Y29509248D02*
X40125476Y29509248D01*
X40125476Y29509248D02*
X40220714Y29461629D01*
X40220714Y29461629D02*
X40268333Y29366391D01*
X40268333Y29366391D02*
X40268333Y28842581D01*
X40268333Y29366391D02*
X40315952Y29461629D01*
X40315952Y29461629D02*
X40411190Y29509248D01*
X40411190Y29509248D02*
X40554047Y29509248D01*
X40554047Y29509248D02*
X40649286Y29461629D01*
X40649286Y29461629D02*
X40696905Y29366391D01*
X40696905Y29366391D02*
X40696905Y28842581D01*
X41173095Y28842581D02*
X41173095Y29509248D01*
X41173095Y29414010D02*
X41220714Y29461629D01*
X41220714Y29461629D02*
X41315952Y29509248D01*
X41315952Y29509248D02*
X41458809Y29509248D01*
X41458809Y29509248D02*
X41554047Y29461629D01*
X41554047Y29461629D02*
X41601666Y29366391D01*
X41601666Y29366391D02*
X41601666Y28842581D01*
X41601666Y29366391D02*
X41649285Y29461629D01*
X41649285Y29461629D02*
X41744523Y29509248D01*
X41744523Y29509248D02*
X41887380Y29509248D01*
X41887380Y29509248D02*
X41982619Y29461629D01*
X41982619Y29461629D02*
X42030238Y29366391D01*
X42030238Y29366391D02*
X42030238Y28842581D01*
X29242419Y17733334D02*
X29242419Y17542858D01*
X29242419Y17542858D02*
X29290038Y17447620D01*
X29290038Y17447620D02*
X29337657Y17400001D01*
X29337657Y17400001D02*
X29480514Y17304763D01*
X29480514Y17304763D02*
X29670990Y17257144D01*
X29670990Y17257144D02*
X30051942Y17257144D01*
X30051942Y17257144D02*
X30147180Y17304763D01*
X30147180Y17304763D02*
X30194800Y17352382D01*
X30194800Y17352382D02*
X30242419Y17447620D01*
X30242419Y17447620D02*
X30242419Y17638096D01*
X30242419Y17638096D02*
X30194800Y17733334D01*
X30194800Y17733334D02*
X30147180Y17780953D01*
X30147180Y17780953D02*
X30051942Y17828572D01*
X30051942Y17828572D02*
X29813847Y17828572D01*
X29813847Y17828572D02*
X29718609Y17780953D01*
X29718609Y17780953D02*
X29670990Y17733334D01*
X29670990Y17733334D02*
X29623371Y17638096D01*
X29623371Y17638096D02*
X29623371Y17447620D01*
X29623371Y17447620D02*
X29670990Y17352382D01*
X29670990Y17352382D02*
X29718609Y17304763D01*
X29718609Y17304763D02*
X29813847Y17257144D01*
X30194800Y18304763D02*
X30242419Y18304763D01*
X30242419Y18304763D02*
X30337657Y18257144D01*
X30337657Y18257144D02*
X30385276Y18209525D01*
X29242419Y19161905D02*
X29242419Y18971429D01*
X29242419Y18971429D02*
X29290038Y18876191D01*
X29290038Y18876191D02*
X29337657Y18828572D01*
X29337657Y18828572D02*
X29480514Y18733334D01*
X29480514Y18733334D02*
X29670990Y18685715D01*
X29670990Y18685715D02*
X30051942Y18685715D01*
X30051942Y18685715D02*
X30147180Y18733334D01*
X30147180Y18733334D02*
X30194800Y18780953D01*
X30194800Y18780953D02*
X30242419Y18876191D01*
X30242419Y18876191D02*
X30242419Y19066667D01*
X30242419Y19066667D02*
X30194800Y19161905D01*
X30194800Y19161905D02*
X30147180Y19209524D01*
X30147180Y19209524D02*
X30051942Y19257143D01*
X30051942Y19257143D02*
X29813847Y19257143D01*
X29813847Y19257143D02*
X29718609Y19209524D01*
X29718609Y19209524D02*
X29670990Y19161905D01*
X29670990Y19161905D02*
X29623371Y19066667D01*
X29623371Y19066667D02*
X29623371Y18876191D01*
X29623371Y18876191D02*
X29670990Y18780953D01*
X29670990Y18780953D02*
X29718609Y18733334D01*
X29718609Y18733334D02*
X29813847Y18685715D01*
X29242419Y19876191D02*
X29242419Y19971429D01*
X29242419Y19971429D02*
X29290038Y20066667D01*
X29290038Y20066667D02*
X29337657Y20114286D01*
X29337657Y20114286D02*
X29432895Y20161905D01*
X29432895Y20161905D02*
X29623371Y20209524D01*
X29623371Y20209524D02*
X29861466Y20209524D01*
X29861466Y20209524D02*
X30051942Y20161905D01*
X30051942Y20161905D02*
X30147180Y20114286D01*
X30147180Y20114286D02*
X30194800Y20066667D01*
X30194800Y20066667D02*
X30242419Y19971429D01*
X30242419Y19971429D02*
X30242419Y19876191D01*
X30242419Y19876191D02*
X30194800Y19780953D01*
X30194800Y19780953D02*
X30147180Y19733334D01*
X30147180Y19733334D02*
X30051942Y19685715D01*
X30051942Y19685715D02*
X29861466Y19638096D01*
X29861466Y19638096D02*
X29623371Y19638096D01*
X29623371Y19638096D02*
X29432895Y19685715D01*
X29432895Y19685715D02*
X29337657Y19733334D01*
X29337657Y19733334D02*
X29290038Y19780953D01*
X29290038Y19780953D02*
X29242419Y19876191D01*
X29242419Y20828572D02*
X29242419Y20923810D01*
X29242419Y20923810D02*
X29290038Y21019048D01*
X29290038Y21019048D02*
X29337657Y21066667D01*
X29337657Y21066667D02*
X29432895Y21114286D01*
X29432895Y21114286D02*
X29623371Y21161905D01*
X29623371Y21161905D02*
X29861466Y21161905D01*
X29861466Y21161905D02*
X30051942Y21114286D01*
X30051942Y21114286D02*
X30147180Y21066667D01*
X30147180Y21066667D02*
X30194800Y21019048D01*
X30194800Y21019048D02*
X30242419Y20923810D01*
X30242419Y20923810D02*
X30242419Y20828572D01*
X30242419Y20828572D02*
X30194800Y20733334D01*
X30194800Y20733334D02*
X30147180Y20685715D01*
X30147180Y20685715D02*
X30051942Y20638096D01*
X30051942Y20638096D02*
X29861466Y20590477D01*
X29861466Y20590477D02*
X29623371Y20590477D01*
X29623371Y20590477D02*
X29432895Y20638096D01*
X29432895Y20638096D02*
X29337657Y20685715D01*
X29337657Y20685715D02*
X29290038Y20733334D01*
X29290038Y20733334D02*
X29242419Y20828572D01*
X29242419Y21780953D02*
X29242419Y21876191D01*
X29242419Y21876191D02*
X29290038Y21971429D01*
X29290038Y21971429D02*
X29337657Y22019048D01*
X29337657Y22019048D02*
X29432895Y22066667D01*
X29432895Y22066667D02*
X29623371Y22114286D01*
X29623371Y22114286D02*
X29861466Y22114286D01*
X29861466Y22114286D02*
X30051942Y22066667D01*
X30051942Y22066667D02*
X30147180Y22019048D01*
X30147180Y22019048D02*
X30194800Y21971429D01*
X30194800Y21971429D02*
X30242419Y21876191D01*
X30242419Y21876191D02*
X30242419Y21780953D01*
X30242419Y21780953D02*
X30194800Y21685715D01*
X30194800Y21685715D02*
X30147180Y21638096D01*
X30147180Y21638096D02*
X30051942Y21590477D01*
X30051942Y21590477D02*
X29861466Y21542858D01*
X29861466Y21542858D02*
X29623371Y21542858D01*
X29623371Y21542858D02*
X29432895Y21590477D01*
X29432895Y21590477D02*
X29337657Y21638096D01*
X29337657Y21638096D02*
X29290038Y21685715D01*
X29290038Y21685715D02*
X29242419Y21780953D01*
X30242419Y23304763D02*
X29575752Y23304763D01*
X29670990Y23304763D02*
X29623371Y23352382D01*
X29623371Y23352382D02*
X29575752Y23447620D01*
X29575752Y23447620D02*
X29575752Y23590477D01*
X29575752Y23590477D02*
X29623371Y23685715D01*
X29623371Y23685715D02*
X29718609Y23733334D01*
X29718609Y23733334D02*
X30242419Y23733334D01*
X29718609Y23733334D02*
X29623371Y23780953D01*
X29623371Y23780953D02*
X29575752Y23876191D01*
X29575752Y23876191D02*
X29575752Y24019048D01*
X29575752Y24019048D02*
X29623371Y24114287D01*
X29623371Y24114287D02*
X29718609Y24161906D01*
X29718609Y24161906D02*
X30242419Y24161906D01*
X30242419Y24638096D02*
X29575752Y24638096D01*
X29670990Y24638096D02*
X29623371Y24685715D01*
X29623371Y24685715D02*
X29575752Y24780953D01*
X29575752Y24780953D02*
X29575752Y24923810D01*
X29575752Y24923810D02*
X29623371Y25019048D01*
X29623371Y25019048D02*
X29718609Y25066667D01*
X29718609Y25066667D02*
X30242419Y25066667D01*
X29718609Y25066667D02*
X29623371Y25114286D01*
X29623371Y25114286D02*
X29575752Y25209524D01*
X29575752Y25209524D02*
X29575752Y25352381D01*
X29575752Y25352381D02*
X29623371Y25447620D01*
X29623371Y25447620D02*
X29718609Y25495239D01*
X29718609Y25495239D02*
X30242419Y25495239D01*
X55815952Y28042581D02*
X55339762Y28042581D01*
X55339762Y28042581D02*
X55292143Y27566391D01*
X55292143Y27566391D02*
X55339762Y27614010D01*
X55339762Y27614010D02*
X55435000Y27661629D01*
X55435000Y27661629D02*
X55673095Y27661629D01*
X55673095Y27661629D02*
X55768333Y27614010D01*
X55768333Y27614010D02*
X55815952Y27566391D01*
X55815952Y27566391D02*
X55863571Y27471153D01*
X55863571Y27471153D02*
X55863571Y27233058D01*
X55863571Y27233058D02*
X55815952Y27137820D01*
X55815952Y27137820D02*
X55768333Y27090200D01*
X55768333Y27090200D02*
X55673095Y27042581D01*
X55673095Y27042581D02*
X55435000Y27042581D01*
X55435000Y27042581D02*
X55339762Y27090200D01*
X55339762Y27090200D02*
X55292143Y27137820D01*
X56339762Y27090200D02*
X56339762Y27042581D01*
X56339762Y27042581D02*
X56292143Y26947343D01*
X56292143Y26947343D02*
X56244524Y26899724D01*
X56673095Y28042581D02*
X57292142Y28042581D01*
X57292142Y28042581D02*
X56958809Y27661629D01*
X56958809Y27661629D02*
X57101666Y27661629D01*
X57101666Y27661629D02*
X57196904Y27614010D01*
X57196904Y27614010D02*
X57244523Y27566391D01*
X57244523Y27566391D02*
X57292142Y27471153D01*
X57292142Y27471153D02*
X57292142Y27233058D01*
X57292142Y27233058D02*
X57244523Y27137820D01*
X57244523Y27137820D02*
X57196904Y27090200D01*
X57196904Y27090200D02*
X57101666Y27042581D01*
X57101666Y27042581D02*
X56815952Y27042581D01*
X56815952Y27042581D02*
X56720714Y27090200D01*
X56720714Y27090200D02*
X56673095Y27137820D01*
X57911190Y28042581D02*
X58006428Y28042581D01*
X58006428Y28042581D02*
X58101666Y27994962D01*
X58101666Y27994962D02*
X58149285Y27947343D01*
X58149285Y27947343D02*
X58196904Y27852105D01*
X58196904Y27852105D02*
X58244523Y27661629D01*
X58244523Y27661629D02*
X58244523Y27423534D01*
X58244523Y27423534D02*
X58196904Y27233058D01*
X58196904Y27233058D02*
X58149285Y27137820D01*
X58149285Y27137820D02*
X58101666Y27090200D01*
X58101666Y27090200D02*
X58006428Y27042581D01*
X58006428Y27042581D02*
X57911190Y27042581D01*
X57911190Y27042581D02*
X57815952Y27090200D01*
X57815952Y27090200D02*
X57768333Y27137820D01*
X57768333Y27137820D02*
X57720714Y27233058D01*
X57720714Y27233058D02*
X57673095Y27423534D01*
X57673095Y27423534D02*
X57673095Y27661629D01*
X57673095Y27661629D02*
X57720714Y27852105D01*
X57720714Y27852105D02*
X57768333Y27947343D01*
X57768333Y27947343D02*
X57815952Y27994962D01*
X57815952Y27994962D02*
X57911190Y28042581D01*
X58863571Y28042581D02*
X58958809Y28042581D01*
X58958809Y28042581D02*
X59054047Y27994962D01*
X59054047Y27994962D02*
X59101666Y27947343D01*
X59101666Y27947343D02*
X59149285Y27852105D01*
X59149285Y27852105D02*
X59196904Y27661629D01*
X59196904Y27661629D02*
X59196904Y27423534D01*
X59196904Y27423534D02*
X59149285Y27233058D01*
X59149285Y27233058D02*
X59101666Y27137820D01*
X59101666Y27137820D02*
X59054047Y27090200D01*
X59054047Y27090200D02*
X58958809Y27042581D01*
X58958809Y27042581D02*
X58863571Y27042581D01*
X58863571Y27042581D02*
X58768333Y27090200D01*
X58768333Y27090200D02*
X58720714Y27137820D01*
X58720714Y27137820D02*
X58673095Y27233058D01*
X58673095Y27233058D02*
X58625476Y27423534D01*
X58625476Y27423534D02*
X58625476Y27661629D01*
X58625476Y27661629D02*
X58673095Y27852105D01*
X58673095Y27852105D02*
X58720714Y27947343D01*
X58720714Y27947343D02*
X58768333Y27994962D01*
X58768333Y27994962D02*
X58863571Y28042581D01*
X59815952Y28042581D02*
X59911190Y28042581D01*
X59911190Y28042581D02*
X60006428Y27994962D01*
X60006428Y27994962D02*
X60054047Y27947343D01*
X60054047Y27947343D02*
X60101666Y27852105D01*
X60101666Y27852105D02*
X60149285Y27661629D01*
X60149285Y27661629D02*
X60149285Y27423534D01*
X60149285Y27423534D02*
X60101666Y27233058D01*
X60101666Y27233058D02*
X60054047Y27137820D01*
X60054047Y27137820D02*
X60006428Y27090200D01*
X60006428Y27090200D02*
X59911190Y27042581D01*
X59911190Y27042581D02*
X59815952Y27042581D01*
X59815952Y27042581D02*
X59720714Y27090200D01*
X59720714Y27090200D02*
X59673095Y27137820D01*
X59673095Y27137820D02*
X59625476Y27233058D01*
X59625476Y27233058D02*
X59577857Y27423534D01*
X59577857Y27423534D02*
X59577857Y27661629D01*
X59577857Y27661629D02*
X59625476Y27852105D01*
X59625476Y27852105D02*
X59673095Y27947343D01*
X59673095Y27947343D02*
X59720714Y27994962D01*
X59720714Y27994962D02*
X59815952Y28042581D01*
X61339762Y27042581D02*
X61339762Y27709248D01*
X61339762Y27614010D02*
X61387381Y27661629D01*
X61387381Y27661629D02*
X61482619Y27709248D01*
X61482619Y27709248D02*
X61625476Y27709248D01*
X61625476Y27709248D02*
X61720714Y27661629D01*
X61720714Y27661629D02*
X61768333Y27566391D01*
X61768333Y27566391D02*
X61768333Y27042581D01*
X61768333Y27566391D02*
X61815952Y27661629D01*
X61815952Y27661629D02*
X61911190Y27709248D01*
X61911190Y27709248D02*
X62054047Y27709248D01*
X62054047Y27709248D02*
X62149286Y27661629D01*
X62149286Y27661629D02*
X62196905Y27566391D01*
X62196905Y27566391D02*
X62196905Y27042581D01*
X62673095Y27042581D02*
X62673095Y27709248D01*
X62673095Y27614010D02*
X62720714Y27661629D01*
X62720714Y27661629D02*
X62815952Y27709248D01*
X62815952Y27709248D02*
X62958809Y27709248D01*
X62958809Y27709248D02*
X63054047Y27661629D01*
X63054047Y27661629D02*
X63101666Y27566391D01*
X63101666Y27566391D02*
X63101666Y27042581D01*
X63101666Y27566391D02*
X63149285Y27661629D01*
X63149285Y27661629D02*
X63244523Y27709248D01*
X63244523Y27709248D02*
X63387380Y27709248D01*
X63387380Y27709248D02*
X63482619Y27661629D01*
X63482619Y27661629D02*
X63530238Y27566391D01*
X63530238Y27566391D02*
X63530238Y27042581D01*
D10*
X19529819Y34461906D02*
X18529819Y34461906D01*
X18529819Y34461906D02*
X18529819Y34700001D01*
X18529819Y34700001D02*
X18577438Y34842858D01*
X18577438Y34842858D02*
X18672676Y34938096D01*
X18672676Y34938096D02*
X18767914Y34985715D01*
X18767914Y34985715D02*
X18958390Y35033334D01*
X18958390Y35033334D02*
X19101247Y35033334D01*
X19101247Y35033334D02*
X19291723Y34985715D01*
X19291723Y34985715D02*
X19386961Y34938096D01*
X19386961Y34938096D02*
X19482200Y34842858D01*
X19482200Y34842858D02*
X19529819Y34700001D01*
X19529819Y34700001D02*
X19529819Y34461906D01*
X18625057Y35414287D02*
X18577438Y35461906D01*
X18577438Y35461906D02*
X18529819Y35557144D01*
X18529819Y35557144D02*
X18529819Y35795239D01*
X18529819Y35795239D02*
X18577438Y35890477D01*
X18577438Y35890477D02*
X18625057Y35938096D01*
X18625057Y35938096D02*
X18720295Y35985715D01*
X18720295Y35985715D02*
X18815533Y35985715D01*
X18815533Y35985715D02*
X18958390Y35938096D01*
X18958390Y35938096D02*
X19529819Y35366668D01*
X19529819Y35366668D02*
X19529819Y35985715D01*
X18409819Y42558096D02*
X17409819Y42558096D01*
X18409819Y43129524D02*
X17838390Y42700953D01*
X17409819Y43129524D02*
X17981247Y42558096D01*
X47469819Y34461906D02*
X46469819Y34461906D01*
X46469819Y34461906D02*
X46469819Y34700001D01*
X46469819Y34700001D02*
X46517438Y34842858D01*
X46517438Y34842858D02*
X46612676Y34938096D01*
X46612676Y34938096D02*
X46707914Y34985715D01*
X46707914Y34985715D02*
X46898390Y35033334D01*
X46898390Y35033334D02*
X47041247Y35033334D01*
X47041247Y35033334D02*
X47231723Y34985715D01*
X47231723Y34985715D02*
X47326961Y34938096D01*
X47326961Y34938096D02*
X47422200Y34842858D01*
X47422200Y34842858D02*
X47469819Y34700001D01*
X47469819Y34700001D02*
X47469819Y34461906D01*
X47469819Y35985715D02*
X47469819Y35414287D01*
X47469819Y35700001D02*
X46469819Y35700001D01*
X46469819Y35700001D02*
X46612676Y35604763D01*
X46612676Y35604763D02*
X46707914Y35509525D01*
X46707914Y35509525D02*
X46755533Y35414287D01*
X46349819Y42558096D02*
X45349819Y42558096D01*
X46349819Y43129524D02*
X45778390Y42700953D01*
X45349819Y43129524D02*
X45921247Y42558096D01*
X28555142Y4435181D02*
X28221809Y4911372D01*
X27983714Y4435181D02*
X27983714Y5435181D01*
X27983714Y5435181D02*
X28364666Y5435181D01*
X28364666Y5435181D02*
X28459904Y5387562D01*
X28459904Y5387562D02*
X28507523Y5339943D01*
X28507523Y5339943D02*
X28555142Y5244705D01*
X28555142Y5244705D02*
X28555142Y5101848D01*
X28555142Y5101848D02*
X28507523Y5006610D01*
X28507523Y5006610D02*
X28459904Y4958991D01*
X28459904Y4958991D02*
X28364666Y4911372D01*
X28364666Y4911372D02*
X27983714Y4911372D01*
X29507523Y4435181D02*
X28936095Y4435181D01*
X29221809Y4435181D02*
X29221809Y5435181D01*
X29221809Y5435181D02*
X29126571Y5292324D01*
X29126571Y5292324D02*
X29031333Y5197086D01*
X29031333Y5197086D02*
X28936095Y5149467D01*
X30459904Y4435181D02*
X29888476Y4435181D01*
X30174190Y4435181D02*
X30174190Y5435181D01*
X30174190Y5435181D02*
X30078952Y5292324D01*
X30078952Y5292324D02*
X29983714Y5197086D01*
X29983714Y5197086D02*
X29888476Y5149467D01*
X3591666Y19025181D02*
X3591666Y18310896D01*
X3591666Y18310896D02*
X3544047Y18168039D01*
X3544047Y18168039D02*
X3448809Y18072800D01*
X3448809Y18072800D02*
X3305952Y18025181D01*
X3305952Y18025181D02*
X3210714Y18025181D01*
X4020238Y18929943D02*
X4067857Y18977562D01*
X4067857Y18977562D02*
X4163095Y19025181D01*
X4163095Y19025181D02*
X4401190Y19025181D01*
X4401190Y19025181D02*
X4496428Y18977562D01*
X4496428Y18977562D02*
X4544047Y18929943D01*
X4544047Y18929943D02*
X4591666Y18834705D01*
X4591666Y18834705D02*
X4591666Y18739467D01*
X4591666Y18739467D02*
X4544047Y18596610D01*
X4544047Y18596610D02*
X3972619Y18025181D01*
X3972619Y18025181D02*
X4591666Y18025181D01*
X5908095Y34105181D02*
X5908095Y33295658D01*
X5908095Y33295658D02*
X5955714Y33200420D01*
X5955714Y33200420D02*
X6003333Y33152800D01*
X6003333Y33152800D02*
X6098571Y33105181D01*
X6098571Y33105181D02*
X6289047Y33105181D01*
X6289047Y33105181D02*
X6384285Y33152800D01*
X6384285Y33152800D02*
X6431904Y33200420D01*
X6431904Y33200420D02*
X6479523Y33295658D01*
X6479523Y33295658D02*
X6479523Y34105181D01*
X6908095Y34009943D02*
X6955714Y34057562D01*
X6955714Y34057562D02*
X7050952Y34105181D01*
X7050952Y34105181D02*
X7289047Y34105181D01*
X7289047Y34105181D02*
X7384285Y34057562D01*
X7384285Y34057562D02*
X7431904Y34009943D01*
X7431904Y34009943D02*
X7479523Y33914705D01*
X7479523Y33914705D02*
X7479523Y33819467D01*
X7479523Y33819467D02*
X7431904Y33676610D01*
X7431904Y33676610D02*
X6860476Y33105181D01*
X6860476Y33105181D02*
X7479523Y33105181D01*
X62472095Y45549181D02*
X62472095Y46549181D01*
X62472095Y46072991D02*
X63043523Y46072991D01*
X63043523Y45549181D02*
X63043523Y46549181D01*
X63472095Y46453943D02*
X63519714Y46501562D01*
X63519714Y46501562D02*
X63614952Y46549181D01*
X63614952Y46549181D02*
X63853047Y46549181D01*
X63853047Y46549181D02*
X63948285Y46501562D01*
X63948285Y46501562D02*
X63995904Y46453943D01*
X63995904Y46453943D02*
X64043523Y46358705D01*
X64043523Y46358705D02*
X64043523Y46263467D01*
X64043523Y46263467D02*
X63995904Y46120610D01*
X63995904Y46120610D02*
X63424476Y45549181D01*
X63424476Y45549181D02*
X64043523Y45549181D01*
X51759819Y20203334D02*
X51283628Y19870001D01*
X51759819Y19631906D02*
X50759819Y19631906D01*
X50759819Y19631906D02*
X50759819Y20012858D01*
X50759819Y20012858D02*
X50807438Y20108096D01*
X50807438Y20108096D02*
X50855057Y20155715D01*
X50855057Y20155715D02*
X50950295Y20203334D01*
X50950295Y20203334D02*
X51093152Y20203334D01*
X51093152Y20203334D02*
X51188390Y20155715D01*
X51188390Y20155715D02*
X51236009Y20108096D01*
X51236009Y20108096D02*
X51283628Y20012858D01*
X51283628Y20012858D02*
X51283628Y19631906D01*
X51759819Y20679525D02*
X51759819Y20870001D01*
X51759819Y20870001D02*
X51712200Y20965239D01*
X51712200Y20965239D02*
X51664580Y21012858D01*
X51664580Y21012858D02*
X51521723Y21108096D01*
X51521723Y21108096D02*
X51331247Y21155715D01*
X51331247Y21155715D02*
X50950295Y21155715D01*
X50950295Y21155715D02*
X50855057Y21108096D01*
X50855057Y21108096D02*
X50807438Y21060477D01*
X50807438Y21060477D02*
X50759819Y20965239D01*
X50759819Y20965239D02*
X50759819Y20774763D01*
X50759819Y20774763D02*
X50807438Y20679525D01*
X50807438Y20679525D02*
X50855057Y20631906D01*
X50855057Y20631906D02*
X50950295Y20584287D01*
X50950295Y20584287D02*
X51188390Y20584287D01*
X51188390Y20584287D02*
X51283628Y20631906D01*
X51283628Y20631906D02*
X51331247Y20679525D01*
X51331247Y20679525D02*
X51378866Y20774763D01*
X51378866Y20774763D02*
X51378866Y20965239D01*
X51378866Y20965239D02*
X51331247Y21060477D01*
X51331247Y21060477D02*
X51283628Y21108096D01*
X51283628Y21108096D02*
X51188390Y21155715D01*
X31743221Y39225420D02*
X31695602Y39177800D01*
X31695602Y39177800D02*
X31552745Y39130181D01*
X31552745Y39130181D02*
X31457507Y39130181D01*
X31457507Y39130181D02*
X31314650Y39177800D01*
X31314650Y39177800D02*
X31219412Y39273039D01*
X31219412Y39273039D02*
X31171793Y39368277D01*
X31171793Y39368277D02*
X31124174Y39558753D01*
X31124174Y39558753D02*
X31124174Y39701610D01*
X31124174Y39701610D02*
X31171793Y39892086D01*
X31171793Y39892086D02*
X31219412Y39987324D01*
X31219412Y39987324D02*
X31314650Y40082562D01*
X31314650Y40082562D02*
X31457507Y40130181D01*
X31457507Y40130181D02*
X31552745Y40130181D01*
X31552745Y40130181D02*
X31695602Y40082562D01*
X31695602Y40082562D02*
X31743221Y40034943D01*
X32695602Y39130181D02*
X32124174Y39130181D01*
X32409888Y39130181D02*
X32409888Y40130181D01*
X32409888Y40130181D02*
X32314650Y39987324D01*
X32314650Y39987324D02*
X32219412Y39892086D01*
X32219412Y39892086D02*
X32124174Y39844467D01*
X2888095Y45665181D02*
X2888095Y46665181D01*
X2888095Y46188991D02*
X3459523Y46188991D01*
X3459523Y45665181D02*
X3459523Y46665181D01*
X4459523Y45665181D02*
X3888095Y45665181D01*
X4173809Y45665181D02*
X4173809Y46665181D01*
X4173809Y46665181D02*
X4078571Y46522324D01*
X4078571Y46522324D02*
X3983333Y46427086D01*
X3983333Y46427086D02*
X3888095Y46379467D01*
X26448095Y24755181D02*
X26448095Y23945658D01*
X26448095Y23945658D02*
X26495714Y23850420D01*
X26495714Y23850420D02*
X26543333Y23802800D01*
X26543333Y23802800D02*
X26638571Y23755181D01*
X26638571Y23755181D02*
X26829047Y23755181D01*
X26829047Y23755181D02*
X26924285Y23802800D01*
X26924285Y23802800D02*
X26971904Y23850420D01*
X26971904Y23850420D02*
X27019523Y23945658D01*
X27019523Y23945658D02*
X27019523Y24755181D01*
X27924285Y24421848D02*
X27924285Y23755181D01*
X27686190Y24802800D02*
X27448095Y24088515D01*
X27448095Y24088515D02*
X28067142Y24088515D01*
X2888095Y7665181D02*
X2888095Y8665181D01*
X2888095Y8188991D02*
X3459523Y8188991D01*
X3459523Y7665181D02*
X3459523Y8665181D01*
X3840476Y8665181D02*
X4459523Y8665181D01*
X4459523Y8665181D02*
X4126190Y8284229D01*
X4126190Y8284229D02*
X4269047Y8284229D01*
X4269047Y8284229D02*
X4364285Y8236610D01*
X4364285Y8236610D02*
X4411904Y8188991D01*
X4411904Y8188991D02*
X4459523Y8093753D01*
X4459523Y8093753D02*
X4459523Y7855658D01*
X4459523Y7855658D02*
X4411904Y7760420D01*
X4411904Y7760420D02*
X4364285Y7712800D01*
X4364285Y7712800D02*
X4269047Y7665181D01*
X4269047Y7665181D02*
X3983333Y7665181D01*
X3983333Y7665181D02*
X3888095Y7712800D01*
X3888095Y7712800D02*
X3840476Y7760420D01*
X13183333Y11155181D02*
X12850000Y11631372D01*
X12611905Y11155181D02*
X12611905Y12155181D01*
X12611905Y12155181D02*
X12992857Y12155181D01*
X12992857Y12155181D02*
X13088095Y12107562D01*
X13088095Y12107562D02*
X13135714Y12059943D01*
X13135714Y12059943D02*
X13183333Y11964705D01*
X13183333Y11964705D02*
X13183333Y11821848D01*
X13183333Y11821848D02*
X13135714Y11726610D01*
X13135714Y11726610D02*
X13088095Y11678991D01*
X13088095Y11678991D02*
X12992857Y11631372D01*
X12992857Y11631372D02*
X12611905Y11631372D01*
X13564286Y12059943D02*
X13611905Y12107562D01*
X13611905Y12107562D02*
X13707143Y12155181D01*
X13707143Y12155181D02*
X13945238Y12155181D01*
X13945238Y12155181D02*
X14040476Y12107562D01*
X14040476Y12107562D02*
X14088095Y12059943D01*
X14088095Y12059943D02*
X14135714Y11964705D01*
X14135714Y11964705D02*
X14135714Y11869467D01*
X14135714Y11869467D02*
X14088095Y11726610D01*
X14088095Y11726610D02*
X13516667Y11155181D01*
X13516667Y11155181D02*
X14135714Y11155181D01*
X25938446Y31725420D02*
X25890827Y31677800D01*
X25890827Y31677800D02*
X25747970Y31630181D01*
X25747970Y31630181D02*
X25652732Y31630181D01*
X25652732Y31630181D02*
X25509875Y31677800D01*
X25509875Y31677800D02*
X25414637Y31773039D01*
X25414637Y31773039D02*
X25367018Y31868277D01*
X25367018Y31868277D02*
X25319399Y32058753D01*
X25319399Y32058753D02*
X25319399Y32201610D01*
X25319399Y32201610D02*
X25367018Y32392086D01*
X25367018Y32392086D02*
X25414637Y32487324D01*
X25414637Y32487324D02*
X25509875Y32582562D01*
X25509875Y32582562D02*
X25652732Y32630181D01*
X25652732Y32630181D02*
X25747970Y32630181D01*
X25747970Y32630181D02*
X25890827Y32582562D01*
X25890827Y32582562D02*
X25938446Y32534943D01*
X26319399Y32534943D02*
X26367018Y32582562D01*
X26367018Y32582562D02*
X26462256Y32630181D01*
X26462256Y32630181D02*
X26700351Y32630181D01*
X26700351Y32630181D02*
X26795589Y32582562D01*
X26795589Y32582562D02*
X26843208Y32534943D01*
X26843208Y32534943D02*
X26890827Y32439705D01*
X26890827Y32439705D02*
X26890827Y32344467D01*
X26890827Y32344467D02*
X26843208Y32201610D01*
X26843208Y32201610D02*
X26271780Y31630181D01*
X26271780Y31630181D02*
X26890827Y31630181D01*
X28047142Y12731181D02*
X27713809Y13207372D01*
X27475714Y12731181D02*
X27475714Y13731181D01*
X27475714Y13731181D02*
X27856666Y13731181D01*
X27856666Y13731181D02*
X27951904Y13683562D01*
X27951904Y13683562D02*
X27999523Y13635943D01*
X27999523Y13635943D02*
X28047142Y13540705D01*
X28047142Y13540705D02*
X28047142Y13397848D01*
X28047142Y13397848D02*
X27999523Y13302610D01*
X27999523Y13302610D02*
X27951904Y13254991D01*
X27951904Y13254991D02*
X27856666Y13207372D01*
X27856666Y13207372D02*
X27475714Y13207372D01*
X28999523Y12731181D02*
X28428095Y12731181D01*
X28713809Y12731181D02*
X28713809Y13731181D01*
X28713809Y13731181D02*
X28618571Y13588324D01*
X28618571Y13588324D02*
X28523333Y13493086D01*
X28523333Y13493086D02*
X28428095Y13445467D01*
X29618571Y13731181D02*
X29713809Y13731181D01*
X29713809Y13731181D02*
X29809047Y13683562D01*
X29809047Y13683562D02*
X29856666Y13635943D01*
X29856666Y13635943D02*
X29904285Y13540705D01*
X29904285Y13540705D02*
X29951904Y13350229D01*
X29951904Y13350229D02*
X29951904Y13112134D01*
X29951904Y13112134D02*
X29904285Y12921658D01*
X29904285Y12921658D02*
X29856666Y12826420D01*
X29856666Y12826420D02*
X29809047Y12778800D01*
X29809047Y12778800D02*
X29713809Y12731181D01*
X29713809Y12731181D02*
X29618571Y12731181D01*
X29618571Y12731181D02*
X29523333Y12778800D01*
X29523333Y12778800D02*
X29475714Y12826420D01*
X29475714Y12826420D02*
X29428095Y12921658D01*
X29428095Y12921658D02*
X29380476Y13112134D01*
X29380476Y13112134D02*
X29380476Y13350229D01*
X29380476Y13350229D02*
X29428095Y13540705D01*
X29428095Y13540705D02*
X29475714Y13635943D01*
X29475714Y13635943D02*
X29523333Y13683562D01*
X29523333Y13683562D02*
X29618571Y13731181D01*
X16391666Y12560181D02*
X16391666Y11845896D01*
X16391666Y11845896D02*
X16344047Y11703039D01*
X16344047Y11703039D02*
X16248809Y11607800D01*
X16248809Y11607800D02*
X16105952Y11560181D01*
X16105952Y11560181D02*
X16010714Y11560181D01*
X17391666Y11560181D02*
X16820238Y11560181D01*
X17105952Y11560181D02*
X17105952Y12560181D01*
X17105952Y12560181D02*
X17010714Y12417324D01*
X17010714Y12417324D02*
X16915476Y12322086D01*
X16915476Y12322086D02*
X16820238Y12274467D01*
X62472095Y7449181D02*
X62472095Y8449181D01*
X62472095Y7972991D02*
X63043523Y7972991D01*
X63043523Y7449181D02*
X63043523Y8449181D01*
X63948285Y8115848D02*
X63948285Y7449181D01*
X63710190Y8496800D02*
X63472095Y7782515D01*
X63472095Y7782515D02*
X64091142Y7782515D01*
D12*
%TO.C,J3*%
X38325000Y1260000D02*
X38325000Y520000D01*
X38325000Y520000D02*
X38825000Y520000D01*
X38565000Y10681000D02*
X38565000Y760000D01*
X38565000Y10681000D02*
X48685000Y10681000D01*
X38565000Y7721000D02*
X48685000Y7721000D01*
X38565000Y2820000D02*
X48685000Y2820000D01*
X38565000Y1320000D02*
X48685000Y1320000D01*
X38565000Y760000D02*
X48685000Y760000D01*
X44898000Y4397000D02*
X44851000Y4351000D01*
X45091000Y4181000D02*
X45056000Y4146000D01*
X47195000Y6695000D02*
X47160000Y6659000D01*
X47400000Y6489000D02*
X47353000Y6443000D01*
X48685000Y10681000D02*
X48685000Y760000D01*
X39589574Y4736958D02*
G75*
G02*
X39590001Y6103999I1535419J683041D01*
G01*
X40441958Y6955426D02*
G75*
G02*
X41808999Y6954999I683041J-1535419D01*
G01*
X41153805Y3739748D02*
G75*
G02*
X40441000Y3885001I-28806J1680253D01*
G01*
X41808318Y3885245D02*
G75*
G02*
X41125000Y3740001I-683318J1534755D01*
G01*
X42660426Y6103042D02*
G75*
G02*
X42660000Y4736000I-1535426J-683042D01*
G01*
X47805000Y5420000D02*
G75*
G02*
X44445000Y5420000I-1680000J0D01*
G01*
X44445000Y5420000D02*
G75*
G02*
X47805000Y5420000I1680000J0D01*
G01*
%TO.C,R1*%
X9410000Y18055000D02*
X10180000Y18055000D01*
X10180000Y19425000D02*
X10180000Y16685000D01*
X10180000Y16685000D02*
X16720000Y16685000D01*
X16720000Y19425000D02*
X10180000Y19425000D01*
X16720000Y16685000D02*
X16720000Y19425000D01*
X17490000Y18055000D02*
X16720000Y18055000D01*
%TO.C,C4*%
X2370225Y23340000D02*
X2870225Y23340000D01*
X2620225Y23590000D02*
X2620225Y23090000D01*
X5175000Y24445000D02*
X5175000Y19285000D01*
X5215000Y24445000D02*
X5215000Y19285000D01*
X5255000Y24444000D02*
X5255000Y19286000D01*
X5295000Y24443000D02*
X5295000Y19287000D01*
X5335000Y24441000D02*
X5335000Y19289000D01*
X5375000Y24438000D02*
X5375000Y19292000D01*
X5415000Y24434000D02*
X5415000Y22905000D01*
X5415000Y20825000D02*
X5415000Y19296000D01*
X5455000Y24430000D02*
X5455000Y22905000D01*
X5455000Y20825000D02*
X5455000Y19300000D01*
X5495000Y24426000D02*
X5495000Y22905000D01*
X5495000Y20825000D02*
X5495000Y19304000D01*
X5535000Y24421000D02*
X5535000Y22905000D01*
X5535000Y20825000D02*
X5535000Y19309000D01*
X5575000Y24415000D02*
X5575000Y22905000D01*
X5575000Y20825000D02*
X5575000Y19315000D01*
X5615000Y24408000D02*
X5615000Y22905000D01*
X5615000Y20825000D02*
X5615000Y19322000D01*
X5655000Y24401000D02*
X5655000Y22905000D01*
X5655000Y20825000D02*
X5655000Y19329000D01*
X5695000Y24393000D02*
X5695000Y22905000D01*
X5695000Y20825000D02*
X5695000Y19337000D01*
X5735000Y24385000D02*
X5735000Y22905000D01*
X5735000Y20825000D02*
X5735000Y19345000D01*
X5775000Y24376000D02*
X5775000Y22905000D01*
X5775000Y20825000D02*
X5775000Y19354000D01*
X5815000Y24366000D02*
X5815000Y22905000D01*
X5815000Y20825000D02*
X5815000Y19364000D01*
X5855000Y24356000D02*
X5855000Y22905000D01*
X5855000Y20825000D02*
X5855000Y19374000D01*
X5896000Y24345000D02*
X5896000Y22905000D01*
X5896000Y20825000D02*
X5896000Y19385000D01*
X5936000Y24333000D02*
X5936000Y22905000D01*
X5936000Y20825000D02*
X5936000Y19397000D01*
X5976000Y24320000D02*
X5976000Y22905000D01*
X5976000Y20825000D02*
X5976000Y19410000D01*
X6016000Y24307000D02*
X6016000Y22905000D01*
X6016000Y20825000D02*
X6016000Y19423000D01*
X6056000Y24293000D02*
X6056000Y22905000D01*
X6056000Y20825000D02*
X6056000Y19437000D01*
X6096000Y24279000D02*
X6096000Y22905000D01*
X6096000Y20825000D02*
X6096000Y19451000D01*
X6136000Y24263000D02*
X6136000Y22905000D01*
X6136000Y20825000D02*
X6136000Y19467000D01*
X6176000Y24247000D02*
X6176000Y22905000D01*
X6176000Y20825000D02*
X6176000Y19483000D01*
X6216000Y24230000D02*
X6216000Y22905000D01*
X6216000Y20825000D02*
X6216000Y19500000D01*
X6256000Y24213000D02*
X6256000Y22905000D01*
X6256000Y20825000D02*
X6256000Y19517000D01*
X6296000Y24194000D02*
X6296000Y22905000D01*
X6296000Y20825000D02*
X6296000Y19536000D01*
X6336000Y24175000D02*
X6336000Y22905000D01*
X6336000Y20825000D02*
X6336000Y19555000D01*
X6376000Y24155000D02*
X6376000Y22905000D01*
X6376000Y20825000D02*
X6376000Y19575000D01*
X6416000Y24133000D02*
X6416000Y22905000D01*
X6416000Y20825000D02*
X6416000Y19597000D01*
X6456000Y24112000D02*
X6456000Y22905000D01*
X6456000Y20825000D02*
X6456000Y19618000D01*
X6496000Y24089000D02*
X6496000Y22905000D01*
X6496000Y20825000D02*
X6496000Y19641000D01*
X6536000Y24065000D02*
X6536000Y22905000D01*
X6536000Y20825000D02*
X6536000Y19665000D01*
X6576000Y24040000D02*
X6576000Y22905000D01*
X6576000Y20825000D02*
X6576000Y19690000D01*
X6616000Y24014000D02*
X6616000Y22905000D01*
X6616000Y20825000D02*
X6616000Y19716000D01*
X6656000Y23987000D02*
X6656000Y22905000D01*
X6656000Y20825000D02*
X6656000Y19743000D01*
X6696000Y23960000D02*
X6696000Y22905000D01*
X6696000Y20825000D02*
X6696000Y19770000D01*
X6736000Y23930000D02*
X6736000Y22905000D01*
X6736000Y20825000D02*
X6736000Y19800000D01*
X6776000Y23900000D02*
X6776000Y22905000D01*
X6776000Y20825000D02*
X6776000Y19830000D01*
X6816000Y23869000D02*
X6816000Y22905000D01*
X6816000Y20825000D02*
X6816000Y19861000D01*
X6856000Y23836000D02*
X6856000Y22905000D01*
X6856000Y20825000D02*
X6856000Y19894000D01*
X6896000Y23802000D02*
X6896000Y22905000D01*
X6896000Y20825000D02*
X6896000Y19928000D01*
X6936000Y23766000D02*
X6936000Y22905000D01*
X6936000Y20825000D02*
X6936000Y19964000D01*
X6976000Y23729000D02*
X6976000Y22905000D01*
X6976000Y20825000D02*
X6976000Y20001000D01*
X7016000Y23691000D02*
X7016000Y22905000D01*
X7016000Y20825000D02*
X7016000Y20039000D01*
X7056000Y23650000D02*
X7056000Y22905000D01*
X7056000Y20825000D02*
X7056000Y20080000D01*
X7096000Y23608000D02*
X7096000Y22905000D01*
X7096000Y20825000D02*
X7096000Y20122000D01*
X7136000Y23564000D02*
X7136000Y22905000D01*
X7136000Y20825000D02*
X7136000Y20166000D01*
X7176000Y23518000D02*
X7176000Y22905000D01*
X7176000Y20825000D02*
X7176000Y20212000D01*
X7216000Y23470000D02*
X7216000Y22905000D01*
X7216000Y20825000D02*
X7216000Y20260000D01*
X7256000Y23419000D02*
X7256000Y22905000D01*
X7256000Y20825000D02*
X7256000Y20311000D01*
X7296000Y23365000D02*
X7296000Y22905000D01*
X7296000Y20825000D02*
X7296000Y20365000D01*
X7336000Y23308000D02*
X7336000Y22905000D01*
X7336000Y20825000D02*
X7336000Y20422000D01*
X7376000Y23248000D02*
X7376000Y22905000D01*
X7376000Y20825000D02*
X7376000Y20482000D01*
X7416000Y23184000D02*
X7416000Y22905000D01*
X7416000Y20825000D02*
X7416000Y20546000D01*
X7456000Y23116000D02*
X7456000Y22905000D01*
X7456000Y20825000D02*
X7456000Y20614000D01*
X7496000Y23043000D02*
X7496000Y20687000D01*
X7536000Y22963000D02*
X7536000Y20767000D01*
X7576000Y22876000D02*
X7576000Y20854000D01*
X7616000Y22780000D02*
X7616000Y20950000D01*
X7656000Y22670000D02*
X7656000Y21060000D01*
X7696000Y22542000D02*
X7696000Y21188000D01*
X7736000Y22383000D02*
X7736000Y21347000D01*
X7776000Y22149000D02*
X7776000Y21581000D01*
X7795000Y21865000D02*
G75*
G02*
X2555000Y21865000I-2620000J0D01*
G01*
X2555000Y21865000D02*
G75*
G02*
X7795000Y21865000I2620000J0D01*
G01*
%TO.C,J5*%
X51175000Y4230000D02*
X51175000Y5560000D01*
X52505000Y4230000D02*
X51175000Y4230000D01*
X53775000Y6890000D02*
X58915000Y6890000D01*
X53775000Y4230000D02*
X53775000Y6890000D01*
X53775000Y4230000D02*
X58915000Y4230000D01*
X58915000Y4230000D02*
X58915000Y6890000D01*
%TO.C,R3*%
X34940000Y30215000D02*
X34940000Y23675000D01*
X34940000Y23675000D02*
X37680000Y23675000D01*
X36310000Y30985000D02*
X36310000Y30215000D01*
X36310000Y22905000D02*
X36310000Y23675000D01*
X37680000Y30215000D02*
X34940000Y30215000D01*
X37680000Y23675000D02*
X37680000Y30215000D01*
%TO.C,J4*%
X23620000Y42650000D02*
X23620000Y39990000D01*
X31300000Y42650000D02*
X23620000Y42650000D01*
X31300000Y42650000D02*
X31300000Y39990000D01*
X31300000Y39990000D02*
X23620000Y39990000D01*
X32570000Y42650000D02*
X33900000Y42650000D01*
X33900000Y42650000D02*
X33900000Y41320000D01*
%TO.C,C5*%
X2549113Y35551000D02*
X2549113Y36119000D01*
X2589113Y35317000D02*
X2589113Y36353000D01*
X2629113Y35158000D02*
X2629113Y36512000D01*
X2669113Y35030000D02*
X2669113Y36640000D01*
X2709113Y34920000D02*
X2709113Y36750000D01*
X2749113Y34824000D02*
X2749113Y36846000D01*
X2789113Y34737000D02*
X2789113Y36933000D01*
X2829113Y34657000D02*
X2829113Y37013000D01*
X2869113Y36875000D02*
X2869113Y37086000D01*
X2869113Y34584000D02*
X2869113Y34795000D01*
X2909113Y36875000D02*
X2909113Y37154000D01*
X2909113Y34516000D02*
X2909113Y34795000D01*
X2949113Y36875000D02*
X2949113Y37218000D01*
X2949113Y34452000D02*
X2949113Y34795000D01*
X2989113Y36875000D02*
X2989113Y37278000D01*
X2989113Y34392000D02*
X2989113Y34795000D01*
X3029113Y36875000D02*
X3029113Y37335000D01*
X3029113Y34335000D02*
X3029113Y34795000D01*
X3069113Y36875000D02*
X3069113Y37389000D01*
X3069113Y34281000D02*
X3069113Y34795000D01*
X3109113Y36875000D02*
X3109113Y37440000D01*
X3109113Y34230000D02*
X3109113Y34795000D01*
X3149113Y36875000D02*
X3149113Y37488000D01*
X3149113Y34182000D02*
X3149113Y34795000D01*
X3189113Y36875000D02*
X3189113Y37534000D01*
X3189113Y34136000D02*
X3189113Y34795000D01*
X3229113Y36875000D02*
X3229113Y37578000D01*
X3229113Y34092000D02*
X3229113Y34795000D01*
X3269113Y36875000D02*
X3269113Y37620000D01*
X3269113Y34050000D02*
X3269113Y34795000D01*
X3309113Y36875000D02*
X3309113Y37661000D01*
X3309113Y34009000D02*
X3309113Y34795000D01*
X3349113Y36875000D02*
X3349113Y37699000D01*
X3349113Y33971000D02*
X3349113Y34795000D01*
X3389113Y36875000D02*
X3389113Y37736000D01*
X3389113Y33934000D02*
X3389113Y34795000D01*
X3429113Y36875000D02*
X3429113Y37772000D01*
X3429113Y33898000D02*
X3429113Y34795000D01*
X3469113Y36875000D02*
X3469113Y37806000D01*
X3469113Y33864000D02*
X3469113Y34795000D01*
X3509113Y36875000D02*
X3509113Y37839000D01*
X3509113Y33831000D02*
X3509113Y34795000D01*
X3549113Y36875000D02*
X3549113Y37870000D01*
X3549113Y33800000D02*
X3549113Y34795000D01*
X3589113Y36875000D02*
X3589113Y37900000D01*
X3589113Y33770000D02*
X3589113Y34795000D01*
X3629113Y36875000D02*
X3629113Y37930000D01*
X3629113Y33740000D02*
X3629113Y34795000D01*
X3669113Y36875000D02*
X3669113Y37957000D01*
X3669113Y33713000D02*
X3669113Y34795000D01*
X3709113Y36875000D02*
X3709113Y37984000D01*
X3709113Y33686000D02*
X3709113Y34795000D01*
X3749113Y36875000D02*
X3749113Y38010000D01*
X3749113Y33660000D02*
X3749113Y34795000D01*
X3789113Y36875000D02*
X3789113Y38035000D01*
X3789113Y33635000D02*
X3789113Y34795000D01*
X3829113Y36875000D02*
X3829113Y38059000D01*
X3829113Y33611000D02*
X3829113Y34795000D01*
X3869113Y36875000D02*
X3869113Y38082000D01*
X3869113Y33588000D02*
X3869113Y34795000D01*
X3909113Y36875000D02*
X3909113Y38103000D01*
X3909113Y33567000D02*
X3909113Y34795000D01*
X3949113Y36875000D02*
X3949113Y38125000D01*
X3949113Y33545000D02*
X3949113Y34795000D01*
X3989113Y36875000D02*
X3989113Y38145000D01*
X3989113Y33525000D02*
X3989113Y34795000D01*
X4029113Y36875000D02*
X4029113Y38164000D01*
X4029113Y33506000D02*
X4029113Y34795000D01*
X4069113Y36875000D02*
X4069113Y38183000D01*
X4069113Y33487000D02*
X4069113Y34795000D01*
X4109113Y36875000D02*
X4109113Y38200000D01*
X4109113Y33470000D02*
X4109113Y34795000D01*
X4149113Y36875000D02*
X4149113Y38217000D01*
X4149113Y33453000D02*
X4149113Y34795000D01*
X4189113Y36875000D02*
X4189113Y38233000D01*
X4189113Y33437000D02*
X4189113Y34795000D01*
X4229113Y36875000D02*
X4229113Y38249000D01*
X4229113Y33421000D02*
X4229113Y34795000D01*
X4269113Y36875000D02*
X4269113Y38263000D01*
X4269113Y33407000D02*
X4269113Y34795000D01*
X4309113Y36875000D02*
X4309113Y38277000D01*
X4309113Y33393000D02*
X4309113Y34795000D01*
X4349113Y36875000D02*
X4349113Y38290000D01*
X4349113Y33380000D02*
X4349113Y34795000D01*
X4389113Y36875000D02*
X4389113Y38303000D01*
X4389113Y33367000D02*
X4389113Y34795000D01*
X4429113Y36875000D02*
X4429113Y38315000D01*
X4429113Y33355000D02*
X4429113Y34795000D01*
X4470113Y36875000D02*
X4470113Y38326000D01*
X4470113Y33344000D02*
X4470113Y34795000D01*
X4510113Y36875000D02*
X4510113Y38336000D01*
X4510113Y33334000D02*
X4510113Y34795000D01*
X4550113Y36875000D02*
X4550113Y38346000D01*
X4550113Y33324000D02*
X4550113Y34795000D01*
X4590113Y36875000D02*
X4590113Y38355000D01*
X4590113Y33315000D02*
X4590113Y34795000D01*
X4630113Y36875000D02*
X4630113Y38363000D01*
X4630113Y33307000D02*
X4630113Y34795000D01*
X4670113Y36875000D02*
X4670113Y38371000D01*
X4670113Y33299000D02*
X4670113Y34795000D01*
X4710113Y36875000D02*
X4710113Y38378000D01*
X4710113Y33292000D02*
X4710113Y34795000D01*
X4750113Y36875000D02*
X4750113Y38385000D01*
X4750113Y33285000D02*
X4750113Y34795000D01*
X4790113Y36875000D02*
X4790113Y38391000D01*
X4790113Y33279000D02*
X4790113Y34795000D01*
X4830113Y36875000D02*
X4830113Y38396000D01*
X4830113Y33274000D02*
X4830113Y34795000D01*
X4870113Y36875000D02*
X4870113Y38400000D01*
X4870113Y33270000D02*
X4870113Y34795000D01*
X4910113Y36875000D02*
X4910113Y38404000D01*
X4910113Y33266000D02*
X4910113Y34795000D01*
X4950113Y33262000D02*
X4950113Y38408000D01*
X4990113Y33259000D02*
X4990113Y38411000D01*
X5030113Y33257000D02*
X5030113Y38413000D01*
X5070113Y33256000D02*
X5070113Y38414000D01*
X5110113Y33255000D02*
X5110113Y38415000D01*
X5150113Y33255000D02*
X5150113Y38415000D01*
X7704888Y34110000D02*
X7704888Y34610000D01*
X7954888Y34360000D02*
X7454888Y34360000D01*
X7770113Y35835000D02*
G75*
G02*
X2530113Y35835000I-2620000J0D01*
G01*
X2530113Y35835000D02*
G75*
G02*
X7770113Y35835000I2620000J0D01*
G01*
%TO.C,R4*%
X19700000Y33390000D02*
X19700000Y26850000D01*
X19700000Y26850000D02*
X22440000Y26850000D01*
X21070000Y34160000D02*
X21070000Y33390000D01*
X21070000Y26080000D02*
X21070000Y26850000D01*
X22440000Y33390000D02*
X19700000Y33390000D01*
X22440000Y26850000D02*
X22440000Y33390000D01*
D11*
%TO.C,U1*%
X35285000Y18100000D02*
X62085000Y18100000D01*
X40585000Y24700000D02*
X40585000Y11500000D01*
X56785000Y24700000D02*
X56785000Y11500000D01*
X62085000Y24700000D02*
X35285000Y24700000D01*
X35285000Y11500000D01*
X62085000Y11500000D01*
X62085000Y24700000D01*
X34315952Y29842581D02*
X33839762Y29842581D01*
X33839762Y29842581D02*
X33792143Y29366391D01*
X33792143Y29366391D02*
X33839762Y29414010D01*
X33839762Y29414010D02*
X33935000Y29461629D01*
X33935000Y29461629D02*
X34173095Y29461629D01*
X34173095Y29461629D02*
X34268333Y29414010D01*
X34268333Y29414010D02*
X34315952Y29366391D01*
X34315952Y29366391D02*
X34363571Y29271153D01*
X34363571Y29271153D02*
X34363571Y29033058D01*
X34363571Y29033058D02*
X34315952Y28937820D01*
X34315952Y28937820D02*
X34268333Y28890200D01*
X34268333Y28890200D02*
X34173095Y28842581D01*
X34173095Y28842581D02*
X33935000Y28842581D01*
X33935000Y28842581D02*
X33839762Y28890200D01*
X33839762Y28890200D02*
X33792143Y28937820D01*
X34839762Y28890200D02*
X34839762Y28842581D01*
X34839762Y28842581D02*
X34792143Y28747343D01*
X34792143Y28747343D02*
X34744524Y28699724D01*
X35173095Y29842581D02*
X35792142Y29842581D01*
X35792142Y29842581D02*
X35458809Y29461629D01*
X35458809Y29461629D02*
X35601666Y29461629D01*
X35601666Y29461629D02*
X35696904Y29414010D01*
X35696904Y29414010D02*
X35744523Y29366391D01*
X35744523Y29366391D02*
X35792142Y29271153D01*
X35792142Y29271153D02*
X35792142Y29033058D01*
X35792142Y29033058D02*
X35744523Y28937820D01*
X35744523Y28937820D02*
X35696904Y28890200D01*
X35696904Y28890200D02*
X35601666Y28842581D01*
X35601666Y28842581D02*
X35315952Y28842581D01*
X35315952Y28842581D02*
X35220714Y28890200D01*
X35220714Y28890200D02*
X35173095Y28937820D01*
X36411190Y29842581D02*
X36506428Y29842581D01*
X36506428Y29842581D02*
X36601666Y29794962D01*
X36601666Y29794962D02*
X36649285Y29747343D01*
X36649285Y29747343D02*
X36696904Y29652105D01*
X36696904Y29652105D02*
X36744523Y29461629D01*
X36744523Y29461629D02*
X36744523Y29223534D01*
X36744523Y29223534D02*
X36696904Y29033058D01*
X36696904Y29033058D02*
X36649285Y28937820D01*
X36649285Y28937820D02*
X36601666Y28890200D01*
X36601666Y28890200D02*
X36506428Y28842581D01*
X36506428Y28842581D02*
X36411190Y28842581D01*
X36411190Y28842581D02*
X36315952Y28890200D01*
X36315952Y28890200D02*
X36268333Y28937820D01*
X36268333Y28937820D02*
X36220714Y29033058D01*
X36220714Y29033058D02*
X36173095Y29223534D01*
X36173095Y29223534D02*
X36173095Y29461629D01*
X36173095Y29461629D02*
X36220714Y29652105D01*
X36220714Y29652105D02*
X36268333Y29747343D01*
X36268333Y29747343D02*
X36315952Y29794962D01*
X36315952Y29794962D02*
X36411190Y29842581D01*
X37363571Y29842581D02*
X37458809Y29842581D01*
X37458809Y29842581D02*
X37554047Y29794962D01*
X37554047Y29794962D02*
X37601666Y29747343D01*
X37601666Y29747343D02*
X37649285Y29652105D01*
X37649285Y29652105D02*
X37696904Y29461629D01*
X37696904Y29461629D02*
X37696904Y29223534D01*
X37696904Y29223534D02*
X37649285Y29033058D01*
X37649285Y29033058D02*
X37601666Y28937820D01*
X37601666Y28937820D02*
X37554047Y28890200D01*
X37554047Y28890200D02*
X37458809Y28842581D01*
X37458809Y28842581D02*
X37363571Y28842581D01*
X37363571Y28842581D02*
X37268333Y28890200D01*
X37268333Y28890200D02*
X37220714Y28937820D01*
X37220714Y28937820D02*
X37173095Y29033058D01*
X37173095Y29033058D02*
X37125476Y29223534D01*
X37125476Y29223534D02*
X37125476Y29461629D01*
X37125476Y29461629D02*
X37173095Y29652105D01*
X37173095Y29652105D02*
X37220714Y29747343D01*
X37220714Y29747343D02*
X37268333Y29794962D01*
X37268333Y29794962D02*
X37363571Y29842581D01*
X38315952Y29842581D02*
X38411190Y29842581D01*
X38411190Y29842581D02*
X38506428Y29794962D01*
X38506428Y29794962D02*
X38554047Y29747343D01*
X38554047Y29747343D02*
X38601666Y29652105D01*
X38601666Y29652105D02*
X38649285Y29461629D01*
X38649285Y29461629D02*
X38649285Y29223534D01*
X38649285Y29223534D02*
X38601666Y29033058D01*
X38601666Y29033058D02*
X38554047Y28937820D01*
X38554047Y28937820D02*
X38506428Y28890200D01*
X38506428Y28890200D02*
X38411190Y28842581D01*
X38411190Y28842581D02*
X38315952Y28842581D01*
X38315952Y28842581D02*
X38220714Y28890200D01*
X38220714Y28890200D02*
X38173095Y28937820D01*
X38173095Y28937820D02*
X38125476Y29033058D01*
X38125476Y29033058D02*
X38077857Y29223534D01*
X38077857Y29223534D02*
X38077857Y29461629D01*
X38077857Y29461629D02*
X38125476Y29652105D01*
X38125476Y29652105D02*
X38173095Y29747343D01*
X38173095Y29747343D02*
X38220714Y29794962D01*
X38220714Y29794962D02*
X38315952Y29842581D01*
X39839762Y28842581D02*
X39839762Y29509248D01*
X39839762Y29414010D02*
X39887381Y29461629D01*
X39887381Y29461629D02*
X39982619Y29509248D01*
X39982619Y29509248D02*
X40125476Y29509248D01*
X40125476Y29509248D02*
X40220714Y29461629D01*
X40220714Y29461629D02*
X40268333Y29366391D01*
X40268333Y29366391D02*
X40268333Y28842581D01*
X40268333Y29366391D02*
X40315952Y29461629D01*
X40315952Y29461629D02*
X40411190Y29509248D01*
X40411190Y29509248D02*
X40554047Y29509248D01*
X40554047Y29509248D02*
X40649286Y29461629D01*
X40649286Y29461629D02*
X40696905Y29366391D01*
X40696905Y29366391D02*
X40696905Y28842581D01*
X41173095Y28842581D02*
X41173095Y29509248D01*
X41173095Y29414010D02*
X41220714Y29461629D01*
X41220714Y29461629D02*
X41315952Y29509248D01*
X41315952Y29509248D02*
X41458809Y29509248D01*
X41458809Y29509248D02*
X41554047Y29461629D01*
X41554047Y29461629D02*
X41601666Y29366391D01*
X41601666Y29366391D02*
X41601666Y28842581D01*
X41601666Y29366391D02*
X41649285Y29461629D01*
X41649285Y29461629D02*
X41744523Y29509248D01*
X41744523Y29509248D02*
X41887380Y29509248D01*
X41887380Y29509248D02*
X41982619Y29461629D01*
X41982619Y29461629D02*
X42030238Y29366391D01*
X42030238Y29366391D02*
X42030238Y28842581D01*
X35285000Y25200000D02*
X35285000Y28786420D01*
X40585000Y25200000D02*
X40585000Y28786420D01*
X35285000Y28200000D02*
X40585000Y28200000D01*
X35285000Y28200000D02*
X40585000Y28200000D01*
X35285000Y28200000D02*
X36411504Y28786421D01*
X35285000Y28200000D02*
X36411504Y27613579D01*
X40585000Y28200000D02*
X39458496Y27613579D01*
X40585000Y28200000D02*
X39458496Y28786421D01*
X29242419Y17733334D02*
X29242419Y17542858D01*
X29242419Y17542858D02*
X29290038Y17447620D01*
X29290038Y17447620D02*
X29337657Y17400001D01*
X29337657Y17400001D02*
X29480514Y17304763D01*
X29480514Y17304763D02*
X29670990Y17257144D01*
X29670990Y17257144D02*
X30051942Y17257144D01*
X30051942Y17257144D02*
X30147180Y17304763D01*
X30147180Y17304763D02*
X30194800Y17352382D01*
X30194800Y17352382D02*
X30242419Y17447620D01*
X30242419Y17447620D02*
X30242419Y17638096D01*
X30242419Y17638096D02*
X30194800Y17733334D01*
X30194800Y17733334D02*
X30147180Y17780953D01*
X30147180Y17780953D02*
X30051942Y17828572D01*
X30051942Y17828572D02*
X29813847Y17828572D01*
X29813847Y17828572D02*
X29718609Y17780953D01*
X29718609Y17780953D02*
X29670990Y17733334D01*
X29670990Y17733334D02*
X29623371Y17638096D01*
X29623371Y17638096D02*
X29623371Y17447620D01*
X29623371Y17447620D02*
X29670990Y17352382D01*
X29670990Y17352382D02*
X29718609Y17304763D01*
X29718609Y17304763D02*
X29813847Y17257144D01*
X30194800Y18304763D02*
X30242419Y18304763D01*
X30242419Y18304763D02*
X30337657Y18257144D01*
X30337657Y18257144D02*
X30385276Y18209525D01*
X29242419Y19161905D02*
X29242419Y18971429D01*
X29242419Y18971429D02*
X29290038Y18876191D01*
X29290038Y18876191D02*
X29337657Y18828572D01*
X29337657Y18828572D02*
X29480514Y18733334D01*
X29480514Y18733334D02*
X29670990Y18685715D01*
X29670990Y18685715D02*
X30051942Y18685715D01*
X30051942Y18685715D02*
X30147180Y18733334D01*
X30147180Y18733334D02*
X30194800Y18780953D01*
X30194800Y18780953D02*
X30242419Y18876191D01*
X30242419Y18876191D02*
X30242419Y19066667D01*
X30242419Y19066667D02*
X30194800Y19161905D01*
X30194800Y19161905D02*
X30147180Y19209524D01*
X30147180Y19209524D02*
X30051942Y19257143D01*
X30051942Y19257143D02*
X29813847Y19257143D01*
X29813847Y19257143D02*
X29718609Y19209524D01*
X29718609Y19209524D02*
X29670990Y19161905D01*
X29670990Y19161905D02*
X29623371Y19066667D01*
X29623371Y19066667D02*
X29623371Y18876191D01*
X29623371Y18876191D02*
X29670990Y18780953D01*
X29670990Y18780953D02*
X29718609Y18733334D01*
X29718609Y18733334D02*
X29813847Y18685715D01*
X29242419Y19876191D02*
X29242419Y19971429D01*
X29242419Y19971429D02*
X29290038Y20066667D01*
X29290038Y20066667D02*
X29337657Y20114286D01*
X29337657Y20114286D02*
X29432895Y20161905D01*
X29432895Y20161905D02*
X29623371Y20209524D01*
X29623371Y20209524D02*
X29861466Y20209524D01*
X29861466Y20209524D02*
X30051942Y20161905D01*
X30051942Y20161905D02*
X30147180Y20114286D01*
X30147180Y20114286D02*
X30194800Y20066667D01*
X30194800Y20066667D02*
X30242419Y19971429D01*
X30242419Y19971429D02*
X30242419Y19876191D01*
X30242419Y19876191D02*
X30194800Y19780953D01*
X30194800Y19780953D02*
X30147180Y19733334D01*
X30147180Y19733334D02*
X30051942Y19685715D01*
X30051942Y19685715D02*
X29861466Y19638096D01*
X29861466Y19638096D02*
X29623371Y19638096D01*
X29623371Y19638096D02*
X29432895Y19685715D01*
X29432895Y19685715D02*
X29337657Y19733334D01*
X29337657Y19733334D02*
X29290038Y19780953D01*
X29290038Y19780953D02*
X29242419Y19876191D01*
X29242419Y20828572D02*
X29242419Y20923810D01*
X29242419Y20923810D02*
X29290038Y21019048D01*
X29290038Y21019048D02*
X29337657Y21066667D01*
X29337657Y21066667D02*
X29432895Y21114286D01*
X29432895Y21114286D02*
X29623371Y21161905D01*
X29623371Y21161905D02*
X29861466Y21161905D01*
X29861466Y21161905D02*
X30051942Y21114286D01*
X30051942Y21114286D02*
X30147180Y21066667D01*
X30147180Y21066667D02*
X30194800Y21019048D01*
X30194800Y21019048D02*
X30242419Y20923810D01*
X30242419Y20923810D02*
X30242419Y20828572D01*
X30242419Y20828572D02*
X30194800Y20733334D01*
X30194800Y20733334D02*
X30147180Y20685715D01*
X30147180Y20685715D02*
X30051942Y20638096D01*
X30051942Y20638096D02*
X29861466Y20590477D01*
X29861466Y20590477D02*
X29623371Y20590477D01*
X29623371Y20590477D02*
X29432895Y20638096D01*
X29432895Y20638096D02*
X29337657Y20685715D01*
X29337657Y20685715D02*
X29290038Y20733334D01*
X29290038Y20733334D02*
X29242419Y20828572D01*
X29242419Y21780953D02*
X29242419Y21876191D01*
X29242419Y21876191D02*
X29290038Y21971429D01*
X29290038Y21971429D02*
X29337657Y22019048D01*
X29337657Y22019048D02*
X29432895Y22066667D01*
X29432895Y22066667D02*
X29623371Y22114286D01*
X29623371Y22114286D02*
X29861466Y22114286D01*
X29861466Y22114286D02*
X30051942Y22066667D01*
X30051942Y22066667D02*
X30147180Y22019048D01*
X30147180Y22019048D02*
X30194800Y21971429D01*
X30194800Y21971429D02*
X30242419Y21876191D01*
X30242419Y21876191D02*
X30242419Y21780953D01*
X30242419Y21780953D02*
X30194800Y21685715D01*
X30194800Y21685715D02*
X30147180Y21638096D01*
X30147180Y21638096D02*
X30051942Y21590477D01*
X30051942Y21590477D02*
X29861466Y21542858D01*
X29861466Y21542858D02*
X29623371Y21542858D01*
X29623371Y21542858D02*
X29432895Y21590477D01*
X29432895Y21590477D02*
X29337657Y21638096D01*
X29337657Y21638096D02*
X29290038Y21685715D01*
X29290038Y21685715D02*
X29242419Y21780953D01*
X30242419Y23304763D02*
X29575752Y23304763D01*
X29670990Y23304763D02*
X29623371Y23352382D01*
X29623371Y23352382D02*
X29575752Y23447620D01*
X29575752Y23447620D02*
X29575752Y23590477D01*
X29575752Y23590477D02*
X29623371Y23685715D01*
X29623371Y23685715D02*
X29718609Y23733334D01*
X29718609Y23733334D02*
X30242419Y23733334D01*
X29718609Y23733334D02*
X29623371Y23780953D01*
X29623371Y23780953D02*
X29575752Y23876191D01*
X29575752Y23876191D02*
X29575752Y24019048D01*
X29575752Y24019048D02*
X29623371Y24114287D01*
X29623371Y24114287D02*
X29718609Y24161906D01*
X29718609Y24161906D02*
X30242419Y24161906D01*
X30242419Y24638096D02*
X29575752Y24638096D01*
X29670990Y24638096D02*
X29623371Y24685715D01*
X29623371Y24685715D02*
X29575752Y24780953D01*
X29575752Y24780953D02*
X29575752Y24923810D01*
X29575752Y24923810D02*
X29623371Y25019048D01*
X29623371Y25019048D02*
X29718609Y25066667D01*
X29718609Y25066667D02*
X30242419Y25066667D01*
X29718609Y25066667D02*
X29623371Y25114286D01*
X29623371Y25114286D02*
X29575752Y25209524D01*
X29575752Y25209524D02*
X29575752Y25352381D01*
X29575752Y25352381D02*
X29623371Y25447620D01*
X29623371Y25447620D02*
X29718609Y25495239D01*
X29718609Y25495239D02*
X30242419Y25495239D01*
X40085000Y24700000D02*
X30298580Y24700000D01*
X40085000Y18100000D02*
X30298580Y18100000D01*
X30885000Y24700000D02*
X30885000Y18100000D01*
X30885000Y24700000D02*
X30885000Y18100000D01*
X30885000Y24700000D02*
X31471421Y23573496D01*
X30885000Y24700000D02*
X30298579Y23573496D01*
X30885000Y18100000D02*
X30298579Y19226504D01*
X30885000Y18100000D02*
X31471421Y19226504D01*
X55815952Y28042581D02*
X55339762Y28042581D01*
X55339762Y28042581D02*
X55292143Y27566391D01*
X55292143Y27566391D02*
X55339762Y27614010D01*
X55339762Y27614010D02*
X55435000Y27661629D01*
X55435000Y27661629D02*
X55673095Y27661629D01*
X55673095Y27661629D02*
X55768333Y27614010D01*
X55768333Y27614010D02*
X55815952Y27566391D01*
X55815952Y27566391D02*
X55863571Y27471153D01*
X55863571Y27471153D02*
X55863571Y27233058D01*
X55863571Y27233058D02*
X55815952Y27137820D01*
X55815952Y27137820D02*
X55768333Y27090200D01*
X55768333Y27090200D02*
X55673095Y27042581D01*
X55673095Y27042581D02*
X55435000Y27042581D01*
X55435000Y27042581D02*
X55339762Y27090200D01*
X55339762Y27090200D02*
X55292143Y27137820D01*
X56339762Y27090200D02*
X56339762Y27042581D01*
X56339762Y27042581D02*
X56292143Y26947343D01*
X56292143Y26947343D02*
X56244524Y26899724D01*
X56673095Y28042581D02*
X57292142Y28042581D01*
X57292142Y28042581D02*
X56958809Y27661629D01*
X56958809Y27661629D02*
X57101666Y27661629D01*
X57101666Y27661629D02*
X57196904Y27614010D01*
X57196904Y27614010D02*
X57244523Y27566391D01*
X57244523Y27566391D02*
X57292142Y27471153D01*
X57292142Y27471153D02*
X57292142Y27233058D01*
X57292142Y27233058D02*
X57244523Y27137820D01*
X57244523Y27137820D02*
X57196904Y27090200D01*
X57196904Y27090200D02*
X57101666Y27042581D01*
X57101666Y27042581D02*
X56815952Y27042581D01*
X56815952Y27042581D02*
X56720714Y27090200D01*
X56720714Y27090200D02*
X56673095Y27137820D01*
X57911190Y28042581D02*
X58006428Y28042581D01*
X58006428Y28042581D02*
X58101666Y27994962D01*
X58101666Y27994962D02*
X58149285Y27947343D01*
X58149285Y27947343D02*
X58196904Y27852105D01*
X58196904Y27852105D02*
X58244523Y27661629D01*
X58244523Y27661629D02*
X58244523Y27423534D01*
X58244523Y27423534D02*
X58196904Y27233058D01*
X58196904Y27233058D02*
X58149285Y27137820D01*
X58149285Y27137820D02*
X58101666Y27090200D01*
X58101666Y27090200D02*
X58006428Y27042581D01*
X58006428Y27042581D02*
X57911190Y27042581D01*
X57911190Y27042581D02*
X57815952Y27090200D01*
X57815952Y27090200D02*
X57768333Y27137820D01*
X57768333Y27137820D02*
X57720714Y27233058D01*
X57720714Y27233058D02*
X57673095Y27423534D01*
X57673095Y27423534D02*
X57673095Y27661629D01*
X57673095Y27661629D02*
X57720714Y27852105D01*
X57720714Y27852105D02*
X57768333Y27947343D01*
X57768333Y27947343D02*
X57815952Y27994962D01*
X57815952Y27994962D02*
X57911190Y28042581D01*
X58863571Y28042581D02*
X58958809Y28042581D01*
X58958809Y28042581D02*
X59054047Y27994962D01*
X59054047Y27994962D02*
X59101666Y27947343D01*
X59101666Y27947343D02*
X59149285Y27852105D01*
X59149285Y27852105D02*
X59196904Y27661629D01*
X59196904Y27661629D02*
X59196904Y27423534D01*
X59196904Y27423534D02*
X59149285Y27233058D01*
X59149285Y27233058D02*
X59101666Y27137820D01*
X59101666Y27137820D02*
X59054047Y27090200D01*
X59054047Y27090200D02*
X58958809Y27042581D01*
X58958809Y27042581D02*
X58863571Y27042581D01*
X58863571Y27042581D02*
X58768333Y27090200D01*
X58768333Y27090200D02*
X58720714Y27137820D01*
X58720714Y27137820D02*
X58673095Y27233058D01*
X58673095Y27233058D02*
X58625476Y27423534D01*
X58625476Y27423534D02*
X58625476Y27661629D01*
X58625476Y27661629D02*
X58673095Y27852105D01*
X58673095Y27852105D02*
X58720714Y27947343D01*
X58720714Y27947343D02*
X58768333Y27994962D01*
X58768333Y27994962D02*
X58863571Y28042581D01*
X59815952Y28042581D02*
X59911190Y28042581D01*
X59911190Y28042581D02*
X60006428Y27994962D01*
X60006428Y27994962D02*
X60054047Y27947343D01*
X60054047Y27947343D02*
X60101666Y27852105D01*
X60101666Y27852105D02*
X60149285Y27661629D01*
X60149285Y27661629D02*
X60149285Y27423534D01*
X60149285Y27423534D02*
X60101666Y27233058D01*
X60101666Y27233058D02*
X60054047Y27137820D01*
X60054047Y27137820D02*
X60006428Y27090200D01*
X60006428Y27090200D02*
X59911190Y27042581D01*
X59911190Y27042581D02*
X59815952Y27042581D01*
X59815952Y27042581D02*
X59720714Y27090200D01*
X59720714Y27090200D02*
X59673095Y27137820D01*
X59673095Y27137820D02*
X59625476Y27233058D01*
X59625476Y27233058D02*
X59577857Y27423534D01*
X59577857Y27423534D02*
X59577857Y27661629D01*
X59577857Y27661629D02*
X59625476Y27852105D01*
X59625476Y27852105D02*
X59673095Y27947343D01*
X59673095Y27947343D02*
X59720714Y27994962D01*
X59720714Y27994962D02*
X59815952Y28042581D01*
X61339762Y27042581D02*
X61339762Y27709248D01*
X61339762Y27614010D02*
X61387381Y27661629D01*
X61387381Y27661629D02*
X61482619Y27709248D01*
X61482619Y27709248D02*
X61625476Y27709248D01*
X61625476Y27709248D02*
X61720714Y27661629D01*
X61720714Y27661629D02*
X61768333Y27566391D01*
X61768333Y27566391D02*
X61768333Y27042581D01*
X61768333Y27566391D02*
X61815952Y27661629D01*
X61815952Y27661629D02*
X61911190Y27709248D01*
X61911190Y27709248D02*
X62054047Y27709248D01*
X62054047Y27709248D02*
X62149286Y27661629D01*
X62149286Y27661629D02*
X62196905Y27566391D01*
X62196905Y27566391D02*
X62196905Y27042581D01*
X62673095Y27042581D02*
X62673095Y27709248D01*
X62673095Y27614010D02*
X62720714Y27661629D01*
X62720714Y27661629D02*
X62815952Y27709248D01*
X62815952Y27709248D02*
X62958809Y27709248D01*
X62958809Y27709248D02*
X63054047Y27661629D01*
X63054047Y27661629D02*
X63101666Y27566391D01*
X63101666Y27566391D02*
X63101666Y27042581D01*
X63101666Y27566391D02*
X63149285Y27661629D01*
X63149285Y27661629D02*
X63244523Y27709248D01*
X63244523Y27709248D02*
X63387380Y27709248D01*
X63387380Y27709248D02*
X63482619Y27661629D01*
X63482619Y27661629D02*
X63530238Y27566391D01*
X63530238Y27566391D02*
X63530238Y27042581D01*
X62085000Y25200000D02*
X62085000Y26986420D01*
X56785000Y25200000D02*
X56785000Y26986420D01*
X62085000Y26400000D02*
X56785000Y26400000D01*
X62085000Y26400000D02*
X56785000Y26400000D01*
X62085000Y26400000D02*
X60958496Y25813579D01*
X62085000Y26400000D02*
X60958496Y26986421D01*
X56785000Y26400000D02*
X57911504Y26986421D01*
X56785000Y26400000D02*
X57911504Y25813579D01*
D12*
%TO.C,D2*%
X12635000Y40070000D02*
X12635000Y30330000D01*
X12635000Y30330000D02*
X18075000Y30330000D01*
X15355000Y40980000D02*
X15355000Y40070000D01*
X15355000Y29420000D02*
X15355000Y30330000D01*
X18075000Y40070000D02*
X12635000Y40070000D01*
X18075000Y38645000D02*
X12635000Y38645000D01*
X18075000Y38525000D02*
X12635000Y38525000D01*
X18075000Y38405000D02*
X12635000Y38405000D01*
X18075000Y30330000D02*
X18075000Y40070000D01*
%TO.C,D1*%
X40575000Y40070000D02*
X40575000Y30330000D01*
X40575000Y30330000D02*
X46015000Y30330000D01*
X43295000Y40980000D02*
X43295000Y40070000D01*
X43295000Y29420000D02*
X43295000Y30330000D01*
X46015000Y40070000D02*
X40575000Y40070000D01*
X46015000Y38645000D02*
X40575000Y38645000D01*
X46015000Y38525000D02*
X40575000Y38525000D01*
X46015000Y38405000D02*
X40575000Y38405000D01*
X46015000Y30330000D02*
X46015000Y40070000D01*
%TO.C,R11*%
X25158000Y7260000D02*
X25928000Y7260000D01*
X25928000Y8630000D02*
X25928000Y5890000D01*
X25928000Y5890000D02*
X32468000Y5890000D01*
X32468000Y8630000D02*
X25928000Y8630000D01*
X32468000Y5890000D02*
X32468000Y8630000D01*
X33238000Y7260000D02*
X32468000Y7260000D01*
%TO.C,J2*%
X2595000Y17480000D02*
X3925000Y17480000D01*
X2595000Y16150000D02*
X2595000Y17480000D01*
X2595000Y14880000D02*
X2595000Y9740000D01*
X2595000Y14880000D02*
X5255000Y14880000D01*
X2595000Y9740000D02*
X5255000Y9740000D01*
X5255000Y14880000D02*
X5255000Y9740000D01*
%TO.C,U2*%
X4820000Y32470000D02*
X8580000Y32470000D01*
X4820000Y25650000D02*
X8580000Y25650000D01*
X8580000Y32470000D02*
X8580000Y31210000D01*
X8580000Y25650000D02*
X8580000Y26910000D01*
X3540000Y32370000D02*
X3300000Y32700000D01*
X3780000Y32700000D01*
X3540000Y32370000D01*
G36*
X3540000Y32370000D02*
G01*
X3300000Y32700000D01*
X3780000Y32700000D01*
X3540000Y32370000D01*
G37*
%TO.C,R9*%
X47565000Y23640000D02*
X47565000Y17100000D01*
X47565000Y17100000D02*
X50305000Y17100000D01*
X48935000Y24410000D02*
X48935000Y23640000D01*
X48935000Y16330000D02*
X48935000Y17100000D01*
X50305000Y23640000D02*
X47565000Y23640000D01*
X50305000Y17100000D02*
X50305000Y23640000D01*
%TO.C,C1*%
X29105113Y37310000D02*
X29605113Y37310000D01*
X29355113Y37560000D02*
X29355113Y37060000D01*
X31909888Y38415000D02*
X31909888Y33255000D01*
X31949888Y38415000D02*
X31949888Y33255000D01*
X31989888Y38414000D02*
X31989888Y33256000D01*
X32029888Y38413000D02*
X32029888Y33257000D01*
X32069888Y38411000D02*
X32069888Y33259000D01*
X32109888Y38408000D02*
X32109888Y33262000D01*
X32149888Y38404000D02*
X32149888Y36875000D01*
X32149888Y34795000D02*
X32149888Y33266000D01*
X32189888Y38400000D02*
X32189888Y36875000D01*
X32189888Y34795000D02*
X32189888Y33270000D01*
X32229888Y38396000D02*
X32229888Y36875000D01*
X32229888Y34795000D02*
X32229888Y33274000D01*
X32269888Y38391000D02*
X32269888Y36875000D01*
X32269888Y34795000D02*
X32269888Y33279000D01*
X32309888Y38385000D02*
X32309888Y36875000D01*
X32309888Y34795000D02*
X32309888Y33285000D01*
X32349888Y38378000D02*
X32349888Y36875000D01*
X32349888Y34795000D02*
X32349888Y33292000D01*
X32389888Y38371000D02*
X32389888Y36875000D01*
X32389888Y34795000D02*
X32389888Y33299000D01*
X32429888Y38363000D02*
X32429888Y36875000D01*
X32429888Y34795000D02*
X32429888Y33307000D01*
X32469888Y38355000D02*
X32469888Y36875000D01*
X32469888Y34795000D02*
X32469888Y33315000D01*
X32509888Y38346000D02*
X32509888Y36875000D01*
X32509888Y34795000D02*
X32509888Y33324000D01*
X32549888Y38336000D02*
X32549888Y36875000D01*
X32549888Y34795000D02*
X32549888Y33334000D01*
X32589888Y38326000D02*
X32589888Y36875000D01*
X32589888Y34795000D02*
X32589888Y33344000D01*
X32630888Y38315000D02*
X32630888Y36875000D01*
X32630888Y34795000D02*
X32630888Y33355000D01*
X32670888Y38303000D02*
X32670888Y36875000D01*
X32670888Y34795000D02*
X32670888Y33367000D01*
X32710888Y38290000D02*
X32710888Y36875000D01*
X32710888Y34795000D02*
X32710888Y33380000D01*
X32750888Y38277000D02*
X32750888Y36875000D01*
X32750888Y34795000D02*
X32750888Y33393000D01*
X32790888Y38263000D02*
X32790888Y36875000D01*
X32790888Y34795000D02*
X32790888Y33407000D01*
X32830888Y38249000D02*
X32830888Y36875000D01*
X32830888Y34795000D02*
X32830888Y33421000D01*
X32870888Y38233000D02*
X32870888Y36875000D01*
X32870888Y34795000D02*
X32870888Y33437000D01*
X32910888Y38217000D02*
X32910888Y36875000D01*
X32910888Y34795000D02*
X32910888Y33453000D01*
X32950888Y38200000D02*
X32950888Y36875000D01*
X32950888Y34795000D02*
X32950888Y33470000D01*
X32990888Y38183000D02*
X32990888Y36875000D01*
X32990888Y34795000D02*
X32990888Y33487000D01*
X33030888Y38164000D02*
X33030888Y36875000D01*
X33030888Y34795000D02*
X33030888Y33506000D01*
X33070888Y38145000D02*
X33070888Y36875000D01*
X33070888Y34795000D02*
X33070888Y33525000D01*
X33110888Y38125000D02*
X33110888Y36875000D01*
X33110888Y34795000D02*
X33110888Y33545000D01*
X33150888Y38103000D02*
X33150888Y36875000D01*
X33150888Y34795000D02*
X33150888Y33567000D01*
X33190888Y38082000D02*
X33190888Y36875000D01*
X33190888Y34795000D02*
X33190888Y33588000D01*
X33230888Y38059000D02*
X33230888Y36875000D01*
X33230888Y34795000D02*
X33230888Y33611000D01*
X33270888Y38035000D02*
X33270888Y36875000D01*
X33270888Y34795000D02*
X33270888Y33635000D01*
X33310888Y38010000D02*
X33310888Y36875000D01*
X33310888Y34795000D02*
X33310888Y33660000D01*
X33350888Y37984000D02*
X33350888Y36875000D01*
X33350888Y34795000D02*
X33350888Y33686000D01*
X33390888Y37957000D02*
X33390888Y36875000D01*
X33390888Y34795000D02*
X33390888Y33713000D01*
X33430888Y37930000D02*
X33430888Y36875000D01*
X33430888Y34795000D02*
X33430888Y33740000D01*
X33470888Y37900000D02*
X33470888Y36875000D01*
X33470888Y34795000D02*
X33470888Y33770000D01*
X33510888Y37870000D02*
X33510888Y36875000D01*
X33510888Y34795000D02*
X33510888Y33800000D01*
X33550888Y37839000D02*
X33550888Y36875000D01*
X33550888Y34795000D02*
X33550888Y33831000D01*
X33590888Y37806000D02*
X33590888Y36875000D01*
X33590888Y34795000D02*
X33590888Y33864000D01*
X33630888Y37772000D02*
X33630888Y36875000D01*
X33630888Y34795000D02*
X33630888Y33898000D01*
X33670888Y37736000D02*
X33670888Y36875000D01*
X33670888Y34795000D02*
X33670888Y33934000D01*
X33710888Y37699000D02*
X33710888Y36875000D01*
X33710888Y34795000D02*
X33710888Y33971000D01*
X33750888Y37661000D02*
X33750888Y36875000D01*
X33750888Y34795000D02*
X33750888Y34009000D01*
X33790888Y37620000D02*
X33790888Y36875000D01*
X33790888Y34795000D02*
X33790888Y34050000D01*
X33830888Y37578000D02*
X33830888Y36875000D01*
X33830888Y34795000D02*
X33830888Y34092000D01*
X33870888Y37534000D02*
X33870888Y36875000D01*
X33870888Y34795000D02*
X33870888Y34136000D01*
X33910888Y37488000D02*
X33910888Y36875000D01*
X33910888Y34795000D02*
X33910888Y34182000D01*
X33950888Y37440000D02*
X33950888Y36875000D01*
X33950888Y34795000D02*
X33950888Y34230000D01*
X33990888Y37389000D02*
X33990888Y36875000D01*
X33990888Y34795000D02*
X33990888Y34281000D01*
X34030888Y37335000D02*
X34030888Y36875000D01*
X34030888Y34795000D02*
X34030888Y34335000D01*
X34070888Y37278000D02*
X34070888Y36875000D01*
X34070888Y34795000D02*
X34070888Y34392000D01*
X34110888Y37218000D02*
X34110888Y36875000D01*
X34110888Y34795000D02*
X34110888Y34452000D01*
X34150888Y37154000D02*
X34150888Y36875000D01*
X34150888Y34795000D02*
X34150888Y34516000D01*
X34190888Y37086000D02*
X34190888Y36875000D01*
X34190888Y34795000D02*
X34190888Y34584000D01*
X34230888Y37013000D02*
X34230888Y34657000D01*
X34270888Y36933000D02*
X34270888Y34737000D01*
X34310888Y36846000D02*
X34310888Y34824000D01*
X34350888Y36750000D02*
X34350888Y34920000D01*
X34390888Y36640000D02*
X34390888Y35030000D01*
X34430888Y36512000D02*
X34430888Y35158000D01*
X34470888Y36353000D02*
X34470888Y35317000D01*
X34510888Y36119000D02*
X34510888Y35551000D01*
X34529888Y35835000D02*
G75*
G02*
X29289888Y35835000I-2620000J0D01*
G01*
X29289888Y35835000D02*
G75*
G02*
X34529888Y35835000I2620000J0D01*
G01*
%TO.C,U4*%
X23975000Y23210000D02*
X23975000Y12930000D01*
X23975000Y12930000D02*
X30445000Y12930000D01*
X26210000Y23210000D02*
X23975000Y23210000D01*
X30445000Y23210000D02*
X28210000Y23210000D01*
X30445000Y12930000D02*
X30445000Y23210000D01*
X28210000Y23210000D02*
G75*
G02*
X26210000Y23210000I-1000000J0D01*
G01*
%TO.C,R2*%
X9310000Y13980000D02*
X10080000Y13980000D01*
X10080000Y15350000D02*
X10080000Y12610000D01*
X10080000Y12610000D02*
X16620000Y12610000D01*
X16620000Y15350000D02*
X10080000Y15350000D01*
X16620000Y12610000D02*
X16620000Y15350000D01*
X17390000Y13980000D02*
X16620000Y13980000D01*
%TO.C,C2*%
X23504113Y35551000D02*
X23504113Y36119000D01*
X23544113Y35317000D02*
X23544113Y36353000D01*
X23584113Y35158000D02*
X23584113Y36512000D01*
X23624113Y35030000D02*
X23624113Y36640000D01*
X23664113Y34920000D02*
X23664113Y36750000D01*
X23704113Y34824000D02*
X23704113Y36846000D01*
X23744113Y34737000D02*
X23744113Y36933000D01*
X23784113Y34657000D02*
X23784113Y37013000D01*
X23824113Y36875000D02*
X23824113Y37086000D01*
X23824113Y34584000D02*
X23824113Y34795000D01*
X23864113Y36875000D02*
X23864113Y37154000D01*
X23864113Y34516000D02*
X23864113Y34795000D01*
X23904113Y36875000D02*
X23904113Y37218000D01*
X23904113Y34452000D02*
X23904113Y34795000D01*
X23944113Y36875000D02*
X23944113Y37278000D01*
X23944113Y34392000D02*
X23944113Y34795000D01*
X23984113Y36875000D02*
X23984113Y37335000D01*
X23984113Y34335000D02*
X23984113Y34795000D01*
X24024113Y36875000D02*
X24024113Y37389000D01*
X24024113Y34281000D02*
X24024113Y34795000D01*
X24064113Y36875000D02*
X24064113Y37440000D01*
X24064113Y34230000D02*
X24064113Y34795000D01*
X24104113Y36875000D02*
X24104113Y37488000D01*
X24104113Y34182000D02*
X24104113Y34795000D01*
X24144113Y36875000D02*
X24144113Y37534000D01*
X24144113Y34136000D02*
X24144113Y34795000D01*
X24184113Y36875000D02*
X24184113Y37578000D01*
X24184113Y34092000D02*
X24184113Y34795000D01*
X24224113Y36875000D02*
X24224113Y37620000D01*
X24224113Y34050000D02*
X24224113Y34795000D01*
X24264113Y36875000D02*
X24264113Y37661000D01*
X24264113Y34009000D02*
X24264113Y34795000D01*
X24304113Y36875000D02*
X24304113Y37699000D01*
X24304113Y33971000D02*
X24304113Y34795000D01*
X24344113Y36875000D02*
X24344113Y37736000D01*
X24344113Y33934000D02*
X24344113Y34795000D01*
X24384113Y36875000D02*
X24384113Y37772000D01*
X24384113Y33898000D02*
X24384113Y34795000D01*
X24424113Y36875000D02*
X24424113Y37806000D01*
X24424113Y33864000D02*
X24424113Y34795000D01*
X24464113Y36875000D02*
X24464113Y37839000D01*
X24464113Y33831000D02*
X24464113Y34795000D01*
X24504113Y36875000D02*
X24504113Y37870000D01*
X24504113Y33800000D02*
X24504113Y34795000D01*
X24544113Y36875000D02*
X24544113Y37900000D01*
X24544113Y33770000D02*
X24544113Y34795000D01*
X24584113Y36875000D02*
X24584113Y37930000D01*
X24584113Y33740000D02*
X24584113Y34795000D01*
X24624113Y36875000D02*
X24624113Y37957000D01*
X24624113Y33713000D02*
X24624113Y34795000D01*
X24664113Y36875000D02*
X24664113Y37984000D01*
X24664113Y33686000D02*
X24664113Y34795000D01*
X24704113Y36875000D02*
X24704113Y38010000D01*
X24704113Y33660000D02*
X24704113Y34795000D01*
X24744113Y36875000D02*
X24744113Y38035000D01*
X24744113Y33635000D02*
X24744113Y34795000D01*
X24784113Y36875000D02*
X24784113Y38059000D01*
X24784113Y33611000D02*
X24784113Y34795000D01*
X24824113Y36875000D02*
X24824113Y38082000D01*
X24824113Y33588000D02*
X24824113Y34795000D01*
X24864113Y36875000D02*
X24864113Y38103000D01*
X24864113Y33567000D02*
X24864113Y34795000D01*
X24904113Y36875000D02*
X24904113Y38125000D01*
X24904113Y33545000D02*
X24904113Y34795000D01*
X24944113Y36875000D02*
X24944113Y38145000D01*
X24944113Y33525000D02*
X24944113Y34795000D01*
X24984113Y36875000D02*
X24984113Y38164000D01*
X24984113Y33506000D02*
X24984113Y34795000D01*
X25024113Y36875000D02*
X25024113Y38183000D01*
X25024113Y33487000D02*
X25024113Y34795000D01*
X25064113Y36875000D02*
X25064113Y38200000D01*
X25064113Y33470000D02*
X25064113Y34795000D01*
X25104113Y36875000D02*
X25104113Y38217000D01*
X25104113Y33453000D02*
X25104113Y34795000D01*
X25144113Y36875000D02*
X25144113Y38233000D01*
X25144113Y33437000D02*
X25144113Y34795000D01*
X25184113Y36875000D02*
X25184113Y38249000D01*
X25184113Y33421000D02*
X25184113Y34795000D01*
X25224113Y36875000D02*
X25224113Y38263000D01*
X25224113Y33407000D02*
X25224113Y34795000D01*
X25264113Y36875000D02*
X25264113Y38277000D01*
X25264113Y33393000D02*
X25264113Y34795000D01*
X25304113Y36875000D02*
X25304113Y38290000D01*
X25304113Y33380000D02*
X25304113Y34795000D01*
X25344113Y36875000D02*
X25344113Y38303000D01*
X25344113Y33367000D02*
X25344113Y34795000D01*
X25384113Y36875000D02*
X25384113Y38315000D01*
X25384113Y33355000D02*
X25384113Y34795000D01*
X25425113Y36875000D02*
X25425113Y38326000D01*
X25425113Y33344000D02*
X25425113Y34795000D01*
X25465113Y36875000D02*
X25465113Y38336000D01*
X25465113Y33334000D02*
X25465113Y34795000D01*
X25505113Y36875000D02*
X25505113Y38346000D01*
X25505113Y33324000D02*
X25505113Y34795000D01*
X25545113Y36875000D02*
X25545113Y38355000D01*
X25545113Y33315000D02*
X25545113Y34795000D01*
X25585113Y36875000D02*
X25585113Y38363000D01*
X25585113Y33307000D02*
X25585113Y34795000D01*
X25625113Y36875000D02*
X25625113Y38371000D01*
X25625113Y33299000D02*
X25625113Y34795000D01*
X25665113Y36875000D02*
X25665113Y38378000D01*
X25665113Y33292000D02*
X25665113Y34795000D01*
X25705113Y36875000D02*
X25705113Y38385000D01*
X25705113Y33285000D02*
X25705113Y34795000D01*
X25745113Y36875000D02*
X25745113Y38391000D01*
X25745113Y33279000D02*
X25745113Y34795000D01*
X25785113Y36875000D02*
X25785113Y38396000D01*
X25785113Y33274000D02*
X25785113Y34795000D01*
X25825113Y36875000D02*
X25825113Y38400000D01*
X25825113Y33270000D02*
X25825113Y34795000D01*
X25865113Y36875000D02*
X25865113Y38404000D01*
X25865113Y33266000D02*
X25865113Y34795000D01*
X25905113Y33262000D02*
X25905113Y38408000D01*
X25945113Y33259000D02*
X25945113Y38411000D01*
X25985113Y33257000D02*
X25985113Y38413000D01*
X26025113Y33256000D02*
X26025113Y38414000D01*
X26065113Y33255000D02*
X26065113Y38415000D01*
X26105113Y33255000D02*
X26105113Y38415000D01*
X28659888Y34110000D02*
X28659888Y34610000D01*
X28909888Y34360000D02*
X28409888Y34360000D01*
X28725113Y35835000D02*
G75*
G02*
X23485113Y35835000I-2620000J0D01*
G01*
X23485113Y35835000D02*
G75*
G02*
X28725113Y35835000I2620000J0D01*
G01*
%TO.C,R10*%
X24650000Y10816000D02*
X25420000Y10816000D01*
X25420000Y12186000D02*
X25420000Y9446000D01*
X25420000Y9446000D02*
X31960000Y9446000D01*
X31960000Y12186000D02*
X25420000Y12186000D01*
X31960000Y9446000D02*
X31960000Y12186000D01*
X32730000Y10816000D02*
X31960000Y10816000D01*
%TO.C,J1*%
X11425000Y1595000D02*
X11425000Y855000D01*
X11425000Y855000D02*
X11925000Y855000D01*
X11665000Y11016000D02*
X11665000Y1095000D01*
X11665000Y11016000D02*
X21785000Y11016000D01*
X11665000Y8056000D02*
X21785000Y8056000D01*
X11665000Y3155000D02*
X21785000Y3155000D01*
X11665000Y1655000D02*
X21785000Y1655000D01*
X11665000Y1095000D02*
X21785000Y1095000D01*
X17998000Y4732000D02*
X17951000Y4686000D01*
X18191000Y4516000D02*
X18156000Y4481000D01*
X20295000Y7030000D02*
X20260000Y6994000D01*
X20500000Y6824000D02*
X20453000Y6778000D01*
X21785000Y11016000D02*
X21785000Y1095000D01*
X12689574Y5071958D02*
G75*
G02*
X12690001Y6438999I1535419J683041D01*
G01*
X13541958Y7290426D02*
G75*
G02*
X14908999Y7289999I683041J-1535419D01*
G01*
X14253805Y4074748D02*
G75*
G02*
X13541000Y4220001I-28806J1680253D01*
G01*
X14908318Y4220245D02*
G75*
G02*
X14225000Y4075001I-683318J1534755D01*
G01*
X15760426Y6438042D02*
G75*
G02*
X15760000Y5071000I-1535426J-683042D01*
G01*
X20905000Y5755000D02*
G75*
G02*
X17545000Y5755000I-1680000J0D01*
G01*
X17545000Y5755000D02*
G75*
G02*
X20905000Y5755000I1680000J0D01*
G01*
%TD*%
M02*
