%TF.GenerationSoftware,KiCad,Pcbnew,8.0.5*%
%TF.CreationDate,2024-10-02T01:02:07-03:00*%
%TF.ProjectId,monitor_solar_v2,6d6f6e69-746f-4725-9f73-6f6c61725f76,rev?*%
%TF.SameCoordinates,Original*%
%TF.FileFunction,Soldermask,Bot*%
%TF.FilePolarity,Negative*%
%FSLAX46Y46*%
G04 Gerber Fmt 4.6, Leading zero omitted, Abs format (unit mm)*
G04 Created by KiCad (PCBNEW 8.0.5) date 2024-10-02 01:02:07*
%MOMM*%
%LPD*%
G01*
G04 APERTURE LIST*
G04 Aperture macros list*
%AMRoundRect*
0 Rectangle with rounded corners*
0 $1 Rounding radius*
0 $2 $3 $4 $5 $6 $7 $8 $9 X,Y pos of 4 corners*
0 Add a 4 corners polygon primitive as box body*
4,1,4,$2,$3,$4,$5,$6,$7,$8,$9,$2,$3,0*
0 Add four circle primitives for the rounded corners*
1,1,$1+$1,$2,$3*
1,1,$1+$1,$4,$5*
1,1,$1+$1,$6,$7*
1,1,$1+$1,$8,$9*
0 Add four rect primitives between the rounded corners*
20,1,$1+$1,$2,$3,$4,$5,0*
20,1,$1+$1,$4,$5,$6,$7,0*
20,1,$1+$1,$6,$7,$8,$9,0*
20,1,$1+$1,$8,$9,$2,$3,0*%
G04 Aperture macros list end*
%ADD10R,2.400000X1.600000*%
%ADD11O,2.400000X1.600000*%
%ADD12R,1.600000X1.600000*%
%ADD13C,1.600000*%
%ADD14R,2.600000X2.600000*%
%ADD15C,2.600000*%
%ADD16C,3.200000*%
%ADD17O,1.600000X1.600000*%
%ADD18R,1.700000X1.700000*%
%ADD19O,1.700000X1.700000*%
%ADD20C,1.524000*%
%ADD21R,3.200000X3.200000*%
%ADD22O,3.200000X3.200000*%
%ADD23RoundRect,0.375000X-0.625000X-0.375000X0.625000X-0.375000X0.625000X0.375000X-0.625000X0.375000X0*%
%ADD24RoundRect,0.500000X-0.500000X-1.400000X0.500000X-1.400000X0.500000X1.400000X-0.500000X1.400000X0*%
G04 APERTURE END LIST*
D10*
%TO.C,U4*%
X44925000Y-41200000D03*
D11*
X44925000Y-43740000D03*
X44925000Y-46280000D03*
X44925000Y-48820000D03*
X55085000Y-48820000D03*
X55085000Y-46280000D03*
X55085000Y-43740000D03*
X55085000Y-41200000D03*
%TD*%
D12*
%TO.C,C4*%
X23500000Y-43000000D03*
D13*
X26000000Y-43000000D03*
%TD*%
D14*
%TO.C,J1*%
X33500000Y-60305000D03*
D15*
X38500000Y-60305000D03*
%TD*%
D16*
%TO.C,H2*%
X82000000Y-24000000D03*
%TD*%
D12*
%TO.C,C5*%
X29500000Y-27000000D03*
D13*
X32000000Y-27000000D03*
%TD*%
%TO.C,R3*%
X57920000Y-36000000D03*
D17*
X68080000Y-36000000D03*
%TD*%
D12*
%TO.C,C2*%
X47000000Y-26000000D03*
D13*
X47000000Y-23500000D03*
%TD*%
D16*
%TO.C,H4*%
X82000000Y-61000000D03*
%TD*%
%TO.C,H3*%
X24000000Y-61000000D03*
%TD*%
D18*
%TO.C,J2*%
X24000000Y-48920000D03*
D19*
X24000000Y-51460000D03*
X24000000Y-54000000D03*
%TD*%
D13*
%TO.C,R10*%
X44000000Y-55000000D03*
D17*
X54160000Y-55000000D03*
%TD*%
D18*
%TO.C,J4*%
X60080000Y-24000000D03*
D19*
X57540000Y-24000000D03*
X55000000Y-24000000D03*
X52460000Y-24000000D03*
%TD*%
D13*
%TO.C,R9*%
X59000000Y-56080000D03*
D17*
X59000000Y-45920000D03*
%TD*%
D13*
%TO.C,R2*%
X40160000Y-50000000D03*
D17*
X30000000Y-50000000D03*
%TD*%
D18*
%TO.C,J5*%
X63540000Y-61000000D03*
D19*
X61000000Y-61000000D03*
X58460000Y-61000000D03*
%TD*%
D13*
%TO.C,R1*%
X29920000Y-45950000D03*
D17*
X40080000Y-45950000D03*
%TD*%
D20*
%TO.C,U1*%
X80000000Y-47460000D03*
X80000000Y-44920000D03*
X64760000Y-44920000D03*
X80000000Y-42380000D03*
X64760000Y-47460000D03*
X64760000Y-50000000D03*
X80000000Y-50000000D03*
X80000000Y-52540000D03*
%TD*%
D13*
%TO.C,R11*%
X54000000Y-60000000D03*
D17*
X43840000Y-60000000D03*
%TD*%
D21*
%TO.C,D2*%
X39000000Y-23380000D03*
D22*
X39000000Y-38620000D03*
%TD*%
D12*
%TO.C,C1*%
X66000000Y-26000000D03*
D13*
X66000000Y-23500000D03*
%TD*%
D16*
%TO.C,H1*%
X24000000Y-24000000D03*
%TD*%
D13*
%TO.C,R4*%
X45920000Y-32000000D03*
D17*
X56080000Y-32000000D03*
%TD*%
D14*
%TO.C,J3*%
X70000000Y-60305000D03*
D15*
X75000000Y-60305000D03*
%TD*%
D21*
%TO.C,D1*%
X73000000Y-23380000D03*
D22*
X73000000Y-38620000D03*
%TD*%
D23*
%TO.C,U2*%
X23850000Y-37300000D03*
X23850000Y-35000000D03*
D24*
X30150000Y-35000000D03*
D23*
X23850000Y-32700000D03*
%TD*%
M02*
